<?xml version="1.0" encoding="UTF-8" standalone="no"?>
<svg
   viewBox="0 0 10457.953 8367.8743"
   version="1.1"
   id="svg278"
   sodipodi:docname="dbplyr.svg"
   width="2767mm"
   height="2214mm"
   inkscape:version="1.1.2 (0a00cf5339, 2022-02-04)"
   xmlns:inkscape="http://www.inkscape.org/namespaces/inkscape"
   xmlns:sodipodi="http://sodipodi.sourceforge.net/DTD/sodipodi-0.dtd"
   xmlns="http://www.w3.org/2000/svg"
   xmlns:svg="http://www.w3.org/2000/svg">
  <sodipodi:namedview
     id="namedview280"
     pagecolor="#ffffff"
     bordercolor="#666666"
     borderopacity="1.0"
     inkscape:pageshadow="2"
     inkscape:pageopacity="0.0"
     inkscape:pagecheckerboard="0"
     showgrid="false"
     units="mm"
     inkscape:zoom="0.050864036"
     inkscape:cx="-3145.6411"
     inkscape:cy="4020.5225"
     inkscape:window-width="2560"
     inkscape:window-height="1510"
     inkscape:window-x="0"
     inkscape:window-y="0"
     inkscape:window-maximized="1"
     inkscape:current-layer="svg278"
     inkscape:document-units="mm" />
  <defs
     id="defs7">
    <style
       id="style2">.cls-1,.cls-52{fill:none;}.cls-1{stroke:#4d4d4d;stroke-width:95px;}.cls-1,.cls-3,.cls-39,.cls-4{stroke-miterlimit:10;}.cls-2{clip-path:url(#clip-path);}.cls-3,.cls-4{stroke:#000;}.cls-4{fill:#4f4f4f;}.cls-5{fill:#93278f;}.cls-6{fill:#8830ef;}.cls-7{fill:#70af02;opacity:0.7;}.cls-8{fill:#0465ad;opacity:0.8;}.cls-9{fill:#77c136;}.cls-10{fill:#3c71f7;}.cls-11{fill:#d217ff;}.cls-11,.cls-12,.cls-13,.cls-14,.cls-15,.cls-53,.cls-54{opacity:0.7;}.cls-12{fill:#08b77d;}.cls-13{fill:#ff301a;}.cls-14{fill:#ff7517;}.cls-15{fill:#03e5a4;}.cls-16{fill:#5527ba;}.cls-17{fill:#019aa6;}.cls-18{fill:#01c8ba;}.cls-19{fill:#01e0e8;}.cls-20{fill:#02e0e8;}.cls-21{fill:#00d7e7;}.cls-22{fill:#0097af;}.cls-23{fill:#01a772;}.cls-24{fill:#01de61;}.cls-25{fill:#01ff84;}.cls-26{fill:#02ff85;}.cls-27{fill:#00f88c;}.cls-28{fill:#00a47e;}.cls-29{fill:#ff015d;}.cls-30{fill:#ff6f01;}.cls-31{fill:#ff9801;}.cls-32{fill:#ff6301;}.cls-33{fill:#ff9501;}.cls-34{fill:#ff2522;}.cls-35{fill:#485eff;}.cls-36{isolation:isolate;}.cls-37{fill:#96bf16;}.cls-38{fill:#bcff17;}.cls-39{fill:#bdf906;stroke:#c1ff00;}.cls-40{fill:#bc17bc;}.cls-41{fill:#f540ff;}.cls-42{fill:#bf00bc;}.cls-43{fill:#ff3bff;}.cls-44{fill:#c900bb;}.cls-45{fill:#ef2cff;}.cls-46{fill:#e2bc00;}.cls-47{fill:#ffe000;}.cls-48{fill:#ddb300;}.cls-49{fill:#dda800;}.cls-50{fill:#ffda00;}.cls-51{fill:#999;}.cls-53{fill:#941aff;}.cls-54{fill:#ff9e1d;}</style>
    <clipPath
       id="clip-path"
       transform="translate(1699.24 510.16)">
      <polygon
         class="cls-1"
         points="56.12,3307.58 1926.63,4387.51 3797.14,3307.58 3797.14,1147.7 1926.63,67.76 56.12,1147.7 "
         id="polygon4" />
    </clipPath>
  </defs>
  <text
     x="2236.7942"
     y="630.29773"
     id="text29"
     style="font-size:16.252px;stroke-width:1.35433" />
  <g
     id="g2105"
     transform="translate(-28.172821,712.02979)">
    <path
       d="M 5310.4802,-694.42299 1688.3101,1396.8379 v 4182.507 L 5310.4802,7670.606 8932.6499,5579.3449 v -4182.507 z"
       id="rect9"
       style="stroke-width:1.93646" />
    <rect
       class="cls-4"
       x="-1700.486"
       y="5271.3999"
       width="8555.4531"
       height="192.62701"
       transform="rotate(-29.999999)"
       id="rect11"
       style="stroke-width:1.35433" />
    <rect
       class="cls-4"
       x="-1951.0345"
       y="5688.6128"
       width="8879.2617"
       height="133.29361"
       transform="rotate(-29.999999)"
       id="rect13"
       style="stroke-width:1.35433" />
    <rect
       class="cls-4"
       x="-2083.1426"
       y="6310.2749"
       width="8879.2617"
       height="38.192238"
       transform="rotate(-29.999999)"
       id="rect15"
       style="stroke-width:1.35433" />
    <rect
       class="cls-4"
       x="-2090.1538"
       y="6406.0386"
       width="8555.4531"
       height="287.55234"
       transform="rotate(-29.999999)"
       id="rect17"
       style="stroke-width:1.35433" />
    <rect
       class="cls-4"
       x="-1458.9742"
       y="5092.0889"
       width="8555.4531"
       height="96.30674"
       transform="rotate(-29.999999)"
       id="rect19"
       style="stroke-width:1.35433" />
    <rect
       class="cls-4"
       x="-1466.761"
       y="4130.7446"
       width="8555.4531"
       height="101.18234"
       transform="rotate(-29.999999)"
       id="rect21"
       style="stroke-width:1.35433" />
    <rect
       class="cls-4"
       x="-1921.2445"
       y="6786.2144"
       width="8555.4531"
       height="506.14194"
       transform="rotate(-29.999999)"
       id="rect23"
       style="stroke-width:1.35433" />
    <rect
       class="cls-4"
       x="-1951.0195"
       y="7504.6797"
       width="8879.2617"
       height="133.29361"
       transform="rotate(-29.999999)"
       id="rect25"
       style="stroke-width:1.35433" />
    <rect
       class="cls-4"
       x="-1343.9254"
       y="7702.9873"
       width="8879.2617"
       height="40.873821"
       transform="rotate(-29.999999)"
       id="rect27"
       style="stroke-width:1.35433" />
    <rect
       class="cls-5"
       x="-2142.3005"
       y="6226.3115"
       width="8555.4531"
       height="48.160141"
       transform="rotate(-29.999999)"
       id="rect31"
       style="stroke-width:1.35433" />
    <rect
       class="cls-6"
       x="-2247.8623"
       y="6439.3862"
       width="8555.4531"
       height="134.49896"
       transform="rotate(-29.999999)"
       id="rect33"
       style="stroke-width:1.35433" />
    <rect
       class="cls-7"
       x="-2366.9919"
       y="6998.2222"
       width="8555.4531"
       height="82.140396"
       transform="rotate(-29.999999)"
       id="rect35"
       style="stroke-width:1.35433" />
    <rect
       class="cls-8"
       x="-1598.9535"
       y="7057.1646"
       width="8555.4531"
       height="82.140396"
       transform="rotate(-29.999999)"
       id="rect37"
       style="stroke-width:1.35433" />
    <polygon
       class="cls-9"
       points="3929.49,4515.26 3852.94,4515.26 3814.67,4448.97 3852.94,4382.68 3929.49,4382.68 3967.76,4448.97 "
       id="polygon39"
       transform="matrix(1.3543346,0,0,1.3543346,675.45465,-60.62959)" />
    <polygon
       class="cls-10"
       points="3699.58,4487.47 3655.13,4487.47 3632.9,4448.97 3655.13,4410.48 3699.58,4410.48 3721.8,4448.97 "
       id="polygon41"
       transform="matrix(1.3543346,0,0,1.3543346,675.45465,-60.62959)" />
    <polygon
       class="cls-11"
       points="4031.57,1594.67 3998.55,1651.87 3932.5,1651.87 3899.47,1594.67 3932.5,1537.47 3998.55,1537.47 "
       id="polygon43"
       transform="matrix(1.3543346,0,0,1.3543346,-64.545353,-320.62959)" />
    <polygon
       class="cls-12"
       points="2121.47,3539.81 2088.44,3482.61 2121.47,3425.41 2187.52,3425.41 2220.54,3482.61 2187.52,3539.81 "
       id="polygon45"
       transform="matrix(1.3543346,0,0,1.3543346,-64.545353,-60.62959)" />
    <polygon
       class="cls-13"
       points="4906.33,1594.67 4881.56,1551.77 4906.33,1508.87 4955.87,1508.87 4980.64,1551.77 4955.87,1594.67 "
       id="polygon47"
       transform="matrix(1.3543346,0,0,1.3543346,-64.545353,-60.62959)" />
    <polygon
       class="cls-14"
       points="4319.15,1594.67 4281.99,1659.02 4207.69,1659.02 4170.53,1594.67 4207.69,1530.32 4281.99,1530.32 "
       id="polygon49"
       transform="matrix(1.3543346,0,0,1.3543346,-64.545353,-320.62959)" />
    <polygon
       class="cls-15"
       points="4494.85,3948.39 4519.62,3905.49 4569.16,3905.49 4593.93,3948.39 4569.16,3991.29 4519.62,3991.29 "
       id="polygon51"
       transform="matrix(2.4579011,0,0,2.4579011,-4841.2129,-4071.6965)" />
    <rect
       class="cls-16"
       x="-1712.3892"
       y="4031.915"
       width="8555.4531"
       height="48.160141"
       transform="rotate(-29.999999)"
       id="rect53"
       style="stroke-width:1.35433" />
    <rect
       class="cls-4"
       x="-2316.2732"
       y="6123.125"
       width="8879.2617"
       height="40.873821"
       transform="rotate(-29.999999)"
       id="rect55"
       style="stroke-width:1.35433" />
    <path
       class="cls-17"
       d="m 2656.9629,3317.582 c 4.3881,24.378 -7.5301,37.3525 -29.24,46.5349 q -136.5711,57.7624 -272.3838,117.2989 c -183.6613,80.9351 -361.797,173.1111 -539.5534,266.1133 -280.6994,146.8775 -549.5754,313.9753 -820.53714,477.5654 -230.38586,139.0902 -449.44948,294.9741 -670.39563,448.1358 -54.6474,37.9214 -109.97197,74.8134 -165.36425,111.6107 -52.57527,34.9148 -106.179837,37.0546 -159.64896657,1.8554 -45.03162543,-29.6599 -63.65372643,-75.2062 -53.65873643,-128.3773 10.441919,-55.5277 39.695547,-100.9115 81.544486,-136.5576 q 89.494427,-76.1813 183.769657,-146.6744 c 172.84019,-129.19 357.85584,-239.7172 544.13102,-347.915 188.25251,-109.2678 377.20926,-217.2353 568.11626,-321.668 174.9394,-95.6702 352.4521,-186.9253 529.7751,-278.2887 151.5229,-78.0774 304.3325,-153.6493 456.6681,-230.1286 q 100.5051,-50.4354 201.5385,-100.004 a 157.37368,157.37368 0 0 1 30.4996,-10.7264 c 21.6694,-5.5121 31.3935,0.1897 39.1267,21.2496 1.1648,3.1826 2.7087,6.257 3.9682,9.372 13.6653,41.253 26.7752,82.6956 41.1989,123.6778 9.1011,26.0032 20.2202,51.3157 30.4454,76.9262 z"
       id="path57"
       style="stroke-width:1.35433" />
    <path
       class="cls-17"
       d="m 2887.8634,3931.9894 c -0.7448,20.5182 -15.6154,28.888 -31.407,36.3775 -56.4486,26.8022 -113.5068,52.4262 -169.2918,80.5422 -128.8649,64.9404 -256.3214,132.7248 -385.8635,196.3108 -171.8786,84.3209 -343.7436,168.9126 -518.2361,247.6807 -281.7016,127.1585 -568.2382,243.2927 -857.18546,353.0751 -158.30817,60.1324 -319.62297,111.543 -484.58092,150.8864 -57.43733,13.7059 -114.10269,9.5751 -168.69592,-13.9903 -57.45074,-24.7843 -94.24801,-90.9842 -84.19884,-149.5862 5.74237,-33.4386 29.17236,-51.4648 56.15057,-66.3624 47.26628,-26.0981 99.29982,-39.0861 150.85933,-52.7514 238.72856,-63.2745 470.82088,-145.9702 699.96074,-237.4555 308.233,-123.0683 610.2767,-260.3708 913.6748,-394.6801 175.2238,-77.5763 346.8992,-162.0191 519.4144,-245.1752 83.9687,-40.4269 168.2625,-80.0277 252.2583,-120.3327 10.6316,-5.1058 18.5409,-2.9118 25.7324,5.2819 3.3317,3.7922 6.2976,7.9094 9.4803,11.8776 1.3544,4.8891 2.2482,9.9137 3.9953,14.6268 q 33.8313,91.878 67.9334,183.6748 z"
       id="path59"
       style="stroke-width:1.35433" />
    <path
       class="cls-18"
       d="m 2648.8369,3317.582 c -10.2252,-25.6105 -21.3443,-50.923 -30.486,-76.9262 -14.4237,-40.9822 -27.5337,-82.4248 -41.1989,-123.6778 152.8908,-61.3379 305.9036,-122.3642 458.5912,-184.1896 57.0988,-23.1184 116.0936,-24.4592 176.0635,-19.7462 9.0199,0.7043 18.0669,0.8939 27.0867,1.3544 l 191.6384,37.2306 c 22.7393,8.126 45.5056,16.1166 68.1907,24.3781 14.1934,5.16 28.2514,10.6992 42.3636,16.0624 32.3821,16.252 65.0081,32.179 97.1193,48.8373 34.5762,17.9178 65.7394,40.0747 86.217,74.4884 0.6094,7.828 1.4356,15.6561 1.7742,23.4977 0.4469,10.1846 -0.5824,20.5588 0.948,30.5673 4.6047,30.2694 27.6555,48.0789 58.0874,44.5576 a 110.33764,110.33764 0 0 0 32.7072,-8.749 c 10.8347,-4.9839 19.9087,-5.2413 30.4996,0.5011 9.846,5.3361 15.3311,11.1056 15.3988,23.4165 0.095,18.3648 3.2639,19.4888 20.4775,11.3222 20.7213,-9.8325 49.4739,5.2142 53.9432,28.2379 3.7109,19.1367 3.7109,19.1367 21.0599,11.5931 23.9988,-10.4284 41.9843,-0.9887 45.5056,25.4344 1.8419,13.9496 6.6904,18.6898 19.3535,11.5389 17.0375,-9.6158 31.1497,-1.6929 43.2168,8.6542 4.9839,4.2526 6.4331,13.6246 7.7603,20.9651 2.9525,16.3875 3.3317,16.9563 17.7012,10.2252 24.7437,-11.566 47.6996,1.1377 49.4467,28.5223 0.921,14.4508 6.3248,13.7194 16.9563,9.1283 26.6804,-11.5254 46.2099,0.4604 47.9705,29.6599 0.7178,11.8775 4.9298,16.8073 15.2498,9.9543 20.7484,-13.7871 37.0546,-2.2346 52.1961,9.2095 5.4173,4.063 7.3134,14.4779 8.4917,22.333 1.896,12.7443 6.2841,19.5837 19.4211,11.9859 18.6086,-10.767 33.0052,-1.07 48.431,7.9499 29.2401,17.1052 29.4568,16.7125 13.6111,46.4266 -1.3543,2.5055 -3.2233,4.8756 -3.914,7.5436 -9.3314,35.9847 -34.7387,42.8376 -68.57,43.9211 -87.5713,2.8035 -174.831,3.2504 -262.0502,-6.6092 -76.1136,-8.6135 -144.9138,-37.7046 -210.2604,-75.1791 -63.735,-36.567 -130.4225,-61.1617 -204.6942,-61.7847 -50.6521,1.0835 -101.3177,2.2888 -151.9834,3.1962 -21.4256,0.3792 -42.8782,0.1355 -64.3174,0.1761 -39.0048,-1.5033 -75.6937,-13.0287 -112.0711,-25.922 -1.8826,-1.9638 -3.3994,-4.686 -5.6882,-5.7694 -51.4648,-24.3781 -92.6636,-62.0286 -132.7248,-101.3178 -8.3021,-8.126 -18.7169,-14.0986 -28.1567,-21.0599 -2.6138,-3.5348 -4.6182,-7.8281 -7.9228,-10.5097 -68.3126,-55.3787 -145.3743,-77.197 -230.5348,-51.1532 -55.609,17.0105 -109.0511,41.1718 -163.4141,62.2994 -23.2539,8.9115 -46.3453,18.2429 -69.4909,27.4253 z m 725.4494,40.4811 c 44.9232,2.7086 88.8849,-36.7702 89.7111,-89.4945 0.7584,-49.2165 -41.0905,-91.228 -90.3477,-91.3769 -52.5482,-0.149 -90.2122,36.269 -90.3612,87.3816 -0.149,53.5369 38.6527,93.3543 90.9978,93.4898 z"
       id="path61"
       style="stroke-width:1.35433" />
    <path
       class="cls-19"
       d="m 3724.4224,3115.3392 c -20.4776,-34.373 -51.6408,-56.5299 -86.217,-74.4884 -32.1789,-16.6583 -64.7372,-32.5853 -97.1193,-48.8373 6.2977,-21.7506 13.8955,-43.2168 18.595,-65.306 6.8394,-32.0571 -12.189,-61.9608 -42.3094,-69.7076 -30.1204,-7.7468 -58.7239,8.2885 -69.5857,39.4517 -6.3383,18.1752 -11.5389,36.7431 -17.2542,55.1215 l -191.6655,-37.1901 c 23.3759,-72.335 47.158,-144.5346 69.965,-217.0321 11.1191,-35.3075 34.9689,-60.5794 61.9472,-83.6437 107.2769,-91.702 224.6571,-167.4364 354.1179,-224.1694 42.0656,-18.4325 86.6774,-26.3689 131.3705,-34.4543 11.6743,-2.1128 22.4413,-9.3314 33.6281,-14.2205 q 13.0964,81.8695 26.2064,163.7119 c 8.5864,53.4421 16.8614,106.9925 26.098,160.2855 3.2233,18.6492 8.8709,36.8786 13.4214,55.2975 -11.5931,5.7288 -23.0236,11.7963 -34.8334,17.0646 -7.7604,3.4671 -16.076,5.6476 -24.053,8.6136 -37.786,14.0851 -63.4506,35.7815 -75.7344,78.6462 -26.545,92.7178 -59.7533,183.5259 -90.307,275.0925 -1.8013,5.3496 -4.1308,10.5096 -6.2706,15.7644 z"
       id="path63"
       style="stroke-width:1.35433" />
    <path
       class="cls-18"
       d="m 3955.6073,2720.1579 c -4.5506,-18.4189 -10.1981,-36.6483 -13.4215,-55.2975 -9.2365,-53.3472 -17.5115,-106.8434 -26.098,-160.2855 q -13.1641,-81.856 -26.2064,-163.7119 c 29.7954,0.4604 59.9293,-1.246 89.5351,1.7335 172.2578,17.3626 325.9071,80.2308 456.9254,194.0762 117.8271,102.3606 196.2025,228.4762 223.5871,384.1299 5.5934,31.7591 7.2999,61.8254 -12.6901,89.5215 -2.9525,4.063 -4.5912,9.1147 -6.8665,13.6923 -21.5745,43.3387 -22.2382,43.7315 -63.6537,15.8457 -4.2391,-2.8576 -7.178,-9.7647 -8.0448,-15.2091 -4.537,-28.5765 -4.5099,-29.0911 -28.7254,-14.8977 -8.6271,5.0516 -15.0602,3.9546 -23.5654,0.2979 -13.3808,-5.7694 -20.1931,-13.2183 -19.841,-29.1588 0.474,-21.3849 -1.9096,-22.1027 -20.6536,-10.8347 -9.9273,5.9591 -17.9585,10.8347 -30.8247,4.063 -12.8662,-6.7716 -18.4325,-14.1392 -17.972,-28.6577 0.5282,-16.8614 -2.1805,-18.446 -15.6019,-8.8844 -12.7308,9.074 -23.0237,8.9657 -36.9598,1.6929 -12.8797,-6.7717 -11.4577,-17.3897 -12.189,-27.2898 -1.0564,-13.733 -6.1893,-15.0332 -17.0917,-9.0741 -10.1711,5.5528 -19.3535,12.189 -32.951,4.7673 -13.1641,-7.2593 -21.1005,-14.1935 -19.7733,-30.7028 1.2054,-14.8977 -1.4762,-15.3852 -15.6967,-8.9792 -8.7084,3.9275 -15.6155,12.7307 -27.9399,7.0019 -13.6382,-6.3248 -21.6694,-13.5434 -21.6694,-30.1881 0,-18.2836 -3.1962,-19.0826 -18.4054,-9.2231 -23.3758,15.155 -48.2956,2.9931 -51.6002,-25.1906 -1.9096,-16.3739 -2.194,-16.5229 -17.3083,-9.0334 -29.3214,14.5456 -61.2295,-5.932 -63.2339,-39.2757 a 103.63368,103.63368 0 0 0 -9.4804,-37.5828 c -16.252,-33.8583 -50.5979,-43.6773 -83.0613,-24.4593 -10.144,5.9185 -19.0555,13.9903 -28.5223,21.1141 z"
       id="path65"
       style="stroke-width:1.35433" />
    <path
       class="cls-20"
       d="m 3398.8133,3443.5351 c 21.4391,0 42.8917,0.2032 64.3173,-0.1761 50.6657,-0.9074 101.3313,-2.1127 151.9834,-3.1962 q -33.276,89.3861 -66.5655,178.7722 c -15.9947,42.8782 -45.1264,70.4254 -88.7225,87.3139 -175.7113,68.2585 -350.5559,138.7516 -525.7527,208.3509 -15.2904,6.0674 -30.7975,11.6066 -46.2099,17.3896 q -34.0208,-91.8239 -67.9876,-183.6748 c -1.747,-4.7131 -2.7086,-9.7377 -3.9952,-14.6268 30.3235,-12.7579 60.3491,-26.3419 91.079,-38.0704 31.4612,-12.0129 54.363,-33.0322 68.3939,-62.8411 28.2649,-60.0512 56.5976,-120.116 82.4383,-181.2235 22.5361,-53.266 41.6864,-107.9676 62.2994,-162.0462 9.4803,6.9613 19.8545,12.9339 28.1566,21.0599 40.1019,39.2757 81.3414,76.8992 132.7248,101.3178 2.2888,1.0835 3.8057,3.8057 5.6882,5.7695 -14.8977,48.756 -30.8111,97.2547 -44.3274,146.4035 a 88.76309,88.76309 0 0 0 -0.3927,44.6931 c 6.4602,23.9717 30.3913,38.9236 54.3088,38.7475 24.7708,-0.1896 46.0474,-15.3717 54.5932,-41.2259 12.3922,-37.6641 23.7551,-75.6938 35.1044,-113.6964 4.9433,-16.2385 8.6677,-32.7072 12.8662,-49.0405 z"
       id="path67"
       style="stroke-width:1.35433" />
    <path
       class="cls-21"
       d="m 3374.2863,3358.0631 c -52.3451,-0.081 -91.1468,-39.9529 -90.9978,-93.4491 0.149,-51.1126 37.813,-87.5307 90.3612,-87.3817 49.2572,0.149 91.1061,42.1604 90.3477,91.377 -0.8262,52.7513 -44.7879,92.1895 -89.7111,89.4538 z m 59.374,-88.6006 c 0.095,-37.2036 -26.3418,-65.0081 -61.8389,-65.0081 a 61.297184,61.297184 0 0 0 -61.2701,61.9473 c 0,36.0524 27.9264,64.4799 63.3016,64.1142 30.2829,-0.2573 63.7891,-28.1973 59.8074,-61.0534 z"
       id="path69"
       style="stroke-width:1.35433" />
    <path
       class="cls-22"
       d="m 3433.6603,3269.4625 c 3.9817,32.8561 -29.5245,60.7961 -59.8074,61.1211 -35.3752,0.3657 -63.2339,-28.0618 -63.3016,-64.1142 a 61.297184,61.297184 0 0 1 61.2701,-61.9473 c 35.4971,-0.027 61.9337,27.7368 61.8389,64.9404 z"
       id="path71"
       style="stroke-width:1.35433" />
    <path
       class="cls-23"
       d="m 3601.8822,5675.4785 c 3.1827,20.6536 1.7065,24.825 -17.6064,33.9667 -53.4285,25.2313 -106.9924,50.2594 -160.8001,74.6374 -106.0715,48.0247 -209.9219,100.4375 -312.0116,156.3715 -104.8932,57.4915 -209.7864,115.0372 -313.6097,174.4518 -62.5838,35.8222 -123.4612,74.6916 -184.4875,113.1682 -135.0678,85.1335 -270.2981,170.0367 -404.3501,256.7683 -64.8456,41.9844 -127.6867,87.0837 -190.5143,132.0612 -109.7959,78.5514 -218.8063,158.2405 -328.2907,237.2523 -24.9062,17.9856 -50.2458,35.3888 -75.6802,52.6295 -28.3056,19.1909 -59.2657,27.4794 -92.8667,17.7688 -59.1438,-17.0917 -88.5464,-61.419 -76.0865,-121.9713 7.4623,-36.2556 25.9355,-66.9719 51.5324,-92.7719 a 999.85106,999.85106 0 0 1 77.1971,-70.588 c 96.7536,-78.9306 197.9766,-151.7667 302.626,-219.971 136.5034,-88.9798 274.9299,-174.9394 414.291,-259.2196 174.5195,-105.5162 352.926,-204.2472 531.5221,-302.5855 88.4787,-48.756 176.7949,-97.7423 265.6392,-145.7941 89.657,-48.4852 179.8692,-95.9275 269.8241,-143.871 35.7409,-19.0419 71.2651,-38.4901 107.2091,-57.1122 12.7579,-6.6092 26.3554,-11.688 39.8446,-16.7667 16.1165,-6.0945 29.1994,-2.492 34.4136,16.726 0.5824,2.1534 2.1534,4.063 3.2639,6.0133 2.7087,8.3427 5.0653,16.7937 8.1261,24.9874 q 25.2989,66.9854 50.8146,133.8489 z"
       id="path73"
       style="stroke-width:1.35433" />
    <path
       class="cls-23"
       d="m 3803.0821,6158.2582 c -0.2302,11.4306 -5.9319,18.9607 -15.9676,24.1613 -22.3329,11.4983 -44.1784,24.0124 -66.7687,34.9825 -124.0028,60.1866 -244.7282,126.4677 -365.0473,193.6698 -81.2601,45.3702 -163.8745,88.262 -246.9629,130.2599 -83.4677,42.2011 -167.5177,83.3729 -252.5157,122.3777 -133.6458,61.3107 -268.0364,120.9827 -402.6166,180.2213 -79.6349,35.0502 -159.6625,69.3284 -240.5298,101.4261 q -164.1318,65.2112 -333.9248,114.6174 c -34.5761,10.1439 -69.7347,17.2948 -106.0308,12.7578 -32.6666,-4.063 -64.832,-10.8347 -89.3048,-35.1044 -26.4096,-26.1386 -40.5217,-57.5998 -35.3346,-95.7108 2.1669,-15.9811 10.2523,-28.6983 22.6038,-38.8965 18.5409,-15.3175 39.7226,-26.098 62.164,-34.0479 29.3619,-10.4149 59.0354,-20.0307 88.8037,-29.2401 74.678,-23.0237 149.2206,-46.5214 222.6391,-73.4185 108.7937,-39.8852 216.2601,-83.102 322.9004,-128.4451 132.3591,-56.2726 262.9034,-116.554 392.9602,-177.8648 112.4098,-52.9815 224.4132,-106.7622 336.5251,-160.3396 66.3623,-31.705 132.806,-63.1797 198.7486,-95.7244 42.1198,-20.8026 83.1696,-43.7856 125.0728,-65.0081 63.8975,-32.504 128.2148,-64.0871 192.1665,-96.4421 q 47.4017,-23.9447 93.9637,-49.2707 c 19.4212,-10.469 22.6174,-10.1711 35.0908,7.8416 q 23.7551,59.848 47.4017,119.7096 c 4.9298,12.3515 9.3314,24.9604 13.9632,37.488 z"
       id="path75"
       style="stroke-width:1.35433" />
    <path
       class="cls-24"
       d="m 4341.8822,5675.4785 q -25.4209,-66.9176 -50.774,-133.8489 c -3.0744,-8.1937 -5.4174,-16.6447 -8.126,-24.9874 61.9608,-27.6691 123.6914,-55.8799 185.9501,-82.8718 59.2792,-25.7323 119.3982,-49.4738 178.5961,-75.3687 33.1406,-14.5049 67.7168,-19.6785 103.1597,-20.8567 19.9087,-0.6637 39.9122,1.2324 59.8751,1.9773 9.6293,1.1512 19.2857,2.1669 28.9151,3.4535 24.2426,3.2504 48.5122,6.3519 72.7006,10.0492 17.796,2.7087 35.4565,6.2977 53.1712,9.4803 0.6772,0.623 1.246,1.544 2.0315,1.8149 27.3305,9.2907 54.661,18.595 82.0592,27.669 1.8012,0.5959 4.1849,-0.5824 6.2976,-0.9345 1.6252,1.5575 2.9931,3.6838 4.9162,4.5641 21.4121,9.8054 43.2169,18.7982 64.2903,29.2672 23.579,11.7015 47.1986,23.7009 65.0081,44.07 4.8485,5.5393 9.6564,11.1056 14.4778,16.6584 0.3792,6.4331 0.623,12.8661 1.1512,19.2857 0.8126,10.144 0.4876,20.6265 3.0066,30.3506 4.7266,18.2565 19.3805,29.4839 38.2735,28.1702 12.189,-0.8532 24.378,-5.0246 36.2014,-8.9251 9.7106,-3.2098 25.5969,-0.8803 31.6643,6.7717 1.544,1.9502 1.7607,5.0923 2.2076,7.7332 0.623,3.6703 0.6501,7.4218 1.3543,11.065 1.1377,5.9997 5.16,8.451 9.9408,4.6047 13.5434,-10.8347 25.5157,-5.4851 38.3412,1.4491 6.4196,3.4807 10.0086,7.5708 11.1598,14.5998 0.8532,5.309 2.5867,10.4825 4.1578,16.5635 5.2683,-2.2076 9.4803,-3.264 12.7849,-5.4986 9.9137,-6.5956 18.7034,-4.6048 28.1701,1.3543 5.309,3.3723 8.0448,7.0696 8.722,13.1371 0.5959,5.4173 2.0179,10.7534 3.3723,17.6063 7.0831,-2.4107 12.7172,-4.3068 18.3106,-6.2435 14.8976,-5.2142 32.7342,4.9163 35.5106,20.315 3.0744,16.9563 3.1962,17.1865 19.0826,9.1283 5.9184,-3.0067 11.1055,-4.063 16.9021,-0.149 a 55.324568,55.324568 0 0 0 9.8731,5.1871 c 5.8913,2.3836 8.7354,6.4195 8.5729,12.8391 a 81.260076,81.260076 0 0 0 0.8262,9.7241 c 0.5417,5.2684 2.9253,7.6926 8.3427,5.2684 3.3993,-1.5304 6.9206,-2.8306 10.1575,-4.6454 5.7965,-3.264 10.8347,-2.6139 17.024,0.1219 11.2139,4.9975 17.8365,11.4035 17.1729,24.9739 -0.5417,11.39 1.9774,12.961 12.189,7.3947 13.0287,-7.1374 23.8228,-5.7966 36.0795,1.9367 7.3947,4.6589 11.7692,9.223 12.8662,17.9991 2.5461,20.6265 4.1849,17.2677 19.5295,11.3764 9.3449,-3.589 17.2407,-4.1443 26.1251,1.5846 10.0627,6.4872 21.1141,11.4441 32.504,17.498 -9.6157,19.5972 -18.9606,38.2328 -27.8857,57.0445 -2.5191,5.2684 -6.7717,5.6205 -11.5254,6.0133 -27.3576,2.3024 -54.6745,5.4173 -82.0862,6.7717 -52.0877,2.4919 -104.2161,2.817 -156.2767,-1.5169 a 362.12199,362.12199 0 0 1 -114.6986,-28.265 q -39.6684,-17.2 -78.3618,-36.6483 c -33.6281,-16.9427 -68.5158,-28.915 -106.2611,-31.8268 -4.1578,-0.3251 -8.2614,-1.246 -12.3921,-1.8961 a 29.064021,29.064021 0 0 0 -25.2448,-0.081 l -0.3657,0.176 a 818.18062,818.18062 0 0 0 -99.5301,5.4174 c -24.2425,2.7899 -48.8779,2.2752 -73.3372,3.2233 h 0.081 l -12.7308,-2.5733 c -7.2727,-0.474 -14.7622,0 -21.7641,-1.5981 -19.1503,-4.4422 -38.0839,-9.7647 -57.1123,-14.7351 -4.2391,-2.7087 -8.2479,-5.932 -12.7714,-8.126 -25.3396,-12.0672 -47.8215,-28.2244 -68.7731,-46.7923 -18.6898,-16.5771 -37.7588,-32.7072 -56.6654,-49.0405 -8.126,-5.4173 -16.0759,-11.0242 -24.378,-16.1436 -51.1667,-31.6508 -105.7735,-38.8694 -163.3463,-21.8319 a 419.36971,419.36971 0 0 0 -47.0902,17.2407 c -47.3475,20.5588 -94.4242,41.6322 -141.6092,62.4754 z m 653.7644,-58.5208 c 3.6702,-41.6322 -36.2014,-73.5268 -71.1974,-72.9038 -44.6253,0.7991 -73.5268,32.3551 -72.9309,73.3101 0.623,42.8512 29.7954,69.965 73.2695,71.8746 37.3525,1.6523 75.9917,-38.26 70.8588,-72.2809 z"
       id="path77"
       style="stroke-width:1.35433" />
    <path
       class="cls-25"
       d="m 5204.4173,5485.5873 c -4.8215,-5.5528 -9.6294,-11.1191 -14.4779,-16.6583 -17.8095,-20.3151 -41.4291,-32.3686 -65.008,-44.0701 -21.0735,-10.469 -42.8783,-19.4618 -64.2903,-29.2672 -1.9232,-0.8803 -3.291,-3.0066 -4.9162,-4.5641 1.1241,-4.4828 2.1669,-8.9927 3.3858,-13.4621 3.3181,-12.0671 7.3134,-23.9988 9.9137,-36.2149 5.4986,-25.8677 -10.4013,-49.8666 -36.093,-55.5277 -22.7122,-5.0381 -45.7765,8.126 -53.7671,31.4883 -5.1058,14.8977 -9.2501,30.1204 -13.8277,45.1941 -17.7147,-3.1826 -35.3752,-6.7716 -53.1712,-9.4803 -24.1884,-3.6973 -48.4581,-6.7717 -72.7007,-10.0492 -9.6293,-1.2866 -19.2857,-2.3023 -28.915,-3.4535 17.0646,-56.0153 34.5084,-111.9222 51.0313,-168.0865 9.3043,-31.6372 28.5765,-55.5277 52.8191,-76.9804 63.9381,-56.6924 132.6299,-106.708 207.1319,-148.5027 43.7992,-24.5812 88.0317,-48.6071 137.7764,-59.5908 13.1506,-2.8982 26.396,-5.4173 39.6685,-7.828 9.3449,-1.6659 17.9043,-4.7673 25.1365,-11.092 1.1511,1.3543 3.0472,2.6138 3.3452,4.1578 3.1149,16.3468 5.959,32.7343 8.9115,49.0946 q 10.6992,59.3199 21.4526,118.6397 c 4.063,22.2653 8.1261,44.5441 12.1891,66.8094 3.8192,20.4098 7.8009,40.8061 11.7014,61.2023 -9.0063,4.5912 -17.9856,9.2366 -27.0867,13.7736 q -26.6668,13.3944 -53.4014,26.6669 c -9.074,4.5099 -12.9203,12.514 -15.7645,21.737 q -21.7641,70.4254 -44.0429,140.8508 c -12.1078,38.4496 -24.5541,76.8179 -37.0004,115.2133 z"
       id="path79"
       style="stroke-width:1.35433" />
    <path
       class="cls-24"
       d="m 5381.7268,5167.3186 c -3.9005,-20.3962 -7.8823,-40.7925 -11.7015,-61.2023 -4.1578,-22.2653 -8.126,-44.5441 -12.189,-66.8094 q -10.8347,-59.3198 -21.4527,-118.6397 c -2.9524,-16.3603 -5.7965,-32.7478 -8.9115,-49.0946 -0.2979,-1.5439 -2.194,-2.7087 -3.3452,-4.1578 4.9975,-6.0674 12.0671,-3.9276 18.2293,-4.063 a 662.83844,662.83844 0 0 1 214.5673,31.0549 c 96.9839,30.9601 182.8351,80.7183 254.818,153.1075 72.3215,72.7413 121.5651,158.2946 140.7289,259.9645 0.3386,1.8284 0.8397,3.6297 1.1377,5.4174 5.4173,33.8583 5.4173,33.8583 -9.3449,65.2924 -5.756,12.1891 -11.8369,24.2426 -17.5251,36.4723 -2.4514,5.2683 -5.2819,6.7039 -10.8347,3.8057 -8.6271,-4.5506 -17.5386,-8.6272 -26.5314,-12.4328 -5.8914,-2.5056 -8.4375,-6.3654 -8.7355,-12.7714 -0.325,-6.88 -1.7606,-13.6923 -3.0066,-22.6851 -7.5707,4.1307 -14.2205,7.0832 -20.0983,11.1597 -6.0945,4.2391 -11.6202,5.0652 -17.9585,0.9887 a 46.927694,46.927694 0 0 0 -8.8167,-4.1714 c -5.4174,-2.0721 -7.4624,-5.6476 -7.9364,-11.6066 -1.9096,-24.2291 -2.641,-24.9333 -22.2382,-11.715 -10.5367,7.0967 -17.1459,0 -25.5157,-2.7087 -8.3697,-2.7087 -8.126,-8.7219 -8.3833,-15.453 -0.1896,-4.8891 -1.6523,-9.7376 -2.5597,-14.5997 l -14.5862,6.4602 c -4.063,1.8283 -8.776,5.8643 -12.2838,5.0381 a 61.066947,61.066947 0 0 1 -19.9493,-9.4803 c -2.3024,-1.5711 -2.7087,-6.6904 -2.9796,-10.2659 -1.6658,-20.1525 -3.4671,-19.6649 -20.4775,-10.2387 -3.8734,2.1398 -9.047,4.862 -12.6766,3.8598 a 68.488701,68.488701 0 0 1 -21.1818,-10.2388 c -2.3565,-1.6929 -2.1127,-7.5842 -2.3294,-11.6066 -0.9481,-17.9314 -1.6252,-19.069 -16.6854,-8.8167 -11.9182,8.126 -21.0599,3.4806 -30.5132,-2.2618 -2.8576,-1.72 -4.3338,-6.6633 -5.2277,-10.4283 -1.4898,-6.2164 -1.9909,-12.6766 -3.264,-21.4798 -7.0425,4.361 -12.7036,7.2051 -17.6063,11.0649 -5.4173,4.3068 -10.469,5.5257 -16.3468,1.4356 a 7.9499441,7.9499441 0 0 0 -2.4649,-1.2866 c -12.189,-3.2504 -18.8388,-10.618 -18.4596,-23.7686 0.095,-3.0608 -1.3543,-6.1622 -2.4243,-10.9701 -6.1351,3.1421 -11.6472,5.4174 -16.5499,8.6 -6.2029,4.063 -11.9723,4.2933 -18.121,0.298 a 21.669354,21.669354 0 0 0 -4.984,-2.4784 c -16.5364,-5.4851 -26.1251,-15.453 -23.3622,-34.2782 0.5146,-3.4807 -0.921,-7.3405 -1.869,-10.9295 -11.0243,-41.7948 -50.3677,-53.7265 -83.0478,-25.3125 -4.8079,4.2255 -9.995,8.0041 -15.006,11.9316 z"
       id="path81"
       style="stroke-width:1.35433" />
    <path
       class="cls-26"
       d="m 4948.0146,5756.5761 c 24.4593,-0.948 49.0947,-0.4334 73.3373,-3.2233 a 818.18062,818.18062 0 0 1 99.53,-5.4174 c -13.8955,40.454 -27.4659,81.0299 -41.8896,121.2942 -5.3225,14.83 -12.7849,28.9015 -19.069,43.4065 -8.5594,19.7462 -22.9424,33.2082 -42.5532,41.9843 -30.5402,13.7194 -60.3762,29.0776 -91.1873,42.1469 -119.4388,50.6792 -239.162,100.7083 -358.7633,150.9948 -8.126,3.4265 -16.252,6.9884 -24.378,10.4825 -4.6318,-12.5276 -9.0334,-25.1364 -13.9226,-37.5421 q -23.5654,-59.9158 -47.4017,-119.7096 c 29.3078,-12.961 59.0355,-25.0417 87.7338,-39.2758 17.8095,-8.8031 29.9173,-24.378 39.1674,-42.201 34.1969,-65.6446 60.5523,-134.5532 85.2147,-204.1795 7.8958,-22.3194 15.9676,-44.5712 23.4706,-67.026 1.4898,-4.4693 0.7178,-9.6971 0.9887,-14.5727 18.9607,16.3333 37.9214,32.5041 56.6518,49.0405 20.9516,18.5679 43.4335,34.7251 68.7731,46.7923 4.5235,2.1533 8.5323,5.4173 12.7714,8.126 -1.8148,6.7716 -3.5483,13.462 -5.4173,20.1525 -9.9138,34.4001 -20.3151,68.6512 -29.6464,103.2138 -7.4624,27.8316 9.223,53.5233 36.7566,58.6291 23.7009,4.3881 45.6546,-9.4803 53.2931,-34.4813 7.0832,-23.105 13.5433,-46.386 20.2202,-69.6399 5.5257,-19.5972 10.8618,-39.3163 16.3197,-58.9948 z"
       id="path83"
       style="stroke-width:1.35433" />
    <path
       class="cls-26"
       d="m 5121.2476,5747.7594 a 29.064021,29.064021 0 0 1 25.2448,0.081 z"
       id="path85"
       style="stroke-width:1.35433" />
    <path
       class="cls-27"
       d="m 4995.6466,5616.9577 c 5.1329,33.9938 -33.5063,73.9061 -70.8588,72.2809 -43.4741,-1.9096 -72.6465,-29.0234 -73.2695,-71.8746 -0.5959,-40.955 28.3056,-72.511 72.9309,-73.3101 34.996,-0.5959 74.8676,31.2987 71.1974,72.9038 z m -72.7955,-50.476 c -27.6149,-0.5553 -50.3135,22.5497 -49.5145,49.6093 0.8533,28.9556 21.3579,49.9884 49.4197,50.4896 a 49.54156,49.54156 0 0 0 50.5979,-50.1104 c -0.5011,-28.7796 -21.6693,-50.0427 -50.5031,-49.9614 z"
       id="path87"
       style="stroke-width:1.35433" />
    <path
       class="cls-26"
       d="m 4948.0959,5756.6438 -12.7307,-2.5732 z"
       id="path89"
       style="stroke-width:1.35433" />
    <path
       class="cls-28"
       d="m 4922.8511,5566.5088 c 28.8338,-0.081 50.002,21.1818 50.5031,49.9478 a 49.54156,49.54156 0 0 1 -50.5979,50.1104 c -28.0618,-0.5011 -48.5664,-21.5339 -49.4197,-50.4896 -0.799,-27.019 21.8996,-50.1239 49.5145,-49.5686 z"
       id="path91"
       style="stroke-width:1.35433" />
    <path
       class="cls-29"
       d="m 4672.1722,4024.1519 c 0.3792,35.2127 -1.1241,38.9642 -34.8199,51.871 q -95.7515,36.6889 -192.3156,71.3464 c -146.5796,52.4263 -291.6424,108.6447 -434.7414,169.8335 q -315.3568,134.7834 -624.6462,282.9205 c -90.9977,43.5825 -179.9369,91.5395 -269.5938,137.9119 -112.2337,58.0603 -224.7112,115.6331 -336.2271,175.0342 -139.1173,74.1227 -279.0878,146.8505 -415.5234,225.6322 q -295.3127,170.5513 -584.4902,351.6123 c -81.707,51.1261 -165.2288,99.3269 -248.3714,148.2319 -28.9286,17.0376 -60.1054,28.6984 -94.519,27.0867 -55.5278,-2.5597 -100.7896,-26.423 -133.6864,-70.5066 -27.5201,-36.8786 -30.0392,-79.5537 -19.1368,-123.2445 9.6294,-38.6256 28.4411,-72.633 53.5775,-103.2003 32.179,-39.0319 71.1974,-70.5608 111.6514,-100.3968 90.8081,-66.9854 186.8981,-126.0615 282.1891,-186.1804 111.394,-70.2493 227.6908,-131.9528 343.5947,-194.1709 119.9128,-64.3716 241.1799,-126.2376 361.9866,-188.9297 206.4141,-107.1143 415.7807,-208.3509 626.637,-306.2692 q 305.6598,-141.9343 613.5136,-279.169 c 138.4265,-62.0692 278.1262,-121.2942 417.1351,-182.0768 105.0151,-45.9255 209.651,-92.7042 314.8286,-138.2505 40.63,-17.6063 82.0998,-32.9238 123.3528,-48.8914 a 111.57008,111.57008 0 0 1 24.6218,-5.9862 c 20.5046,-2.8576 31.7998,4.7266 38.2599,24.4999 1.8013,5.5393 4.063,10.943 6.0675,16.401 0.9751,5.7424 1.4356,11.6473 3.0066,17.2272 q 30.6079,107.8592 61.6087,215.5829 c 1.2189,4.2391 3.9952,8.126 6.0403,12.0807 z"
       id="path93"
       style="stroke-width:1.35433" />
    <path
       class="cls-29"
       d="m 4916.8598,4775.6586 c -2.4242,18.5815 -12.812,30.2288 -30.1204,37.2442 -55.5277,22.482 -110.6491,45.7359 -166.1091,68.2856 -158.0373,64.2361 -314.7745,131.3704 -468.9248,204.5045 -107.0737,50.8011 -215.7726,97.9184 -325.6769,142.2051 -124.9373,50.3948 -249.1975,102.5502 -375.1507,150.3312 q -235.4646,89.3861 -473.2857,172.6505 c -205.8589,71.6985 -412.6929,140.8508 -619.5539,209.624 -115.5519,38.436 -233.7988,67.7167 -352.0322,96.6588 q -96.7401,23.8905 -194.022,45.1129 c -36.2555,7.8822 -73.0257,13.6246 -110.4054,13.0693 -46.9818,-0.7042 -91.9864,-10.8346 -133.9978,-31.4747 -65.8478,-32.3821 -95.3723,-88.5058 -96.686,-159.6761 -0.6771,-36.7431 16.0624,-66.0102 48.1737,-86.393 39.7091,-25.2041 83.5083,-39.4788 128.5535,-50.1916 79.1608,-18.8117 158.6603,-36.242 237.9701,-54.4307 198.7486,-45.5869 393.9488,-103.8233 587.5916,-167.1791 131.7361,-43.0949 262.8899,-88.0317 393.7186,-133.8353 87.2462,-30.5132 173.3548,-64.1413 260.1677,-95.9546 206.5631,-75.748 411.8938,-154.7463 616.8452,-234.7604 100.0447,-39.059 200.7395,-76.4657 300.4998,-116.229 68.9221,-27.4523 136.5305,-58.2364 205.1275,-86.5013 89.0746,-36.7567 178.6638,-72.2267 267.779,-108.875 60.2002,-24.7437 120.0483,-50.3271 179.8286,-76.0594 21.5204,-9.2501 29.0234,-7.6926 41.9844,12.3651 1.3543,2.1804 2.7086,4.4693 4.063,6.7716 1.3543,5.6747 2.5732,11.4306 4.2797,17.0105 q 34.6032,112.8567 69.3825,225.7269 z"
       id="path95"
       style="stroke-width:1.35433" />
    <path
       class="cls-30"
       d="m 4672.1722,4024.1519 c -2.0451,-4.063 -4.8214,-7.8416 -6.0403,-12.0942 q -31.0143,-107.7238 -61.6087,-215.583 c -1.571,-5.5799 -2.0315,-11.4848 -3.0066,-17.2271 103.119,-39.5601 207.2132,-76.4522 312.472,-109.9449 95.9546,-30.5132 191.4623,-62.4213 287.295,-93.3272 a 180.55989,180.55989 0 0 1 36.0795,-7.3811 c 58.5479,-6.2841 116.852,-5.0111 174.6415,7.4082 a 36.445144,36.445144 0 0 0 5.8507,0.2573 c 11.9858,2.7764 23.8498,6.2841 35.9711,8.2344 51.9117,8.3697 102.7398,21.0869 153.1888,35.7138 13.5433,3.9411 27.8451,5.4173 41.7948,7.9228 3.5077,2.5597 6.6633,6.2706 10.5773,7.503 35.5378,11.0785 68.746,27.5201 102.1981,43.4335 5.783,2.7087 11.9588,4.659 17.9585,6.9613 2.4784,2.0044 4.7266,4.4287 7.4759,5.9591 35.145,19.6785 70.4254,39.0861 105.5433,58.8594 36.6754,20.6671 68.9221,46.3453 91.8239,82.4519 2.3701,3.7515 6.2028,6.5685 9.3584,9.8053 -0.325,10.9837 -0.8532,21.9403 -0.9074,32.9239 -0.081,13.5434 -1.6523,27.5201 0.7043,40.7249 7.2186,40.4675 38.9371,52.4533 68.123,49.9749 14.7081,-1.246 29.5381,-5.3496 43.4335,-10.4961 10.3742,-3.8463 18.7305,-3.3858 27.5201,2.3972 a 122.4183,122.4183 0 0 0 11.7827,6.9206 c 6.5415,3.3452 9.0334,8.3427 9.047,15.7645 0,9.4803 -1.8148,19.5024 5.4173,29.7954 6.9884,-2.5462 14.6133,-4.2797 21.1818,-7.9364 11.2139,-6.2164 20.9922,-4.9298 30.6351,2.7086 a 25.732357,25.732357 0 0 0 6.5956,4.1578 c 17.1188,6.7717 25.8271,18.7576 24.4863,37.5016 a 20.315019,20.315019 0 0 0 0.7585,5.8101 c 1.9096,8.3833 4.1578,9.9543 12.189,7.4759 a 165.81119,165.81119 0 0 0 21.9673,-8.126 c 6.7717,-3.2233 12.3651,-2.3566 18.1616,1.9096 a 84.632369,84.632369 0 0 0 13.2589,8.2614 c 8.2209,3.9276 10.2117,10.6315 10.9295,19.0284 2.4243,28.7119 2.9254,29.5922 29.3891,21.0058 13.7736,-4.4694 23.2945,0.5823 34.4813,6.6633 13.5434,7.3676 19.2045,16.8885 19.0691,32.504 -0.2032,22.2111 1.5033,23.1998 22.1163,13.3808 13.286,-6.3383 24.378,-6.6497 35.5377,3.2098 a 60.416867,60.416867 0 0 0 11.5254,7.3134 c 6.4602,3.4807 8.9792,8.5865 8.7761,15.927 -0.2573,9.0063 0.4198,18.0262 0.7855,29.4703 11.2003,-3.5213 20.6536,-5.5663 29.2672,-9.4803 8.2614,-3.7109 14.9924,-2.817 21.7912,2.3836 1.0293,0.7991 2.2076,1.3543 3.291,2.1128 24.2833,16.1436 20.1796,9.0198 20.5859,36.716 0.081,5.6205 1.0158,11.2139 1.72,18.3647 6.704,-1.5574 11.6067,-2.5055 16.3739,-3.8733 6.2571,-1.7878 12.3922,-3.9818 18.6221,-5.8779 18.4325,-5.6069 27.4795,11.5525 41.2937,17.1595 8.3698,3.3858 10.4419,10.3877 10.8347,18.8794 0.4198,9.5616 2.1127,19.0826 3.5212,30.933 12.4057,-2.966 23.0237,-4.9569 33.3844,-8.126 8.7625,-2.7087 15.9541,-2.1128 23.8363,3.291 17.1188,11.7285 34.9554,22.4278 53.5775,34.2376 -2.5056,4.8756 -4.2662,8.8303 -6.4738,12.5411 -12.663,21.2631 -26.0167,42.1469 -37.9213,63.8298 -5.7424,10.469 -12.636,14.6675 -24.5677,14.4643 -60.5793,-1.0157 -121.24,0.3792 -181.7246,-2.4107 a 1432.886,1432.886 0 0 1 -184.3926,-19.9629 c -74.0957,-13.1506 -142.0426,-42.1604 -206.685,-79.7297 q -46.4402,-26.9919 -92.6501,-54.4442 c -55.0266,-32.5041 -115.457,-46.7381 -178.2439,-53.0358 -3.8193,-0.3792 -7.7468,0.3386 -11.6338,0.5418 -4.239,-1.1783 -8.4646,-3.3588 -12.7036,-3.3994 -82.6144,-0.5417 -165.2289,1.3543 -247.8433,-4.063 -4.8214,-1.4356 -9.548,-3.3588 -14.4507,-4.2255 -41.2801,-7.2864 -81.3955,-18.1346 -118.7074,-37.8266 -8.4105,-4.8621 -16.9021,-9.6022 -25.2448,-14.5997 -37.5151,-22.4684 -70.0191,-51.2345 -100.7219,-82.005 -23.3352,-23.4029 -45.6005,-47.8757 -68.3533,-71.8745 -21.8318,-19.5973 -44.842,-37.5016 -70.4254,-52.1961 -70.94,-40.779 -146.3629,-48.6071 -224.3726,-28.116 -45.167,11.864 -89.2371,28.0077 -133.6186,42.797 -48.7696,16.2791 -97.2819,33.1677 -145.9025,49.7718 z m 775.0857,-18.446 c -5.0788,62.7327 51.7762,111.1637 105.3672,111.6378 65.3873,0.5959 112.4098,-49.7177 112.8161,-109.7959 0.4198,-57.6541 -46.6839,-108.4687 -111.9358,-109.5386 -56.6518,-0.9345 -106.1933,49.7989 -106.2475,107.6967 z"
       id="path97"
       style="stroke-width:1.35433" />
    <path
       class="cls-31"
       d="m 5648.81,3628.1309 c -13.9497,-2.5732 -28.2379,-3.9817 -41.7948,-7.9228 -50.449,-14.6269 -101.2771,-27.3441 -153.1888,-35.7138 -12.189,-1.9503 -23.9853,-5.4174 -35.9711,-8.2344 31.881,-81.0976 64.1954,-162.0326 95.5077,-243.3468 16.875,-43.8263 43.6772,-79.3234 81.6122,-106.9925 66.3624,-48.2549 132.3997,-96.8349 204.5045,-136.3544 79.838,-43.7856 160.9491,-84.9574 246.8546,-116.0123 a 532.87649,532.87649 0 0 1 136.6252,-30.3777 c 12.2974,-1.0428 24.8114,-1.6794 36.7296,-4.537 9.8595,-2.3566 18.9607,-7.7062 28.441,-11.7286 1.4356,2.0857 3.914,4.063 4.1578,6.2841 1.8148,16.7261 3.2098,33.5063 4.6996,50.2729 1.6116,18.0669 2.9795,36.1472 4.8485,54.1734 2.0721,19.9223 4.6995,39.8039 6.8529,59.7262 1.8013,16.726 3.115,33.5198 4.9298,50.2593 2.0992,19.2722 4.862,38.4767 6.6904,57.776 1.8961,19.9899 2.7087,40.0747 4.5506,60.0782 3.765,40.6301 7.9093,81.1382 11.891,121.7141 -15.1008,5.7559 -29.9037,12.5005 -45.3702,17.0375 a 446.75435,446.75435 0 0 0 -74.055,29.6735 c -15.4801,7.7603 -25.1365,19.069 -31.3122,35.2127 -15.8457,41.2801 -32.653,82.2081 -49.2572,123.2444 q -49.0811,121.1859 -98.3924,242.2499 a 84.727173,84.727173 0 0 1 -4.5912,8.5187 c -3.1556,-3.2368 -6.9883,-6.0538 -9.3584,-9.8053 -22.9018,-36.1066 -55.1485,-61.7848 -91.8239,-82.4519 -35.0908,-19.7733 -70.4254,-39.1809 -105.5433,-58.8594 -2.7087,-1.5304 -4.9975,-3.9547 -7.4759,-5.9591 7.4894,-20.0712 15.1279,-40.1018 22.4007,-60.2408 2.8576,-7.9229 5.8507,-15.9676 7.1915,-24.229 4.4287,-27.2628 -4.063,-50.4355 -25.7324,-67.4459 -21.6693,-17.0104 -45.8578,-20.2202 -71.5224,-9.1282 -20.4369,8.8302 -32.6801,24.9604 -40.4811,45.1129 q -11.268,28.9963 -22.6173,58.0061 z"
       id="path99"
       style="stroke-width:1.35433" />
    <path
       class="cls-32"
       d="m 6296.7236,3387.2761 c -3.9817,-40.6301 -8.126,-81.1247 -11.891,-121.7141 -1.8555,-20.0035 -2.7087,-40.0883 -4.5506,-60.0783 -1.8283,-19.2993 -4.5912,-38.5037 -6.6904,-57.7759 -1.8148,-16.7396 -3.1285,-33.5333 -4.9298,-50.2594 -2.1534,-19.9222 -4.7808,-39.8038 -6.8529,-59.7261 -1.869,-18.0397 -3.2369,-36.1201 -4.8485,-54.1734 -1.4898,-16.7667 -2.8848,-33.5469 -4.6996,-50.2729 -0.2438,-2.2211 -2.7086,-4.1984 -4.1578,-6.2841 4.4693,-7.4895 11.6202,-4.2797 17.7012,-4.063 77.8878,2.7087 154.1097,15.927 228.8825,37.5557 135.0814,39.0996 257.3236,102.6992 364.4515,194.1845 122.7027,104.839 212.3596,232.0652 258.8539,387.8814 a 646.19367,646.19367 0 0 1 27.0867,171.2556 c 0.1625,6.9207 -0.1083,14.8977 -3.3046,20.6807 -16.9698,30.7705 -34.9147,61.0263 -52.6158,91.4041 -1.2731,2.194 -3.2369,3.9817 -6.3248,7.6926 -17.9314,-10.2253 -36.1066,-20.0171 -53.5368,-31.0143 -3.3723,-2.1127 -4.8892,-8.8032 -5.3497,-13.5433 -1.1105,-11.4035 -1.0834,-22.9154 -1.5845,-36.1743 -14.6539,2.7087 -25.1094,9.3178 -35.6597,15.0737 -7.0967,3.8734 -13.1912,4.7673 -19.7597,-0.1489 a 6.5685228,6.5685228 0 0 0 -1.6523,-1.0564 c -19.8952,-6.7717 -27.4253,-19.7733 -25.2719,-41.3479 2.1263,-21.263 -0.799,-22.2246 -19.543,-13.137 -4.686,2.2617 -9.5887,4.2932 -13.8413,7.2321 -8.6271,5.9185 -15.8864,4.2662 -25.1365,-0.1218 -17.1594,-8.1261 -27.3711,-18.4055 -22.5361,-38.8424 1.1241,-4.7537 -0.298,-10.1168 -0.5553,-15.5748 -9.4803,-1.8419 -16.103,3.1556 -22.035,7.503 -12.6089,9.2366 -23.5925,9.3178 -36.7566,0.149 -15.5478,-10.8347 -16.2521,-9.8325 -17.4574,-28.441 -0.4334,-6.4873 -0.9345,-12.9746 -1.6117,-19.4483 -0.1219,-1.0699 -1.3543,-2.018 -3.3181,-4.835 -9.4803,3.8463 -19.7326,7.5301 -29.5245,12.0942 -7.8145,3.6567 -14.7893,3.887 -21.6693,-1.571 a 50.205184,50.205184 0 0 0 -5.0788,-2.8847 c -24.8927,-15.2769 -21.3985,-7.178 -20.5723,-35.5919 a 96.157757,96.157757 0 0 0 -0.2032,-11.6879 c -0.1625,-1.8013 -1.3543,-3.5078 -2.8035,-7.1238 -9.6293,4.063 -19.2721,7.6384 -28.3462,12.2973 -8.3562,4.3068 -15.778,5.1059 -23.579,-0.948 a 64.371524,64.371524 0 0 0 -11.8233,-6.7717 c -6.6498,-3.1827 -9.223,-8.126 -9.2772,-15.5071 -0.068,-10.8347 -1.2189,-21.6694 -2.1263,-35.9982 -12.0807,6.2976 -21.3714,10.4013 -29.7954,15.7915 -7.6249,4.835 -14.3424,5.4173 -21.5068,-0.1219 a 13.001612,13.001612 0 0 0 -3.3994,-1.9231 c -19.2451,-7.0561 -29.7005,-19.5837 -26.1928,-41.1718 0.4063,-2.4514 -0.4605,-5.1736 -1.0293,-7.6926 -0.2573,-1.1783 -1.1918,-2.1941 -2.4513,-4.361 -9.8731,-1.7606 -17.9856,4.7808 -26.3418,8.7896 -8.3563,4.0089 -15.6426,4.6454 -23.6332,-0.7584 -7.5436,-5.0923 -15.6155,-9.4803 -23.5654,-13.8819 -14.058,-7.8822 -20.1525,-19.1232 -17.6064,-35.619 2.7087,-17.796 -0.8938,-35.0637 -8.126,-51.4647 -16.5906,-37.3526 -52.5752,-52.8191 -90.4289,-37.6776 -11.268,4.4964 -21.1005,12.5818 -31.5831,19.0555 -6.7716,3.9411 -13.2995,8.0583 -19.841,12.1484 z"
       id="path101"
       style="stroke-width:1.35433" />
    <path
       class="cls-31"
       d="m 5246.4372,4011.9358 c 22.7528,23.9988 45.018,48.4716 68.3532,71.8745 30.7028,30.7705 63.2068,59.5908 100.7219,82.005 8.3427,4.9975 16.8344,9.7377 25.2448,14.5997 q -34.5762,90.2529 -69.0711,180.5599 a 82.533151,82.533151 0 0 0 -3.4129,13.2048 70.425399,70.425399 0 0 0 41.1311,78.2805 c 30.459,12.8797 66.4572,2.7087 85.0522,-24.5134 a 110.67622,110.67622 0 0 0 11.3087,-22.6174 q 26.3148,-68.3668 52.0065,-136.9368 c 5.7153,-15.1821 10.8347,-30.608 16.252,-45.9255 82.5467,5.5122 165.2288,3.5619 247.8432,4.063 4.2391,0 8.4646,2.2211 12.7037,3.3994 -28.9557,72.4975 -57.9249,144.9951 -95.1962,213.7817 -4.9568,9.1553 -10.6586,17.9043 -15.629,27.0867 -14.6539,26.9242 -36.3774,45.0181 -65.3196,55.4058 -55.0943,19.7733 -109.4708,41.6323 -164.9037,60.3356 -144.8055,48.8915 -289.9766,96.7131 -435.1207,144.5753 -46.9412,15.48 -94.2752,29.7953 -141.4196,44.544 Q 4882.243,4662.7613 4847.545,4549.864 c -1.7065,-5.5799 -2.8577,-11.3358 -4.2797,-17.0105 44.693,-15.7644 89.9007,-30.4454 134.0791,-47.6726 29.9443,-11.6879 50.7198,-35.0231 67.7167,-62.1233 47.5643,-75.5989 87.6255,-155.1255 124.8832,-236.1147 24.4593,-53.1712 48.0789,-106.7216 71.9423,-160.1771 2.0179,-4.6996 3.0337,-9.8731 4.5506,-14.83 z"
       id="path103"
       style="stroke-width:1.35433" />
    <path
       class="cls-33"
       d="m 5447.2579,4005.7059 c 0,-57.8978 49.5957,-108.6312 106.2475,-107.6967 65.2519,1.0699 112.4098,51.8845 111.9358,109.5386 -0.4334,60.0782 -47.4017,110.3918 -112.8161,109.7959 -53.591,-0.4741 -110.446,-48.9051 -105.3672,-111.6378 z m 104.4734,76.4928 c 48.2278,3.8869 78.2805,-39.1403 78.9441,-72.0777 0.8533,-41.9844 -32.7884,-75.5448 -74.0685,-77.7388 -39.0726,-2.0857 -77.0888,32.7478 -77.8336,73.8789 -0.7178,39.2351 34.4136,78.9442 72.958,75.9376 z"
       id="path105"
       style="stroke-width:1.35433" />
    <path
       class="cls-34"
       d="m 5551.7313,4082.1987 c -38.5444,3.0201 -73.6758,-36.7025 -72.958,-75.9376 0.7448,-41.1311 38.761,-75.9646 77.8336,-73.8789 41.2801,2.194 74.9218,35.8086 74.0685,77.7388 -0.6636,32.9374 -30.7163,75.9646 -78.9441,72.0777 z"
       id="path107"
       style="stroke-width:1.35433" />
    <polygon
       class="cls-9"
       points="3856.19,2357.34 3817.91,2291.05 3856.19,2224.76 3932.73,2224.76 3971,2291.05 3932.73,2357.34 "
       id="polygon109"
       transform="matrix(1.3543346,0,0,1.3543346,-64.545353,-60.62959)" />
    <polygon
       class="cls-15"
       points="2813.45,2804.82 2788.68,2761.92 2813.45,2719.02 2862.99,2719.02 2887.75,2761.92 2862.99,2804.82 "
       id="polygon111"
       transform="matrix(1.3543346,0,0,1.3543346,-64.545353,-60.62959)" />
    <polygon
       class="cls-35"
       points="2149.81,1815.77 2111.54,1882.05 2035,1882.05 1996.73,1815.77 2035,1749.48 2111.54,1749.48 "
       id="polygon113"
       transform="matrix(1.3543346,0,0,1.3543346,-64.545353,-320.62959)" />
    <g
       class="cls-36"
       id="g119"
       transform="matrix(1.3543346,0,0,1.3543346,-64.545353,-60.62959)">
      <ellipse
         class="cls-37"
         cx="1655.96"
         cy="2027.24"
         rx="25.629999"
         ry="167.08"
         transform="rotate(-60,2947.3892,810.73212)"
         id="ellipse115" />
      <path
         class="cls-37"
         d="m 1800.66,2110.78 -50,86.61 c -7.08,12.25 -77.6,-15.21 -157.51,-61.35 -79.91,-46.14 -139,-93.48 -131.89,-105.74 l 50,-86.6 c -7.08,12.26 52,59.6 131.89,105.74 79.89,46.14 150.43,73.56 157.51,61.34 z"
         transform="translate(1699.24,510.16)"
         id="path117" />
    </g>
    <g
       class="cls-36"
       id="g125"
       transform="matrix(1.3543346,0,0,1.3543346,-64.545353,-60.62959)">
      <path
         class="cls-38"
         d="m 1713,1927.56 c 79.92,46.15 139,93.49 131.9,105.74 -7.1,12.25 -77.6,-15.21 -157.52,-61.36 -79.92,-46.15 -139,-93.47 -131.89,-105.73 7.11,-12.26 77.57,15.21 157.51,61.35 z"
         transform="translate(1699.24,510.16)"
         id="path121" />
      <path
         class="cls-38"
         d="m 1844.87,2033.3 -50,86.6 c -7.08,12.26 -77.6,-15.21 -157.52,-61.35 -79.92,-46.14 -139,-93.48 -131.89,-105.74 l 50,-86.6 c -7.07,12.26 52,59.6 131.89,105.73 79.89,46.13 150.44,73.62 157.52,61.36 z"
         transform="translate(1699.24,510.16)"
         id="path123" />
    </g>
    <g
       class="cls-36"
       id="g131"
       transform="matrix(1.3543346,0,0,1.3543346,-64.545353,-60.62959)">
      <path
         class="cls-37"
         d="m 1723.92,1908 c 79.92,46.14 139,93.48 131.89,105.74 -7.11,12.26 -77.59,-15.22 -157.51,-61.36 -79.92,-46.14 -139,-93.47 -131.89,-105.73 7.11,-12.26 77.59,15.18 157.51,61.35 z"
         transform="translate(1699.24,510.16)"
         id="path127" />
      <path
         class="cls-37"
         d="m 1855.81,2013.71 -50,86.6 c -7.07,12.25 -77.59,-15.22 -157.51,-61.35 -79.92,-46.13 -139,-93.48 -131.89,-105.73 l 50,-86.61 c -7.07,12.26 52,59.6 131.89,105.73 79.89,46.13 150.44,73.65 157.51,61.36 z"
         transform="translate(1699.24,510.16)"
         id="path129" />
    </g>
    <g
       class="cls-36"
       id="g137"
       transform="matrix(1.3543346,0,0,1.3543346,-64.545353,-60.62959)">
      <path
         class="cls-38"
         d="m 1769.37,1829.48 c 79.93,46.15 139,93.48 131.89,105.74 -7.11,12.26 -77.59,-15.21 -157.51,-61.36 -79.92,-46.15 -139,-93.47 -131.89,-105.72 7.11,-12.25 77.6,15.21 157.51,61.34 z"
         transform="translate(1699.24,510.16)"
         id="path133" />
      <path
         class="cls-38"
         d="m 1901.26,1935.22 -50,86.6 c -7.07,12.25 -77.59,-15.21 -157.51,-61.35 -79.92,-46.14 -139,-93.48 -131.89,-105.73 l 50,-86.6 c -7.07,12.25 52,59.59 131.89,105.72 79.89,46.13 150.44,73.61 157.51,61.36 z"
         transform="translate(1699.24,510.16)"
         id="path135" />
    </g>
    <g
       class="cls-36"
       id="g143"
       transform="matrix(1.3543346,0,0,1.3543346,-64.545353,-60.62959)">
      <path
         class="cls-37"
         d="m 1781.13,1808.9 c 79.91,46.14 139,93.47 131.89,105.73 -7.11,12.26 -77.6,-15.21 -157.51,-61.35 -79.91,-46.14 -139,-93.48 -131.89,-105.73 7.11,-12.25 77.59,15.21 157.51,61.35 z"
         transform="translate(1699.24,510.16)"
         id="path139" />
      <path
         class="cls-37"
         d="m 1913,1914.63 -50,86.6 c -7.08,12.26 -77.6,-15.21 -157.51,-61.35 -79.91,-46.14 -139,-93.47 -131.89,-105.73 l 50,-86.6 c -7.08,12.25 52,59.59 131.89,105.73 79.89,46.14 150.45,73.61 157.51,61.35 z"
         transform="translate(1699.24,510.16)"
         id="path141" />
    </g>
    <ellipse
       class="cls-39"
       cx="-375.31223"
       cy="5565.9331"
       rx="36.648293"
       ry="223.95277"
       transform="rotate(-60.000001)"
       id="ellipse145"
       style="stroke-width:1.35433" />
    <g
       class="cls-36"
       id="g151"
       transform="matrix(1.3543346,0,0,1.3543346,-64.545353,-60.62959)">
      <path
         class="cls-40"
         d="m 3422.33,2602.6 c 99.5,57.45 173,116.39 164.21,131.65 -8.79,15.26 -96.61,-18.94 -196.11,-76.39 -99.5,-57.45 -173,-116.39 -164.22,-131.65 8.78,-15.26 96.62,18.94 196.12,76.39 z"
         transform="translate(1699.24,510.16)"
         id="path147" />
      <path
         class="cls-40"
         d="m 3586.54,2734.25 -50,86.6 c -8.81,15.27 -96.61,-18.94 -196.11,-76.39 -99.5,-57.45 -173,-116.38 -164.22,-131.65 l 50,-86.6 c -8.82,15.26 64.72,74.2 164.22,131.65 99.5,57.45 187.3,91.65 196.11,76.39 z"
         transform="translate(1699.24,510.16)"
         id="path149" />
    </g>
    <g
       class="cls-36"
       id="g157"
       transform="matrix(1.3543346,0,0,1.3543346,-64.545353,-60.62959)">
      <path
         class="cls-41"
         d="m 3477.37,2506.11 c 99.51,57.46 173,116.4 164.22,131.66 -8.78,15.26 -96.62,-18.94 -196.13,-76.39 -99.51,-57.45 -173,-116.39 -164.21,-131.65 8.79,-15.26 96.62,18.94 196.12,76.38 z"
         transform="translate(1699.24,510.16)"
         id="path153" />
      <path
         class="cls-41"
         d="m 3641.59,2637.77 -50,86.6 c -8.81,15.26 -96.62,-18.94 -196.13,-76.39 -99.51,-57.45 -173,-116.39 -164.21,-131.65 l 50,-86.6 c -8.81,15.26 64.71,74.2 164.21,131.65 99.5,57.45 187.32,91.62 196.13,76.39 z"
         transform="translate(1699.24,510.16)"
         id="path155" />
    </g>
    <g
       class="cls-36"
       id="g163"
       transform="matrix(1.3543346,0,0,1.3543346,-64.545353,-60.62959)">
      <path
         class="cls-42"
         d="m 3491,2481.73 c 99.5,57.45 173,116.39 164.21,131.65 -8.79,15.26 -96.61,-18.94 -196.11,-76.39 -99.5,-57.45 -173,-116.39 -164.22,-131.65 8.78,-15.26 96.61,18.94 196.12,76.39 z"
         transform="translate(1699.24,510.16)"
         id="path159" />
      <path
         class="cls-42"
         d="m 3655.21,2613.38 -50,86.6 c -8.81,15.26 -96.61,-18.94 -196.11,-76.39 -99.5,-57.45 -173,-116.39 -164.22,-131.65 l 50,-86.6 c -8.81,15.26 64.71,74.2 164.22,131.65 99.51,57.45 187.3,91.65 196.11,76.39 z"
         transform="translate(1699.24,510.16)"
         id="path161" />
    </g>
    <g
       class="cls-36"
       id="g169"
       transform="matrix(1.3543346,0,0,1.3543346,-64.545353,-60.62959)">
      <path
         class="cls-43"
         d="m 3547.59,2384 c 99.5,57.45 173,116.39 164.22,131.65 -8.78,15.26 -96.62,-19 -196.12,-76.39 -99.5,-57.39 -173,-116.39 -164.21,-131.65 8.79,-15.26 96.61,18.94 196.11,76.39 z"
         transform="translate(1699.24,510.16)"
         id="path165" />
      <path
         class="cls-43"
         d="m 3711.81,2515.65 -50,86.6 c -8.81,15.27 -96.62,-18.94 -196.12,-76.39 -99.5,-57.45 -173,-116.38 -164.21,-131.65 l 50,-86.6 c -8.81,15.26 64.71,74.2 164.21,131.65 99.5,57.45 187.31,91.65 196.12,76.39 z"
         transform="translate(1699.24,510.16)"
         id="path167" />
    </g>
    <g
       class="cls-36"
       id="g175"
       transform="matrix(1.3543346,0,0,1.3543346,-64.545353,-60.62959)">
      <path
         class="cls-44"
         d="m 3562.22,2358.36 c 99.51,57.45 173,116.4 164.22,131.66 -8.78,15.26 -96.62,-18.94 -196.13,-76.4 -99.51,-57.46 -173,-116.38 -164.21,-131.64 8.79,-15.26 96.62,18.93 196.12,76.38 z"
         transform="translate(1699.24,510.16)"
         id="path171" />
      <path
         class="cls-44"
         d="m 3726.44,2490 -50,86.6 c -8.81,15.26 -96.62,-18.94 -196.13,-76.39 -99.51,-57.45 -173,-116.39 -164.21,-131.65 l 50,-86.6 c -8.81,15.26 64.71,74.2 164.21,131.64 99.5,57.44 187.32,91.68 196.13,76.4 z"
         transform="translate(1699.24,510.16)"
         id="path173" />
    </g>
    <ellipse
       class="cls-45"
       cx="188.32213"
       cy="8030.4189"
       rx="45.798271"
       ry="279.80432"
       transform="rotate(-60.113474)"
       id="ellipse177"
       style="stroke-width:1.35899" />
    <g
       class="cls-36"
       id="g183"
       transform="matrix(1.3543346,0,0,1.3543346,675.45465,-60.62959)">
      <path
         class="cls-46"
         d="m 2110.2,3689.45 c 57,32.9 99.1,66.66 94.05,75.4 -5.05,8.74 -55.34,-10.85 -112.32,-43.75 -56.98,-32.9 -99.11,-66.67 -94.06,-75.41 5.05,-8.74 55.34,10.85 112.33,43.76 z"
         transform="translate(1699.24,510.16)"
         id="path179" />
      <path
         class="cls-46"
         d="m 2204.25,3764.85 -50,86.6 c -5,8.74 -55.34,-10.85 -112.32,-43.75 -56.98,-32.9 -99.11,-66.67 -94.06,-75.4 l 50,-86.61 c -5,8.74 37.07,42.5 94.06,75.41 56.99,32.91 107.28,52.48 112.32,43.75 z"
         transform="translate(1699.24,510.16)"
         id="path181" />
    </g>
    <g
       class="cls-36"
       id="g189"
       transform="matrix(1.3543346,0,0,1.3543346,675.45465,-60.62959)">
      <path
         class="cls-47"
         d="m 2144.72,3630.19 c 57,32.9 99.1,66.66 94.06,75.4 -5.04,8.74 -55.34,-10.85 -112.34,-43.75 -57,-32.9 -99.09,-66.67 -94,-75.41 5.09,-8.74 55.29,10.86 112.28,43.76 z"
         transform="translate(1699.24,510.16)"
         id="path185" />
      <path
         class="cls-47"
         d="m 2238.78,3705.59 -50,86.6 c -5.05,8.74 -55.34,-10.85 -112.34,-43.75 -57,-32.9 -99.09,-66.66 -94,-75.41 l 50,-86.6 c -5,8.74 37.07,42.51 94,75.41 56.93,32.9 107.29,52.49 112.34,43.75 z"
         transform="translate(1699.24,510.16)"
         id="path187" />
    </g>
    <g
       class="cls-36"
       id="g195"
       transform="matrix(1.3543346,0,0,1.3543346,675.45465,-60.62959)">
      <path
         class="cls-48"
         d="m 2153.53,3615.21 c 57,32.91 99.1,66.67 94,75.41 -5.1,8.74 -55.33,-10.85 -112.33,-43.76 -57,-32.91 -99.1,-66.66 -94.06,-75.4 5.04,-8.74 55.4,10.85 112.39,43.75 z"
         transform="translate(1699.24,510.16)"
         id="path191" />
      <path
         class="cls-48"
         d="m 2247.58,3690.62 -50,86.6 c -5,8.74 -55.33,-10.85 -112.33,-43.75 -57,-32.9 -99.1,-66.67 -94.06,-75.41 l 50,-86.6 c -5,8.74 37.07,42.5 94.06,75.4 56.99,32.9 107.29,52.5 112.33,43.76 z"
         transform="translate(1699.24,510.16)"
         id="path193" />
    </g>
    <g
       class="cls-36"
       id="g201"
       transform="matrix(1.3543346,0,0,1.3543346,675.45465,-60.62959)">
      <path
         class="cls-47"
         d="m 2193,3546.25 c 57,32.9 99.1,66.65 94.05,75.39 -5.05,8.74 -55.34,-10.84 -112.33,-43.74 -56.99,-32.9 -99.1,-66.67 -94.05,-75.41 5.05,-8.74 55.33,10.85 112.33,43.76 z"
         transform="translate(1699.24,510.16)"
         id="path197" />
      <path
         class="cls-47"
         d="m 2287,3621.64 -50,86.61 c -5.05,8.74 -55.34,-10.85 -112.33,-43.75 -56.99,-32.9 -99.1,-66.67 -94.05,-75.41 l 50,-86.6 c -5,8.74 37.05,42.5 94.05,75.41 57,32.91 107.33,52.49 112.33,43.74 z"
         transform="translate(1699.24,510.16)"
         id="path199" />
    </g>
    <g
       class="cls-36"
       id="g207"
       transform="matrix(1.3543346,0,0,1.3543346,675.45465,-60.62959)">
      <path
         class="cls-49"
         d="m 2188.72,3554 c 57,32.9 99.1,66.66 94.05,75.4 -5.05,8.74 -55.33,-10.85 -112.32,-43.75 -56.99,-32.9 -99.11,-66.67 -94.06,-75.4 5.05,-8.73 55.34,10.81 112.33,43.75 z"
         transform="translate(1699.24,510.16)"
         id="path203" />
      <path
         class="cls-49"
         d="m 2282.77,3629.37 -37.5,65 c -5,8.74 -55.33,-10.85 -112.32,-43.75 -56.99,-32.9 -99.11,-66.67 -94.06,-75.4 l 37.5,-65 c -5,8.73 37.07,42.49 94.06,75.4 56.99,32.91 107.28,52.49 112.32,43.75 z"
         transform="translate(1699.24,510.16)"
         id="path205" />
    </g>
    <ellipse
       class="cls-50"
       cx="-1758.9795"
       cy="7866.5654"
       rx="32.206078"
       ry="159.71669"
       transform="rotate(-60.000001)"
       id="ellipse209"
       style="stroke-width:1.35433" />
    <path
       class="cls-51"
       d="m 3502.6431,1094.0891 145.8461,740.2938 -312.902,177.9032 q -35.9183,20.4196 -69.879,7.8302 -38.2171,-15.7322 -48.2741,-66.8798 l -39.0074,-197.9995 q -13.164,-66.826 7.3993,-106.5876 16.0015,-32.919 61.7614,-58.9598 l 224.6329,-127.6536 -62.1746,-315.3086 z m -8.1176,481.4487 -220.3047,125.265 39.0073,197.9995 220.3048,-125.2649 z"
       id="path211"
       style="stroke-width:1.79591" />
    <path
       class="cls-51"
       d="m 3660.4141,1005.8021 61.8694,314.0334 226.6981,-128.8927 q 46.8195,-26.6154 68.4064,-19.2523 30.0097,8.1535 42.9223,73.7583 l 37.7142,197.3351 a 174.50896,174.50896 0 0 1 -10.9371,103.6959 q -21.3534,50.7166 -55.4218,70.0408 l -319.3136,181.5849 -145.5947,-739.0546 z m 122.7328,623.0205 222.4599,-126.4684 -38.7559,-196.7423 -222.4598,126.4863 z"
       id="path213"
       style="stroke-width:1.79591" />
    <path
       class="cls-51"
       d="m 4527.4096,991.09352 38.5224,195.48518 q 13.0563,66.3232 -9.3388,108.8144 -17.2587,32.5421 -64.0962,59.1396 l -221.3823,125.8756 49.6929,252.2361 -92.5074,52.6382 -133.4186,-677.2392 313.9798,-178.51382 q 35.9183,-20.41957 72.07,-5.92652 36.1518,14.49293 46.4782,67.49046 z m -95.7761,54.45208 -221.2925,125.8756 38.5045,195.4852 221.3823,-125.8756 z"
       id="path215"
       style="stroke-width:1.79591" />
    <path
       class="cls-51"
       d="m 4743.7275,1211.7395 -93.7108,53.3386 -145.5948,-739.0545 93.657,-53.24895 q 151.5572,769.26185 145.6486,738.96485 z"
       id="path217"
       style="stroke-width:1.79591" />
    <path
       class="cls-51"
       d="m 5239.8846,1081.0868 q 10.9012,55.4937 -1.293,91.8788 -13.9902,45.8138 -68.4602,76.7934 l -193.7074,110.1434 -19.7549,-117.8479 190.5284,-108.3296 -26.9387,-136.20203 -222.2624,126.46823 q -50.1059,28.5011 -75.6797,18.5877 -25.5738,-9.9134 -37.7142,-71.5672 l -62.8571,-319.38529 92.5974,-52.63831 q 2.209,11.26041 61.3663,311.5014 l 222.442,-126.46837 -61.3664,-311.51928 92.5974,-52.63818 z"
       id="path219"
       style="stroke-width:1.79591" />
    <path
       class="cls-51"
       d="m 5548.5484,437.16174 -5.3877,-27.74691 -219.3529,124.72631 q 57.1459,290.07601 61.6177,312.75834 l -94.7345,53.87751 -83.9768,-426.27821 314.2849,-177.23879 q 51.0758,-29.07574 75.2847,-20.36559 29.2016,10.03912 41.306,71.83658 l 6.6988,34.12229 z"
       id="path221"
       style="stroke-width:1.79591" />
    <line
       class="cls-52"
       x1="3823.2483"
       y1="3504.4668"
       x2="3843.7261"
       y2="4675.7627"
       id="line223"
       style="stroke-width:1.35433" />
    <line
       class="cls-52"
       x1="5837.9839"
       y1="3352.3342"
       x2="5858.4473"
       y2="4523.6304"
       id="line225"
       style="stroke-width:1.35433" />
    <polygon
       class="cls-53"
       points="2301.22,1869.45 2281.3,1903.94 2241.48,1903.94 2221.57,1869.45 2241.48,1834.97 2281.3,1834.97 "
       id="polygon227"
       transform="matrix(1.3543346,0,0,1.3543346,-64.545353,-320.62959)" />
    <polygon
       class="cls-35"
       points="4609.14,3711.48 4653.5,3634.64 4742.22,3634.64 4786.58,3711.48 4742.22,3788.32 4653.5,3788.32 "
       id="polygon229"
       transform="matrix(2.4579011,0,0,2.4579011,-4841.2129,-4071.6965)" />
    <polygon
       class="cls-54"
       points="2447.24,3651.23 2422.47,3608.33 2447.24,3565.43 2496.78,3565.43 2521.55,3608.33 2496.78,3651.23 "
       id="polygon231"
       transform="matrix(1.3543346,0,0,1.3543346,-64.545353,-60.62959)" />
    <path
       class="cls-51"
       d="m 5565.1734,7182.2456 c -31.6925,-54.9029 -16.6201,-108.889 21.9497,-131.2686 19.4567,-11.2326 36.535,-11.4619 58.4847,-7.8228 l -18.0527,-28.0247 -37.5091,-64.9894 28.8554,-16.6485 142.8165,247.3212 -23.6403,13.6398 -13.8403,-18.3964 -1.0602,0.6018 c -5.7312,20.4596 -17.4224,42.008 -37.2517,53.4414 -42.266,24.5287 -88.1142,8.4245 -120.752,-47.8538 z m 142.8164,-27.824 -50.9487,-88.2288 c -21.6629,-4.6422 -37.2512,-2.0633 -51.2064,5.9604 -27.1074,15.6454 -33.6123,54.1293 -11.4621,92.6987 23.268,40.2889 54.4446,54.7884 83.8733,37.7387 15.7603,-9.0264 24.9013,-24.5001 29.7439,-48.169 z"
       id="path233"
       style="stroke-width:2.86549" />
    <path
       class="cls-51"
       d="m 5835.0748,7115.3648 -1.0604,0.6018 7.5935,18.769 -22.9236,13.2386 -142.8168,-247.3785 28.4832,-16.4479 38.9135,67.4251 16.9636,30.9474 c 7.4788,-22.3509 20.4024,-43.2691 39.1715,-54.1005 43.7848,-25.2739 86.5094,-5.0147 116.5972,47.1086 33.297,57.6538 18.3677,111.21 -20.2019,133.4749 -15.6457,9.0265 -37.9678,11.2902 -60.7198,6.3615 z m 51.579,-122.4427 c -21.4627,-37.2515 -48.3982,-54.9603 -80.2341,-36.5066 -14.3275,8.2239 -24.586,24.8152 -31.9502,49.0001 l 51.1489,88.5726 c 22.3797,4.241 40.4611,0.2865 51.5792,-6.1322 27.6806,-15.9323 33.5263,-53.1835 9.4562,-94.9339 z"
       id="path235"
       style="stroke-width:2.86549" />
    <path
       class="cls-51"
       d="m 5913.3315,6868.2155 23.6116,-13.6685 13.6685,18.0527 1.0603,-0.6017 c 7.8514,-21.6632 20.4024,-43.2689 40.1171,-54.7023 43.4123,-25.0732 86.1657,-4.814 116.4539,47.653 33.0964,57.3101 18.1386,110.8663 -20.4024,133.1311 -15.6457,9.0266 -35.5036,10.7744 -58.141,7.6224 l 17.7373,29.142 32.8959,56.9663 -28.4828,16.4479 z m 165.4539,13.7829 c -21.4626,-37.2512 -48.3982,-54.9601 -80.2339,-36.5064 -14.3275,8.2242 -23.8696,24.414 -31.9215,49 l 51.1489,88.5727 c 22.695,4.0403 40.4609,0.2866 51.579,-6.1322 27.6522,-16.0467 33.4977,-53.2409 9.4275,-94.9341 z"
       id="path237"
       style="stroke-width:2.86549" />
    <path
       class="cls-51"
       d="m 6183.978,6891.684 -123.2167,-213.3364 28.4832,-16.448 124.3629,215.4284 c 5.215,9.0261 11.0319,10.2868 15.2157,7.8799 a 28.167859,28.167859 0 0 0 5.7309,-4.2982 l 16.2474,19.3133 a 44.128692,44.128692 0 0 1 -14.7,12.2072 c -21.3768,12.4363 -37.8818,3.9257 -52.1234,-20.7462 z"
       id="path239"
       style="stroke-width:2.86549" />
    <path
       class="cls-51"
       d="m 6315.1033,6953.55 -7.4791,-25.7893 a 58.140983,58.140983 0 0 0 14.3275,-4.9862 c 19.113,-11.032 22.4371,-33.3542 17.1931,-58.1982 l -3.3815,-14.7286 -165.4251,-130.065 29.5144,-17.1931 88.3436,73.5862 c 13.6397,11.4619 29.5718,25.5601 43.8135,38.1683 l 1.4041,-0.8022 c -3.9545,-18.0816 -9.1409,-38.2831 -13.2386,-55.8201 l -23.7264,-110.8948 27.7953,-16.0467 41.9223,219.44 c 7.4503,40.1168 4.7281,75.5631 -29.3427,95.2203 a 64.445082,64.445082 0 0 1 -21.7204,8.1094 z"
       id="path241"
       style="stroke-width:2.86549" />
    <path
       class="cls-51"
       d="m 6356.9682,6612.0684 23.6405,-13.6397 20.0583,29.1708 1.0316,-0.6016 c -0.7738,-27.8241 8.7685,-51.4073 27.8815,-62.4396 a 48.914077,48.914077 0 0 1 20.0583,-6.963 l 8.8831,28.2251 a 54.874314,54.874314 0 0 0 -17.9381,6.6482 c -14.3276,8.2239 -25.245,28.483 -20.2591,63.5854 l 62.5825,108.4017 -28.6549,16.448 z"
       id="path243"
       style="stroke-width:2.86549" />
    <path
       class="cls-51"
       d="m 6539.2713,6708.7791 c -7.6224,-13.2099 -3.4386,-27.652 8.0233,-34.386 11.4621,-6.7339 25.7894,-2.8654 33.3257,10.4017 a 23.898266,23.898266 0 1 1 -41.349,23.8696 z"
       id="path245"
       style="stroke-width:2.86549" />
    <path
       class="cls-51"
       d="m 6600.507,6627.0838 -53.9574,-93.4439 -25.016,14.3275 -12.4361,-21.5485 25.4171,-16.9639 -23.8124,-49.258 23.9842,-13.8404 27.2796,47.2521 45.5039,-26.2765 13.4395,23.2679 -45.5043,26.2765 54.158,93.8164 c 12.0353,20.8321 25.4458,28.8269 44.9025,17.5943 a 71.293626,71.293626 0 0 0 16.5053,-15.531 l 17.9953,18.3105 a 120.72349,120.72349 0 0 1 -27.6522,24.3283 c -36.1339,21.0899 -61.551,5.0431 -80.807,-28.3113 z"
       id="path247"
       style="stroke-width:2.86549" />
    <path
       class="cls-51"
       d="m 6609.7913,6395.2362 c -6.4189,-11.1182 -1.9487,-23.4398 9.1694,-29.8587 11.1181,-6.4186 24.0129,-4.1261 30.4318,6.9919 6.4186,11.1181 1.9484,23.4111 -9.1696,29.8298 -11.1182,6.419 -24.2135,3.7826 -30.4316,-6.963 z m 35.9046,50.1463 28.4833,-16.4479 97.4267,168.8351 -28.4831,16.448 z"
       id="path249"
       style="stroke-width:2.86549" />
    <path
       class="cls-51"
       d="m 6767.9382,6487.8205 c -31.6926,-54.903 -16.6201,-108.8888 21.9497,-131.2686 19.4566,-11.2328 36.5349,-11.4619 58.485,-7.8227 l -18.0531,-28.0246 -37.595,-64.961 28.8554,-16.6484 142.8167,247.3498 -23.6405,13.6398 -13.8692,-18.3965 -1.0313,0.6017 c -5.7312,20.4884 -17.4224,42.0369 -37.2516,53.4703 -42.266,24.4714 -88.1715,8.3386 -120.6661,-47.9398 z m 142.8163,-27.7954 -50.9487,-88.2575 c -21.663,-4.6134 -37.2512,-2.063 -51.2063,5.9602 -27.1075,15.6457 -33.6124,54.1294 -11.4622,92.6992 23.2681,40.2888 54.4446,54.7881 83.8734,37.7384 15.7603,-9.0262 24.8724,-24.4998 29.7438,-48.1403 z"
       id="path251"
       style="stroke-width:2.86549" />
    <path
       class="cls-51"
       d="m 7044.3442,6532.5222 -7.4789,-25.7893 a 58.140983,58.140983 0 0 0 14.3276,-4.9862 c 19.0839,-11.0321 22.4366,-33.3543 17.3361,-58.1982 l -3.3812,-14.7288 -165.454,-130.0648 29.5434,-17.0498 88.3432,73.5861 c 13.6397,11.4619 29.5718,25.5603 43.8135,38.1683 l 1.4041,-0.8022 c -3.983,-18.0813 -9.1409,-38.2546 -13.2386,-55.8198 l -23.755,-110.8951 27.7953,-16.0467 41.9511,219.4399 c 7.4214,40.1171 4.6993,75.5632 -29.3428,95.2205 a 64.645668,64.645668 0 0 1 -21.8638,7.9661 z"
       id="path253"
       style="stroke-width:2.86549" />
    <path
       class="cls-51"
       d="m 7061.881,6205.0817 29.5433,-17.0497 87.3119,77.3684 c 14.4992,13.8691 29.8871,27.6807 44.329,40.6613 l 1.3755,-0.8022 c -4.3555,-18.7976 -8.5965,-39.028 -13.3817,-58.5136 l -23.4111,-114.3334 28.139,-16.2472 37.7387,203.4503 -33.3544,19.2562 z"
       id="path255"
       style="stroke-width:2.86549" />
    <path
       class="cls-51"
       d="m 7283.4989,6190.1525 c -31.8931,-55.247 -14.1844,-110.4077 24.3851,-132.6727 42.9827,-24.8726 85.2488,-7.9948 113.1301,40.3175 a 127.6007,127.6007 0 0 1 8.396,16.9351 l -113.961,65.9066 c 22.752,34.5579 57.8832,44.8738 90.1772,26.2193 a 87.970831,87.970831 0 0 0 34.386,-37.4808 l 20.9182,12.9521 a 116.16735,116.16735 0 0 1 -45.5615,49.4585 c -45.1316,25.9613 -99.9772,13.6112 -131.8701,-41.6356 z m 110.0923,-82.0967 c -19.6572,-34.0422 -45.5613,-43.6415 -71.9814,-28.3972 -23.6117,13.6684 -34.128,45.189 -18.3391,80.5493 z"
       id="path257"
       style="stroke-width:2.86549" />
    <path
       class="cls-51"
       d="m 7419.3806,5998.6799 23.6118,-13.64 20.0587,29.1707 1.0602,-0.6018 c -0.7738,-27.824 8.7682,-51.3783 27.8811,-62.4106 a 48.398285,48.398285 0 0 1 20.0586,-6.9629 l 8.8829,28.2251 a 54.100629,54.100629 0 0 0 -17.9093,6.6478 c -14.3274,8.2243 -25.2736,28.4546 -20.2878,63.5856 l 62.5826,108.3732 -28.483,16.4479 z"
       id="path259"
       style="stroke-width:2.86549" />
    <path
       class="cls-51"
       d="m 7606.2399,6090.4617 3.152,-27.1936 c 21.4054,3.3813 41.1486,3.0947 61.3218,-8.5967 22.2363,-12.8373 26.5345,-31.0618 18.1099,-45.6473 -10.0293,-17.3935 -34.6152,-13.3817 -57.0235,-9.714 -28.9988,5.1579 -62.0094,8.9403 -78.4572,-19.5427 -15.6457,-27.1077 -6.1322,-60.376 30.3457,-81.4374 a 97.42698,97.42698 0 0 1 63.4706,-11.2043 l -3.1235,25.7896 c -16.4765,-2.0631 -32.2367,-1.2894 -47.1659,7.3356 -21.2048,12.2357 -24.2995,29.3142 -16.8779,42.1517 9.2269,15.9895 31.0333,11.2612 54.4445,7.5361 29.5433,-5.0146 62.4394,-10.5736 80.8931,21.3767 15.8462,27.4514 7.2209,63.041 -32.7528,85.9649 a 117.48548,117.48548 0 0 1 -76.3368,13.1814 z"
       id="path261"
       style="stroke-width:2.86549" />
    <path
       class="cls-51"
       d="m 7720.5447,5937.8166 c -31.893,-55.2183 -14.1843,-110.3791 24.3854,-132.6442 42.9826,-24.8723 85.2485,-7.9947 113.13,40.2891 a 127.6007,127.6007 0 0 1 8.3958,16.9351 l -113.9608,65.9066 c 22.752,34.5865 57.8831,44.8736 90.1772,26.2193 a 87.970831,87.970831 0 0 0 34.3858,-37.4807 l 20.9184,12.9519 a 116.16735,116.16735 0 0 1 -45.5614,49.4587 c -45.1316,25.9611 -99.9774,13.6111 -131.8704,-41.6358 z m 110.0926,-82.0681 c -19.6575,-34.0707 -45.5614,-43.6416 -71.9815,-28.3969 -23.6116,13.6397 -34.1281,45.1886 -18.3391,80.5491 z"
       id="path263"
       style="stroke-width:2.86549" />
    <path
       class="cls-51"
       d="m 7937.9788,5901.224 c -7.6222,-13.1812 -3.4673,-27.6519 7.9948,-34.3858 11.4619,-6.734 25.7895,-2.8655 33.3542,10.4018 a 23.898266,23.898266 0 1 1 -41.349,23.8695 z"
       id="path265"
       style="stroke-width:2.86549" />
    <path
       class="cls-51"
       d="m 7975.5455,5790.5873 c -32.6953,-56.6224 -14.4994,-110.1786 26.821,-134.0482 41.3206,-23.8696 96.8252,-12.8373 129.5206,43.7847 32.2943,55.9633 14.1271,109.5194 -27.2223,133.389 -41.349,23.8697 -96.825,12.809 -129.1193,-43.1255 z m 126.827,-73.2137 c -22.4654,-38.8848 -57.1667,-54.072 -86.3662,-37.2513 -29.1994,16.8202 -33.383,54.4442 -10.9174,93.3864 22.4655,38.942 57.1093,53.2123 85.9648,36.5637 28.8557,-16.6483 33.5836,-54.1291 11.2042,-92.6988 z"
       id="path267"
       style="stroke-width:2.86549" />
    <path
       class="cls-51"
       d="m 8127.4168,5589.8876 23.5546,-13.7544 20.0585,29.1708 1.0601,-0.6018 c -0.7734,-27.7953 8.7685,-51.3784 27.8814,-62.4105 a 48.398285,48.398285 0 0 1 20.0585,-6.9633 l 8.8832,28.2251 a 54.100629,54.100629 0 0 0 -17.7663,6.8487 c -14.3276,8.2239 -25.2736,28.483 -20.2878,63.5854 l 62.5827,108.4019 -28.4831,16.4477 z"
       id="path269"
       style="stroke-width:2.86549" />
    <path
       class="cls-51"
       d="m 8347.7739,5730.8701 c -8.2241,-14.3275 -6.648,-33.211 2.6075,-52.4386 l -0.8022,-1.4041 a 35.962017,35.962017 0 0 1 -30.7754,-18.8264 c -8.2242,-14.3276 -4.9287,-30.9759 0.3438,-41.8937 l -0.8024,-1.3752 a 69.087191,69.087191 0 0 1 -48.1405,-32.8961 c -21.2618,-36.8216 -5.5302,-76.9386 28.8557,-96.7964 a 78.056205,78.056205 0 0 1 26.3911,-9.6856 l 58.7142,-33.8988 12.6368,21.8926 -34.7583,20.0585 a 56.478993,56.478993 0 0 1 33.9559,26.7349 c 20.861,36.1055 6.4761,74.5029 -27.9383,94.4183 a 67.797717,67.797717 0 0 1 -28.6551,8.5966 c -2.8655,8.5964 -4.5562,16.9924 0.8595,26.3912 6.2182,10.7741 17.5942,14.3276 40.5182,1.1461 l 32.6667,-18.855 c 39.2573,-22.6661 66.0785,-21.9209 82.3259,6.2182 18.0527,31.2625 0.6877,77.3686 -51.7796,107.7143 -41.4351,23.9839 -79.3743,24.0987 -96.2235,-5.1008 z m 122.5002,-82.2971 c -9.0265,-15.617 -24.185,-13.8116 -46.0773,-1.1748 l -29.1994,16.8492 a 95.449787,95.449787 0 0 1 -23.4971,9.8572 c -7.135,15.7029 -6.5334,28.655 -0.917,38.5123 10.4304,18.0526 35.4748,18.8837 66.0498,1.2322 32.4086,-18.6544 43.8708,-47.5674 33.641,-65.2761 z m -100.7225,-124.0189 c -14.3275,-24.6719 -38.6556,-30.0304 -58.4561,-18.5971 -19.8007,11.4333 -27.3655,35.2457 -13.1241,59.9177 14.2416,24.672 39.6012,30.8901 59.0581,19.6573 19.4567,-11.2328 26.7639,-36.1914 12.5221,-60.9779 z"
       id="path271"
       style="stroke-width:2.86549" />
  </g>
</svg>
