<?xml version="1.0" encoding="UTF-8" standalone="no"?>
<svg
   viewBox="0 0 10457.953 7559.0554"
   version="1.1"
   id="svg278"
   sodipodi:docname="dbplyr.svg"
   width="2767mm"
   height="2000mm"
   inkscape:version="1.1.2 (0a00cf5339, 2022-02-04)"
   xmlns:inkscape="http://www.inkscape.org/namespaces/inkscape"
   xmlns:sodipodi="http://sodipodi.sourceforge.net/DTD/sodipodi-0.dtd"
   xmlns="http://www.w3.org/2000/svg"
   xmlns:svg="http://www.w3.org/2000/svg">
  <sodipodi:namedview
     id="namedview280"
     pagecolor="#ffffff"
     bordercolor="#666666"
     borderopacity="1.0"
     inkscape:pageshadow="2"
     inkscape:pageopacity="0.0"
     inkscape:pagecheckerboard="0"
     showgrid="false"
     units="mm"
     inkscape:zoom="0.050864036"
     inkscape:cx="-3145.6411"
     inkscape:cy="3312.7532"
     inkscape:window-width="2560"
     inkscape:window-height="1510"
     inkscape:window-x="0"
     inkscape:window-y="0"
     inkscape:window-maximized="1"
     inkscape:current-layer="svg278"
     inkscape:document-units="mm" />
  <defs
     id="defs7">
    <style
       id="style2">.cls-1,.cls-52{fill:none;}.cls-1{stroke:#4d4d4d;stroke-width:95px;}.cls-1,.cls-3,.cls-39,.cls-4{stroke-miterlimit:10;}.cls-2{clip-path:url(#clip-path);}.cls-3,.cls-4{stroke:#000;}.cls-4{fill:#4f4f4f;}.cls-5{fill:#93278f;}.cls-6{fill:#8830ef;}.cls-7{fill:#70af02;opacity:0.7;}.cls-8{fill:#0465ad;opacity:0.8;}.cls-9{fill:#77c136;}.cls-10{fill:#3c71f7;}.cls-11{fill:#d217ff;}.cls-11,.cls-12,.cls-13,.cls-14,.cls-15,.cls-53,.cls-54{opacity:0.7;}.cls-12{fill:#08b77d;}.cls-13{fill:#ff301a;}.cls-14{fill:#ff7517;}.cls-15{fill:#03e5a4;}.cls-16{fill:#5527ba;}.cls-17{fill:#019aa6;}.cls-18{fill:#01c8ba;}.cls-19{fill:#01e0e8;}.cls-20{fill:#02e0e8;}.cls-21{fill:#00d7e7;}.cls-22{fill:#0097af;}.cls-23{fill:#01a772;}.cls-24{fill:#01de61;}.cls-25{fill:#01ff84;}.cls-26{fill:#02ff85;}.cls-27{fill:#00f88c;}.cls-28{fill:#00a47e;}.cls-29{fill:#ff015d;}.cls-30{fill:#ff6f01;}.cls-31{fill:#ff9801;}.cls-32{fill:#ff6301;}.cls-33{fill:#ff9501;}.cls-34{fill:#ff2522;}.cls-35{fill:#485eff;}.cls-36{isolation:isolate;}.cls-37{fill:#96bf16;}.cls-38{fill:#bcff17;}.cls-39{fill:#bdf906;stroke:#c1ff00;}.cls-40{fill:#bc17bc;}.cls-41{fill:#f540ff;}.cls-42{fill:#bf00bc;}.cls-43{fill:#ff3bff;}.cls-44{fill:#c900bb;}.cls-45{fill:#ef2cff;}.cls-46{fill:#e2bc00;}.cls-47{fill:#ffe000;}.cls-48{fill:#ddb300;}.cls-49{fill:#dda800;}.cls-50{fill:#ffda00;}.cls-51{fill:#999;}.cls-53{fill:#941aff;}.cls-54{fill:#ff9e1d;}</style>
    <clipPath
       id="clip-path"
       transform="translate(1699.24 510.16)">
      <polygon
         class="cls-1"
         points="56.12,1147.7 56.12,3307.58 1926.63,4387.51 3797.14,3307.58 3797.14,1147.7 1926.63,67.76 "
         id="polygon4" />
    </clipPath>
  </defs>
  <g
     id="g1701"
     transform="matrix(1.3543346,0,0,1.3543346,-2295.8563,-735.30547)">
    <path
       d="M 5346.3008,1075.0098 3475.791,2154.9492 V 4314.8203 L 5346.3008,5394.7598 7216.8105,4314.8203 V 2154.9492 Z"
       id="rect9" />
    <rect
       class="cls-4"
       x="-58.972752"
       y="5210.0278"
       width="6317.0898"
       height="142.23"
       transform="rotate(-30)"
       id="rect11" />
    <rect
       class="cls-4"
       x="-243.97026"
       y="5518.0854"
       width="6556.1802"
       height="98.419998"
       transform="rotate(-30)"
       id="rect13" />
    <rect
       class="cls-4"
       x="-341.51489"
       y="5977.1021"
       width="6556.1802"
       height="28.200001"
       transform="rotate(-30)"
       id="rect15" />
    <rect
       class="cls-4"
       x="-346.69174"
       y="6047.811"
       width="6317.0898"
       height="212.32001"
       transform="rotate(-30)"
       id="rect17" />
    <rect
       class="cls-4"
       x="119.35224"
       y="5077.6299"
       width="6317.0898"
       height="71.110001"
       transform="rotate(-30)"
       id="rect19" />
    <rect
       class="cls-4"
       x="113.60274"
       y="4367.8022"
       width="6317.0898"
       height="74.709999"
       transform="rotate(-30)"
       id="rect21" />
    <rect
       class="cls-4"
       x="-221.97417"
       y="6328.5215"
       width="6317.0898"
       height="373.72"
       transform="rotate(-30)"
       id="rect23" />
    <rect
       class="cls-4"
       x="-243.9592"
       y="6859.0146"
       width="6556.1802"
       height="98.419998"
       transform="rotate(-30)"
       id="rect25" />
    <rect
       class="cls-4"
       x="204.3009"
       y="7005.439"
       width="6556.1802"
       height="30.18"
       transform="rotate(-30)"
       id="rect27" />
    <text
       x="3346.7729"
       y="1008.3204"
       id="text29" />
    <rect
       class="cls-5"
       x="-385.19525"
       y="5915.106"
       width="6317.0898"
       height="35.560001"
       transform="rotate(-30)"
       id="rect31" />
    <rect
       class="cls-6"
       x="-463.13889"
       y="6072.4341"
       width="6317.0898"
       height="99.309998"
       transform="rotate(-30)"
       id="rect33" />
    <rect
       class="cls-7"
       x="-551.10065"
       y="6485.0615"
       width="6317.0898"
       height="60.650002"
       transform="rotate(-30)"
       id="rect35" />
    <rect
       class="cls-8"
       x="15.995819"
       y="6528.583"
       width="6317.0898"
       height="60.650002"
       transform="rotate(-30)"
       id="rect37" />
    <polygon
       class="cls-9"
       points="3852.94,4382.68 3929.49,4382.68 3967.76,4448.97 3929.49,4515.26 3852.94,4515.26 3814.67,4448.97 "
       id="polygon39"
       transform="translate(1647.533,498.16041)" />
    <polygon
       class="cls-10"
       points="3655.13,4410.48 3699.58,4410.48 3721.8,4448.97 3699.58,4487.47 3655.13,4487.47 3632.9,4448.97 "
       id="polygon41"
       transform="translate(1647.533,498.16041)" />
    <polygon
       class="cls-11"
       points="3932.5,1537.47 3998.55,1537.47 4031.57,1594.67 3998.55,1651.87 3932.5,1651.87 3899.47,1594.67 "
       id="polygon43"
       transform="translate(1647.533,498.16041)" />
    <polygon
       class="cls-12"
       points="2121.47,3425.41 2187.52,3425.41 2220.54,3482.61 2187.52,3539.81 2121.47,3539.81 2088.44,3482.61 "
       id="polygon45"
       transform="translate(1647.533,498.16041)" />
    <polygon
       class="cls-13"
       points="4906.33,1508.87 4955.87,1508.87 4980.64,1551.77 4955.87,1594.67 4906.33,1594.67 4881.56,1551.77 "
       id="polygon47"
       transform="translate(1647.533,498.16041)" />
    <polygon
       class="cls-14"
       points="4207.69,1530.32 4281.99,1530.32 4319.15,1594.67 4281.99,1659.02 4207.69,1659.02 4170.53,1594.67 "
       id="polygon49"
       transform="translate(1647.533,498.16041)" />
    <polygon
       class="cls-15"
       points="4519.62,3905.49 4569.16,3905.49 4593.93,3948.39 4569.16,3991.29 4519.62,3991.29 4494.85,3948.39 "
       id="polygon51"
       transform="translate(1647.533,498.16041)" />
    <rect
       class="cls-16"
       x="-67.761719"
       y="4294.8296"
       width="6317.0898"
       height="35.560001"
       transform="rotate(-30)"
       id="rect53" />
    <rect
       class="cls-4"
       x="-513.65143"
       y="5838.916"
       width="6556.1802"
       height="30.18"
       transform="rotate(-30)"
       id="rect55" />
    <path
       class="cls-17"
       d="m 3657.013,2992.5304 c 3.24,18 -5.56,27.58 -21.59,34.36 q -100.84,42.65 -201.12,86.61 c -135.61,59.76 -267.14,127.82 -398.39,196.49 -207.26,108.45 -405.79,231.83 -605.86,352.62 -170.11,102.7 -331.86,217.8 -495,330.89 -40.35,28 -81.2,55.24 -122.1,82.41 -38.82,25.78 -78.4,27.36 -117.88,1.37 -33.25,-21.9 -47,-55.53 -39.62,-94.79 7.71,-41 29.31,-74.51 60.21,-100.83 q 66.08,-56.25 135.69,-108.3 c 127.62,-95.39 264.23,-177 401.77,-256.89 139,-80.68 278.52,-160.4 419.48,-237.51 129.17,-70.64 260.24,-138.02 391.17,-205.48 111.88,-57.65 224.71,-113.45 337.19,-169.92 q 74.21,-37.24 148.81,-73.84 a 116.2,116.2 0 0 1 22.52,-7.92 c 16,-4.07 23.18,0.14 28.89,15.69 0.86,2.35 2,4.62 2.93,6.92 10.09,30.46 19.77,61.06 30.42,91.32 6.72,19.2 14.93,37.89 22.48,56.8 z"
       id="path57" />
    <path
       class="cls-17"
       d="m 3827.503,3446.1904 c -0.55,15.15 -11.53,21.33 -23.19,26.86 -41.68,19.79 -83.81,38.71 -125,59.47 -95.15,47.95 -189.26,98 -284.91,144.95 -126.91,62.26 -253.81,124.72 -382.65,182.88 -208,93.89 -419.57,179.64 -632.92,260.7 -116.89,44.4 -236,82.36 -357.8,111.41 -42.41,10.12 -84.25,7.07 -124.56,-10.33 -42.4199,-18.3 -69.5899,-67.18 -62.1699,-110.45 4.24,-24.69 21.54,-38 41.4599,-49 34.9,-19.27 73.32,-28.86 111.39,-38.95 176.27,-46.72 347.64,-107.78 516.83,-175.33 227.59,-90.87 450.61,-192.25 674.63,-291.42 129.38,-57.28 256.14,-119.63 383.52,-181.03 62,-29.85 124.24,-59.09 186.26,-88.85 7.85,-3.77 13.69,-2.15 19,3.9 2.46,2.8 4.65,5.84 7,8.77 1,3.61 1.66,7.32 2.95,10.8 q 24.98,67.84 50.16,135.62 z"
       id="path59" />
    <path
       class="cls-18"
       d="m 3651.013,2992.5304 c -7.55,-18.91 -15.76,-37.6 -22.51,-56.8 -10.65,-30.26 -20.33,-60.86 -30.42,-91.32 112.89,-45.29 225.87,-90.35 338.61,-136 42.16,-17.07 85.72,-18.06 130,-14.58 6.66,0.52 13.34,0.66 20,1 l 141.5,27.49 c 16.79,6 33.6,11.9 50.35,18 10.48,3.81 20.86,7.9 31.28,11.86 23.91,12 48,23.76 71.71,36.06 25.53,13.23 48.54,29.59 63.66,55 0.45,5.78 1.06,11.56 1.31,17.35 0.33,7.52 -0.43,15.18 0.7,22.57 3.4,22.35 20.42,35.5 42.89,32.9 a 81.47,81.47 0 0 0 24.15,-6.46 c 8,-3.68 14.7,-3.87 22.52,0.37 7.27,3.94 11.32,8.2 11.37,17.29 0.07,13.56 2.41,14.39 15.12,8.36 15.3,-7.26 36.53,3.85 39.83,20.85 2.74,14.13 2.74,14.13 15.55,8.56 17.72,-7.7 31,-0.73 33.6,18.78 1.36,10.3 4.94,13.8 14.29,8.52 12.58,-7.1 23,-1.25 31.91,6.39 3.68,3.14 4.75,10.06 5.73,15.48 2.18,12.1 2.46,12.52 13.07,7.55 18.27,-8.54 35.22,0.84 36.51,21.06 0.68,10.67 4.67,10.13 12.52,6.74 19.7,-8.51 34.12,0.34 35.42,21.9 0.53,8.77 3.64,12.41 11.26,7.35 15.32,-10.18 27.36,-1.65 38.54,6.8 4,3 5.4,10.69 6.27,16.49 1.4,9.41 4.64,14.46 14.34,8.85 13.74,-7.95 24.37,-0.79 35.76,5.87 21.59,12.63 21.75,12.34 10.05,34.28 -1,1.85 -2.38,3.6 -2.89,5.57 -6.89,26.57 -25.65,31.63 -50.63,32.43 -64.66,2.07 -129.09,2.4 -193.49,-4.88 -56.2,-6.36 -107,-27.84 -155.25,-55.51 -47.06,-27 -96.3,-45.16 -151.14,-45.62 -37.4,0.8 -74.81,1.69 -112.22,2.36 -15.82,0.28 -31.66,0.1 -47.49,0.13 -28.8,-1.11 -55.89,-9.62 -82.75,-19.14 -1.39,-1.45 -2.51,-3.46 -4.2,-4.26 -38,-18 -68.42,-45.8 -98,-74.81 -6.13,-6 -13.82,-10.41 -20.79,-15.55 -1.93,-2.61 -3.41,-5.78 -5.85,-7.76 -50.44,-40.89 -107.34,-57 -170.22,-37.77 -41.06,12.56 -80.52,30.4 -120.66,46 -17.17,6.58 -34.22,13.47 -51.31,20.25 z m 535.65,29.89 c 33.17,2 65.63,-27.15 66.24,-66.08 0.56,-36.34 -30.34,-67.36 -66.71,-67.47 -38.8,-0.11 -66.61,26.78 -66.72,64.52 -0.11,39.53 28.54,68.93 67.19,69.03 z"
       id="path61" />
    <path
       class="cls-19"
       d="m 4445.193,2843.2004 c -15.12,-25.38 -38.13,-41.74 -63.66,-55 -23.76,-12.3 -47.8,-24.06 -71.71,-36.06 4.65,-16.06 10.26,-31.91 13.73,-48.22 5.05,-23.67 -9,-45.75 -31.24,-51.47 -22.24,-5.72 -43.36,6.12 -51.38,29.13 -4.68,13.42 -8.52,27.13 -12.74,40.7 l -141.52,-27.46 c 17.26,-53.41 34.82,-106.72 51.66,-160.25 8.21,-26.07 25.82,-44.73 45.74,-61.76 79.21,-67.71 165.88,-123.63 261.47,-165.52 31.06,-13.61 64,-19.47 97,-25.44 8.62,-1.56 16.57,-6.89 24.83,-10.5 q 9.67,60.45 19.35,120.88 c 6.34,39.46 12.45,79 19.27,118.35 2.38,13.77 6.55,27.23 9.91,40.83 -8.56,4.23 -17,8.71 -25.72,12.6 -5.73,2.56 -11.87,4.17 -17.76,6.36 -27.9,10.4 -46.85,26.42 -55.92,58.07 -19.6,68.46 -44.12,135.51 -66.68,203.12 -1.33,3.95 -3.05,7.76 -4.63,11.64 z"
       id="path63" />
    <path
       class="cls-18"
       d="m 4615.893,2551.4104 c -3.36,-13.6 -7.53,-27.06 -9.91,-40.83 -6.82,-39.39 -12.93,-78.89 -19.27,-118.35 q -9.72,-60.44 -19.35,-120.88 c 22,0.34 44.25,-0.92 66.11,1.28 127.19,12.82 240.64,59.24 337.38,143.3 87,75.58 144.87,168.7 165.09,283.63 4.13,23.45 5.39,45.65 -9.37,66.1 -2.18,3 -3.39,6.73 -5.07,10.11 -15.93,32 -16.42,32.29 -47,11.7 -3.13,-2.11 -5.3,-7.21 -5.94,-11.23 -3.35,-21.1 -3.33,-21.48 -21.21,-11 -6.37,3.73 -11.12,2.92 -17.4,0.22 -9.88,-4.26 -14.91,-9.76 -14.65,-21.53 0.35,-15.79 -1.41,-16.32 -15.25,-8 -7.33,4.4 -13.26,8 -22.76,3 -9.5,-5 -13.61,-10.44 -13.27,-21.16 0.39,-12.45 -1.61,-13.62 -11.52,-6.56 -9.4,6.7 -17,6.62 -27.29,1.25 -9.51,-5 -8.46,-12.84 -9,-20.15 -0.78,-10.14 -4.57,-11.1 -12.62,-6.7 -7.51,4.1 -14.29,9 -24.33,3.52 -9.72,-5.36 -15.58,-10.48 -14.6,-22.67 0.89,-11 -1.09,-11.36 -11.59,-6.63 -6.43,2.9 -11.53,9.4 -20.63,5.17 -10.07,-4.67 -16,-10 -16,-22.29 0,-13.5 -2.36,-14.09 -13.59,-6.81 -17.26,11.19 -35.66,2.21 -38.1,-18.6 -1.41,-12.09 -1.62,-12.2 -12.78,-6.67 -21.65,10.74 -45.21,-4.38 -46.69,-29 a 76.52,76.52 0 0 0 -7,-27.75 c -12,-25 -37.36,-32.25 -61.33,-18.06 -7.49,4.37 -14.07,10.33 -21.06,15.59 z"
       id="path65" />
    <path
       class="cls-20"
       d="m 4204.773,3085.5304 c 15.83,0 31.67,0.15 47.49,-0.13 37.41,-0.67 74.82,-1.56 112.22,-2.36 q -24.57,66 -49.15,132 c -11.81,31.66 -33.32,52 -65.51,64.47 -129.74,50.4 -258.84,102.45 -388.2,153.84 -11.29,4.48 -22.74,8.57 -34.12,12.84 q -25.12,-67.8 -50.2,-135.62 c -1.29,-3.48 -2,-7.19 -2.95,-10.8 22.39,-9.42 44.56,-19.45 67.25,-28.11 23.23,-8.87 40.14,-24.39 50.5,-46.4 20.87,-44.34 41.79,-88.69 60.87,-133.81 16.64,-39.33 30.78,-79.72 46,-119.65 7,5.14 14.66,9.55 20.79,15.55 29.61,29 60.06,56.78 98,74.81 1.69,0.8 2.81,2.81 4.2,4.26 -11,36 -22.75,71.81 -32.73,108.1 a 65.54,65.54 0 0 0 -0.29,33 c 4.77,17.7 22.44,28.74 40.1,28.61 18.29,-0.14 34,-11.35 40.31,-30.44 9.15,-27.81 17.54,-55.89 25.92,-83.95 3.65,-11.99 6.4,-24.15 9.5,-36.21 z"
       id="path67" />
    <path
       class="cls-21"
       d="m 4186.663,3022.4204 c -38.65,-0.06 -67.3,-29.5 -67.19,-69 0.11,-37.74 27.92,-64.63 66.72,-64.52 36.37,0.11 67.27,31.13 66.71,67.47 -0.61,38.95 -33.07,68.07 -66.24,66.05 z m 43.84,-65.42 c 0.07,-27.47 -19.45,-48 -45.66,-48 a 45.26,45.26 0 0 0 -45.24,45.74 c 0,26.62 20.62,47.61 46.74,47.34 22.36,-0.19 47.1,-20.82 44.16,-45.08 z"
       id="path69" />
    <path
       class="cls-22"
       d="m 4230.503,2957.0004 c 2.94,24.26 -21.8,44.89 -44.16,45.13 -26.12,0.27 -46.69,-20.72 -46.74,-47.34 a 45.26,45.26 0 0 1 45.24,-45.74 c 26.21,-0.02 45.73,20.48 45.66,47.95 z"
       id="path71" />
    <path
       class="cls-23"
       d="m 4354.713,4733.5304 c 2.35,15.25 1.26,18.33 -13,25.08 -39.45,18.63 -79,37.11 -118.73,55.11 -78.32,35.46 -155,74.16 -230.38,115.46 -77.45,42.45 -154.9,84.94 -231.56,128.81 -46.21,26.45 -91.16,55.15 -136.22,83.56 -99.73,62.86 -199.58,125.55 -298.56,189.59 -47.88,31 -94.28,64.3 -140.67,97.51 -81.07,58 -161.56,116.84 -242.4,175.18 -18.39,13.28 -37.1,26.13 -55.88,38.86 -20.9,14.17 -43.76,20.29 -68.57,13.12 -43.67,-12.62 -65.38,-45.35 -56.18,-90.06 5.51,-26.77 19.15,-49.45 38.05,-68.5 a 738.26,738.26 0 0 1 57,-52.12 c 71.44,-58.28 146.18,-112.06 223.45,-162.42 100.79,-65.7 203,-129.17 305.9,-191.4 128.86,-77.91 260.59,-150.81 392.46,-223.42 65.33,-36 130.54,-72.17 196.14,-107.65 66.2,-35.8 132.81,-70.83 199.23,-106.23 26.39,-14.06 52.62,-28.42 79.16,-42.17 9.42,-4.88 19.46,-8.63 29.42,-12.38 11.9,-4.5 21.56,-1.84 25.41,12.35 0.43,1.59 1.59,3 2.41,4.44 2,6.16 3.74,12.4 6,18.45 q 18.68,49.46 37.52,98.83 z"
       id="path73" />
    <path
       class="cls-23"
       d="m 4503.273,5090.0004 c -0.17,8.44 -4.38,14 -11.79,17.84 -16.49,8.49 -32.62,17.73 -49.3,25.83 -91.56,44.44 -180.7,93.38 -269.54,143 -60,33.5 -121,65.17 -182.35,96.18 -61.63,31.16 -123.69,61.56 -186.45,90.36 -98.68,45.27 -197.91,89.33 -297.28,133.07 -58.8,25.88 -117.89,51.19 -177.6,74.89 q -121.19,48.15 -246.56,84.63 c -25.53,7.49 -51.49,12.77 -78.29,9.42 -24.12,-3 -47.87,-8 -65.94,-25.92 -19.5,-19.3 -29.92,-42.53 -26.09,-70.67 1.6,-11.8 7.57,-21.19 16.69,-28.72 13.69,-11.31 29.33,-19.27 45.9,-25.14 21.68,-7.69 43.59,-14.79 65.57,-21.59 55.14,-17 110.18,-34.35 164.39,-54.21 80.33,-29.45 159.68,-61.36 238.42,-94.84 97.73,-41.55 194.12,-86.06 290.15,-131.33 83,-39.12 165.7,-78.83 248.48,-118.39 49,-23.41 98.06,-46.65 146.75,-70.68 31.1,-15.36 61.41,-32.33 92.35,-48 47.18,-24 94.67,-47.32 141.89,-71.21 q 35,-17.68 69.38,-36.38 c 14.34,-7.73 16.7,-7.51 25.91,5.79 q 17.54,44.19 35,88.39 c 3.64,9.12 6.89,18.43 10.31,27.68 z"
       id="path75" />
    <path
       class="cls-24"
       d="m 4354.713,4733.5304 q -18.77,-49.41 -37.49,-98.83 c -2.27,-6.05 -4,-12.29 -6,-18.45 45.75,-20.43 91.33,-41.26 137.3,-61.19 43.77,-19 88.16,-36.53 131.87,-55.65 24.47,-10.71 50,-14.53 76.17,-15.4 14.7,-0.49 29.47,0.91 44.21,1.46 7.11,0.85 14.24,1.6 21.35,2.55 17.9,2.4 35.82,4.69 53.68,7.42 13.14,2 26.18,4.65 39.26,7 0.5,0.46 0.92,1.14 1.5,1.34 20.18,6.86 40.36,13.73 60.59,20.43 1.33,0.44 3.09,-0.43 4.65,-0.69 1.2,1.15 2.21,2.72 3.63,3.37 15.81,7.24 31.91,13.88 47.47,21.61 17.41,8.64 34.85,17.5 48,32.54 3.58,4.09 7.13,8.2 10.69,12.3 0.28,4.75 0.46,9.5 0.85,14.24 0.6,7.49 0.36,15.23 2.22,22.41 3.49,13.48 14.31,21.77 28.26,20.8 9,-0.63 18,-3.71 26.73,-6.59 7.17,-2.37 18.9,-0.65 23.38,5 1.14,1.44 1.3,3.76 1.63,5.71 0.46,2.71 0.48,5.48 1,8.17 0.84,4.43 3.81,6.24 7.34,3.4 10,-8 18.84,-4.05 28.31,1.07 4.74,2.57 7.39,5.59 8.24,10.78 0.63,3.92 1.91,7.74 3.07,12.23 3.89,-1.63 7,-2.41 9.44,-4.06 7.32,-4.87 13.81,-3.4 20.8,1 3.92,2.49 5.94,5.22 6.44,9.7 0.44,4 1.49,7.94 2.49,13 5.23,-1.78 9.39,-3.18 13.52,-4.61 11,-3.85 24.17,3.63 26.22,15 2.27,12.52 2.36,12.69 14.09,6.74 4.37,-2.22 8.2,-3 12.48,-0.11 a 40.85,40.85 0 0 0 7.29,3.83 c 4.35,1.76 6.45,4.74 6.33,9.48 a 60,60 0 0 0 0.61,7.18 c 0.4,3.89 2.16,5.68 6.16,3.89 2.51,-1.13 5.11,-2.09 7.5,-3.43 4.28,-2.41 8,-1.93 12.57,0.09 8.28,3.69 13.17,8.42 12.68,18.44 -0.4,8.41 1.46,9.57 9,5.46 9.62,-5.27 17.59,-4.28 26.64,1.43 5.46,3.44 8.69,6.81 9.5,13.29 1.88,15.23 3.09,12.75 14.42,8.4 6.9,-2.65 12.73,-3.06 19.29,1.17 7.43,4.79 15.59,8.45 24,12.92 -7.1,14.47 -14,28.23 -20.59,42.12 -1.86,3.89 -5,4.15 -8.51,4.44 -20.2,1.7 -40.37,4 -60.61,5 -38.46,1.84 -76.95,2.08 -115.39,-1.12 a 267.38,267.38 0 0 1 -84.69,-20.87 q -29.29,-12.7 -57.86,-27.06 c -24.83,-12.51 -50.59,-21.35 -78.46,-23.5 -3.07,-0.24 -6.1,-0.92 -9.15,-1.4 a 21.46,21.46 0 0 0 -18.64,-0.06 l -0.27,0.13 a 604.12,604.12 0 0 0 -73.49,4 c -17.9,2.06 -36.09,1.68 -54.15,2.38 h 0.06 l -9.4,-1.9 c -5.37,-0.35 -10.9,0 -16.07,-1.18 -14.14,-3.28 -28.12,-7.21 -42.17,-10.88 -3.13,-2 -6.09,-4.38 -9.43,-6 -18.71,-8.91 -35.31,-20.84 -50.78,-34.55 -13.8,-12.24 -27.88,-24.15 -41.84,-36.21 -6,-4 -11.87,-8.14 -18,-11.92 -37.78,-23.37 -78.1,-28.7 -120.61,-16.12 a 309.65,309.65 0 0 0 -34.77,12.73 c -34.96,15.18 -69.72,30.74 -104.56,46.13 z m 482.72,-43.21 c 2.71,-30.74 -26.73,-54.29 -52.57,-53.83 -32.95,0.59 -54.29,23.89 -53.85,54.13 0.46,31.64 22,51.66 54.1,53.07 27.58,1.22 56.11,-28.25 52.32,-53.37 z"
       id="path77" />
    <path
       class="cls-25"
       d="m 4991.583,4593.3204 c -3.56,-4.1 -7.11,-8.21 -10.69,-12.3 -13.15,-15 -30.59,-23.9 -48,-32.54 -15.56,-7.73 -31.66,-14.37 -47.47,-21.61 -1.42,-0.65 -2.43,-2.22 -3.63,-3.37 0.83,-3.31 1.6,-6.64 2.5,-9.94 2.45,-8.91 5.4,-17.72 7.32,-26.74 4.06,-19.1 -7.68,-36.82 -26.65,-41 -16.77,-3.72 -33.8,6 -39.7,23.25 -3.77,11 -6.83,22.24 -10.21,33.37 -13.08,-2.35 -26.12,-5 -39.26,-7 -17.86,-2.73 -35.78,-5 -53.68,-7.42 -7.11,-0.95 -14.24,-1.7 -21.35,-2.55 12.6,-41.36 25.48,-82.64 37.68,-124.11 6.87,-23.36 21.1,-41 39,-56.84 47.21,-41.86 97.93,-78.79 152.94,-109.65 32.34,-18.15 65,-35.89 101.73,-44 9.71,-2.14 19.49,-4 29.29,-5.78 6.9,-1.23 13.22,-3.52 18.56,-8.19 0.85,1 2.25,1.93 2.47,3.07 2.3,12.07 4.4,24.17 6.58,36.25 q 7.9,43.8 15.84,87.6 c 3,16.44 6,32.89 9,49.33 2.82,15.07 5.76,30.13 8.64,45.19 -6.65,3.39 -13.28,6.82 -20,10.17 q -19.69,9.89 -39.43,19.69 c -6.7,3.33 -9.54,9.24 -11.64,16.05 q -16.07,52 -32.52,104 c -8.94,28.39 -18.13,56.72 -27.32,85.07 z"
       id="path79" />
    <path
       class="cls-24"
       d="m 5122.503,4358.3204 c -2.88,-15.06 -5.82,-30.12 -8.64,-45.19 -3.07,-16.44 -6,-32.89 -9,-49.33 q -8,-43.8 -15.84,-87.6 c -2.18,-12.08 -4.28,-24.18 -6.58,-36.25 -0.22,-1.14 -1.62,-2 -2.47,-3.07 3.69,-4.48 8.91,-2.9 13.46,-3 a 489.42,489.42 0 0 1 158.43,22.93 c 71.61,22.86 135,59.6 188.15,113.05 53.4,53.71 89.76,116.88 103.91,191.95 0.25,1.35 0.62,2.68 0.84,4 4,25 4,25 -6.9,48.21 -4.25,9 -8.74,17.9 -12.94,26.93 -1.81,3.89 -3.9,4.95 -8,2.81 -6.37,-3.36 -12.95,-6.37 -19.59,-9.18 -4.35,-1.85 -6.23,-4.7 -6.45,-9.43 -0.24,-5.08 -1.3,-10.11 -2.22,-16.75 -5.59,3.05 -10.5,5.23 -14.84,8.24 -4.5,3.13 -8.58,3.74 -13.26,0.73 a 34.65,34.65 0 0 0 -6.51,-3.08 c -4,-1.53 -5.51,-4.17 -5.86,-8.57 -1.41,-17.89 -1.95,-18.41 -16.42,-8.65 -7.78,5.24 -12.66,0 -18.84,-2 -6.18,-2 -6,-6.44 -6.19,-11.41 -0.14,-3.61 -1.22,-7.19 -1.89,-10.78 l -10.77,4.77 c -3,1.35 -6.48,4.33 -9.07,3.72 a 45.09,45.09 0 0 1 -14.73,-7 c -1.7,-1.16 -2,-4.94 -2.2,-7.58 -1.23,-14.88 -2.56,-14.52 -15.12,-7.56 -2.86,1.58 -6.68,3.59 -9.36,2.85 a 50.57,50.57 0 0 1 -15.64,-7.56 c -1.74,-1.25 -1.56,-5.6 -1.72,-8.57 -0.7,-13.24 -1.2,-14.08 -12.32,-6.51 -8.8,6 -15.55,2.57 -22.53,-1.67 -2.11,-1.27 -3.2,-4.92 -3.86,-7.7 -1.1,-4.59 -1.47,-9.36 -2.41,-15.86 -5.2,3.22 -9.38,5.32 -13,8.17 -4,3.18 -7.73,4.08 -12.07,1.06 a 5.87,5.87 0 0 0 -1.82,-0.95 c -9,-2.4 -13.91,-7.84 -13.63,-17.55 0.07,-2.26 -1,-4.55 -1.79,-8.1 -4.53,2.32 -8.6,4 -12.22,6.35 -4.58,3 -8.84,3.17 -13.38,0.22 a 16,16 0 0 0 -3.68,-1.83 c -12.21,-4.05 -19.29,-11.41 -17.25,-25.31 0.38,-2.57 -0.68,-5.42 -1.38,-8.07 -8.14,-30.86 -37.19,-39.67 -61.32,-18.69 -3.55,3.12 -7.38,5.91 -11.08,8.81 z"
       id="path81" />
    <path
       class="cls-26"
       d="m 4802.263,4793.4104 c 18.06,-0.7 36.25,-0.32 54.15,-2.38 a 604.12,604.12 0 0 1 73.49,-4 c -10.26,29.87 -20.28,59.83 -30.93,89.56 -3.93,10.95 -9.44,21.34 -14.08,32.05 -6.32,14.58 -16.94,24.52 -31.42,31 -22.55,10.13 -44.58,21.47 -67.33,31.12 -88.19,37.42 -176.59,74.36 -264.9,111.49 -6,2.53 -12,5.16 -18,7.74 -3.42,-9.25 -6.67,-18.56 -10.28,-27.72 q -17.4,-44.24 -35,-88.39 c 21.64,-9.57 43.59,-18.49 64.78,-29 13.15,-6.5 22.09,-18 28.92,-31.16 25.25,-48.47 44.71,-99.35 62.92,-150.76 5.83,-16.48 11.79,-32.91 17.33,-49.49 1.1,-3.3 0.53,-7.16 0.73,-10.76 14,12.06 28,24 41.83,36.21 15.47,13.71 32.07,25.64 50.78,34.55 3.34,1.59 6.3,4 9.43,6 -1.34,5 -2.62,9.94 -4,14.88 -7.32,25.4 -15,50.69 -21.89,76.21 -5.51,20.55 6.81,39.52 27.14,43.29 17.5,3.24 33.71,-7 39.35,-25.46 5.23,-17.06 10,-34.25 14.93,-51.42 4.08,-14.47 8.02,-29.03 12.05,-43.56 z"
       id="path83" />
    <path
       class="cls-26"
       d="m 4930.173,4786.9004 a 21.46,21.46 0 0 1 18.64,0.06 z"
       id="path85" />
    <path
       class="cls-27"
       d="m 4837.433,4690.3204 c 3.79,25.1 -24.74,54.57 -52.32,53.37 -32.1,-1.41 -53.64,-21.43 -54.1,-53.07 -0.44,-30.24 20.9,-53.54 53.85,-54.13 25.84,-0.44 55.28,23.11 52.57,53.83 z m -53.75,-37.27 c -20.39,-0.41 -37.15,16.65 -36.56,36.63 0.63,21.38 15.77,36.91 36.49,37.28 a 36.58,36.58 0 0 0 37.36,-37 c -0.37,-21.25 -16,-36.95 -37.29,-36.89 z"
       id="path87" />
    <path
       class="cls-26"
       d="m 4802.323,4793.4604 -9.4,-1.9 z"
       id="path89" />
    <path
       class="cls-28"
       d="m 4783.683,4653.0704 c 21.29,-0.06 36.92,15.64 37.29,36.88 a 36.58,36.58 0 0 1 -37.36,37 c -20.72,-0.37 -35.86,-15.9 -36.49,-37.28 -0.59,-19.95 16.17,-37.01 36.56,-36.6 z"
       id="path91" />
    <path
       class="cls-29"
       d="m 5144.983,3514.2404 c 0.28,26 -0.83,28.77 -25.71,38.3 q -70.7,27.09 -142,52.68 c -108.23,38.71 -215.34,80.22 -321,125.4 q -232.85,99.52 -461.22,208.9 c -67.19,32.18 -132.86,67.59 -199.06,101.83 -82.87,42.87 -165.92,85.38 -248.26,129.24 -102.72,54.73 -206.07,108.43 -306.81,166.6 q -218.05,125.93 -431.57,259.62 c -60.33,37.75 -122,73.34 -183.39,109.45 -21.36,12.58 -44.38,21.19 -69.79,20 -41,-1.89 -74.42,-19.51 -98.71,-52.06 -20.32,-27.23 -22.18,-58.74 -14.13,-91 7.11,-28.52 21,-53.63 39.56,-76.2 23.76,-28.82 52.57,-52.1 82.44,-74.13 67.05,-49.46 138,-93.08 208.36,-137.47 82.25,-51.87 168.12,-97.43 253.7,-143.37 88.54,-47.53 178.08,-93.21 267.28,-139.5 152.41,-79.09 307,-153.84 462.69,-226.14 q 225.69,-104.8 453,-206.13 c 102.21,-45.83 205.36,-89.56 308,-134.44 77.54,-33.91 154.8,-68.45 232.46,-102.08 30,-13 60.62,-24.31 91.08,-36.1 a 82.38,82.38 0 0 1 18.18,-4.42 c 15.14,-2.11 23.48,3.49 28.25,18.09 1.33,4.09 3,8.08 4.48,12.11 0.72,4.24 1.06,8.6 2.22,12.72 q 22.6,79.64 45.49,159.18 c 0.9,3.13 2.95,6 4.46,8.92 z"
       id="path93" />
    <path
       class="cls-29"
       d="m 5325.653,4069.1304 c -1.79,13.72 -9.46,22.32 -22.24,27.5 -41,16.6 -81.7,33.77 -122.65,50.42 -116.69,47.43 -232.42,97 -346.24,151 -79.06,37.51 -159.32,72.3 -240.47,105 -92.25,37.21 -184,75.72 -277,111 q -173.86,66 -349.46,127.48 c -152,52.94 -304.72,104 -457.46,154.78 -85.32,28.38 -172.63,50 -259.93,71.37 q -71.43,17.64 -143.26,33.31 c -26.77,5.82 -53.92,10.06 -81.52,9.65 -34.69,-0.52 -67.92,-8 -98.94,-23.24 -48.62,-23.91 -70.42,-65.35 -71.39,-117.9 -0.5,-27.13 11.86,-48.74 35.57,-63.79 29.32,-18.61 61.66,-29.15 94.92,-37.06 58.45,-13.89 117.15,-26.76 175.71,-40.19 146.75,-33.66 290.88,-76.66 433.86,-123.44 97.27,-31.82 194.11,-65 290.71,-98.82 64.42,-22.53 128,-47.36 192.1,-70.85 152.52,-55.93 304.13,-114.26 455.46,-173.34 73.87,-28.84 148.22,-56.46 221.88,-85.82 50.89,-20.27 100.81,-43 151.46,-63.87 65.77,-27.14 131.92,-53.33 197.72,-80.39 44.45,-18.27 88.64,-37.16 132.78,-56.16 15.89,-6.83 21.43,-5.68 31,9.13 1,1.61 2,3.3 3,5 1,4.19 1.9,8.44 3.16,12.56 q 25.55,83.33 51.23,166.67 z"
       id="path95" />
    <path
       class="cls-30"
       d="m 5144.983,3514.2404 c -1.51,-3 -3.56,-5.79 -4.46,-8.93 q -22.9,-79.54 -45.49,-159.18 c -1.16,-4.12 -1.5,-8.48 -2.22,-12.72 76.14,-29.21 153,-56.45 230.72,-81.18 70.85,-22.53 141.37,-46.09 212.13,-68.91 a 133.32,133.32 0 0 1 26.64,-5.45 c 43.23,-4.64 86.28,-3.7 128.95,5.47 a 26.91,26.91 0 0 0 4.32,0.19 c 8.85,2.05 17.61,4.64 26.56,6.08 38.33,6.18 75.86,15.57 113.11,26.37 10,2.91 20.56,4 30.86,5.85 2.59,1.89 4.92,4.63 7.81,5.54 26.24,8.18 50.76,20.32 75.46,32.07 4.27,2 8.83,3.44 13.26,5.14 1.83,1.48 3.49,3.27 5.52,4.4 25.95,14.53 52,28.86 77.93,43.46 27.08,15.26 50.89,34.22 67.8,60.88 1.75,2.77 4.58,4.85 6.91,7.24 -0.24,8.11 -0.63,16.2 -0.67,24.31 -0.06,10 -1.22,20.32 0.52,30.07 5.33,29.88 28.75,38.73 50.3,36.9 10.86,-0.92 21.81,-3.95 32.07,-7.75 7.66,-2.84 13.83,-2.5 20.32,1.77 a 90.39,90.39 0 0 0 8.7,5.11 c 4.83,2.47 6.67,6.16 6.68,11.64 0,7 -1.34,14.4 4,22 5.16,-1.88 10.79,-3.16 15.64,-5.86 8.28,-4.59 15.5,-3.64 22.62,2 a 19,19 0 0 0 4.87,3.07 c 12.64,5 19.07,13.85 18.08,27.69 a 15,15 0 0 0 0.56,4.29 c 1.41,6.19 3.07,7.35 9,5.52 a 122.43,122.43 0 0 0 16.22,-6 c 5,-2.38 9.13,-1.74 13.41,1.41 a 62.49,62.49 0 0 0 9.79,6.1 c 6.07,2.9 7.54,7.85 8.07,14.05 1.79,21.2 2.16,21.85 21.7,15.51 10.17,-3.3 17.2,0.43 25.46,4.92 10,5.44 14.18,12.47 14.08,24 -0.15,16.4 1.11,17.13 16.33,9.88 9.81,-4.68 18,-4.91 26.24,2.37 a 44.61,44.61 0 0 0 8.51,5.4 c 4.77,2.57 6.63,6.34 6.48,11.76 -0.19,6.65 0.31,13.31 0.58,21.76 8.27,-2.6 15.25,-4.11 21.61,-7 6.1,-2.74 11.07,-2.08 16.09,1.76 0.76,0.59 1.63,1 2.43,1.56 17.93,11.92 14.9,6.66 15.2,27.11 0.06,4.15 0.75,8.28 1.27,13.56 4.95,-1.15 8.57,-1.85 12.09,-2.86 4.62,-1.32 9.15,-2.94 13.75,-4.34 13.61,-4.14 20.29,8.53 30.49,12.67 6.18,2.5 7.71,7.67 8,13.94 0.31,7.06 1.56,14.09 2.6,22.84 9.16,-2.19 17,-3.66 24.65,-6 6.47,-2 11.78,-1.56 17.6,2.43 12.64,8.66 25.81,16.56 39.56,25.28 -1.85,3.6 -3.15,6.52 -4.78,9.26 -9.35,15.7 -19.21,31.12 -28,47.13 -4.24,7.73 -9.33,10.83 -18.14,10.68 -44.73,-0.75 -89.52,0.28 -134.18,-1.78 a 1058,1058 0 0 1 -136.15,-14.74 c -54.71,-9.71 -104.88,-31.13 -152.61,-58.87 q -34.29,-19.93 -68.41,-40.2 c -40.63,-24 -85.25,-34.51 -131.61,-39.16 -2.82,-0.28 -5.72,0.25 -8.59,0.4 -3.13,-0.87 -6.25,-2.48 -9.38,-2.51 -61,-0.4 -122,1 -183,-3 -3.56,-1.06 -7.05,-2.48 -10.67,-3.12 -30.48,-5.38 -60.1,-13.39 -87.65,-27.93 -6.21,-3.59 -12.48,-7.09 -18.64,-10.78 -27.7,-16.59 -51.7,-37.83 -74.37,-60.55 -17.23,-17.28 -33.67,-35.35 -50.47,-53.07 -16.12,-14.47 -33.11,-27.69 -52,-38.54 -52.38,-30.11 -108.07,-35.89 -165.67,-20.76 -33.35,8.76 -65.89,20.68 -98.66,31.6 -36.01,12.02 -71.83,24.49 -107.73,36.75 z m 572.3,-13.62 c -3.75,46.32 38.23,82.08 77.8,82.43 48.28,0.44 83,-36.71 83.3,-81.07 0.31,-42.57 -34.47,-80.09 -82.65,-80.88 -41.83,-0.69 -78.41,36.77 -78.45,79.52 z"
       id="path97" />
    <path
       class="cls-31"
       d="m 5866.103,3221.8304 c -10.3,-1.9 -20.85,-2.94 -30.86,-5.85 -37.25,-10.8 -74.78,-20.19 -113.11,-26.37 -9,-1.44 -17.71,-4 -26.56,-6.08 23.54,-59.88 47.4,-119.64 70.52,-179.68 12.46,-32.36 32.25,-58.57 60.26,-79 49,-35.63 97.76,-71.5 151,-100.68 58.95,-32.33 118.84,-62.73 182.27,-85.66 a 393.46,393.46 0 0 1 100.88,-22.43 c 9.08,-0.77 18.32,-1.24 27.12,-3.35 7.28,-1.74 14,-5.69 21,-8.66 1.06,1.54 2.89,3 3.07,4.64 1.34,12.35 2.37,24.74 3.47,37.12 1.19,13.34 2.2,26.69 3.58,40 1.53,14.71 3.47,29.39 5.06,44.1 1.33,12.35 2.3,24.75 3.64,37.11 1.55,14.23 3.59,28.41 4.94,42.66 1.4,14.76 2,29.59 3.36,44.36 2.78,30 5.84,59.91 8.78,89.87 -11.15,4.25 -22.08,9.23 -33.5,12.58 a 329.87,329.87 0 0 0 -54.68,21.91 c -11.43,5.73 -18.56,14.08 -23.12,26 -11.7,30.48 -24.11,60.7 -36.37,91 q -36.24,89.48 -72.65,178.87 a 62.56,62.56 0 0 1 -3.39,6.29 c -2.33,-2.39 -5.16,-4.47 -6.91,-7.24 -16.91,-26.66 -40.72,-45.62 -67.8,-60.88 -25.91,-14.6 -52,-28.93 -77.93,-43.46 -2,-1.13 -3.69,-2.92 -5.52,-4.4 5.53,-14.82 11.17,-29.61 16.54,-44.48 2.11,-5.85 4.32,-11.79 5.31,-17.89 3.27,-20.13 -3,-37.24 -19,-49.8 -16,-12.56 -33.86,-14.93 -52.81,-6.74 -15.09,6.52 -24.13,18.43 -29.89,33.31 q -8.32,21.41 -16.7,42.83 z"
       id="path99" />
    <path
       class="cls-32"
       d="m 6344.503,3043.9904 c -2.94,-30 -6,-59.9 -8.78,-89.87 -1.37,-14.77 -2,-29.6 -3.36,-44.36 -1.35,-14.25 -3.39,-28.43 -4.94,-42.66 -1.34,-12.36 -2.31,-24.76 -3.64,-37.11 -1.59,-14.71 -3.53,-29.39 -5.06,-44.1 -1.38,-13.32 -2.39,-26.67 -3.58,-40 -1.1,-12.38 -2.13,-24.77 -3.47,-37.12 -0.18,-1.64 -2,-3.1 -3.07,-4.64 3.3,-5.53 8.58,-3.16 13.07,-3 57.51,2 113.79,11.76 169,27.73 99.74,28.87 190,75.83 269.1,143.38 90.6,77.41 156.8,171.35 191.13,286.4 a 477.13,477.13 0 0 1 20,126.45 c 0.12,5.11 -0.08,11 -2.44,15.27 -12.53,22.72 -25.78,45.06 -38.85,67.49 -0.94,1.62 -2.39,2.94 -4.67,5.68 -13.24,-7.55 -26.66,-14.78 -39.53,-22.9 -2.49,-1.56 -3.61,-6.5 -3.95,-10 -0.82,-8.42 -0.8,-16.92 -1.17,-26.71 -10.82,2 -18.54,6.88 -26.33,11.13 -5.24,2.86 -9.74,3.52 -14.59,-0.11 a 4.85,4.85 0 0 0 -1.22,-0.78 c -14.69,-5 -20.25,-14.6 -18.66,-30.53 1.57,-15.7 -0.59,-16.41 -14.43,-9.7 -3.46,1.67 -7.08,3.17 -10.22,5.34 -6.37,4.37 -11.73,3.15 -18.56,-0.09 -12.67,-6 -20.21,-13.59 -16.64,-28.68 0.83,-3.51 -0.22,-7.47 -0.41,-11.5 -7,-1.36 -11.89,2.33 -16.27,5.54 -9.31,6.82 -17.42,6.88 -27.14,0.11 -11.48,-8 -12,-7.26 -12.89,-21 -0.32,-4.79 -0.69,-9.58 -1.19,-14.36 -0.09,-0.79 -1,-1.49 -2.45,-3.57 -7,2.84 -14.57,5.56 -21.8,8.93 -5.77,2.7 -10.92,2.87 -16,-1.16 a 37.07,37.07 0 0 0 -3.75,-2.13 c -18.38,-11.28 -15.8,-5.3 -15.19,-26.28 a 71,71 0 0 0 -0.15,-8.63 c -0.12,-1.33 -1,-2.59 -2.07,-5.26 -7.11,3 -14.23,5.64 -20.93,9.08 -6.17,3.18 -11.65,3.77 -17.41,-0.7 a 47.53,47.53 0 0 0 -8.73,-5 c -4.91,-2.35 -6.81,-6 -6.85,-11.45 -0.05,-8 -0.9,-16 -1.57,-26.58 -8.92,4.65 -15.78,7.68 -22,11.66 -5.63,3.57 -10.59,4 -15.88,-0.09 a 9.6,9.6 0 0 0 -2.51,-1.42 c -14.21,-5.21 -21.93,-14.46 -19.34,-30.4 0.3,-1.81 -0.34,-3.82 -0.76,-5.68 -0.19,-0.87 -0.88,-1.62 -1.81,-3.22 -7.29,-1.3 -13.28,3.53 -19.45,6.49 -6.17,2.96 -11.55,3.43 -17.45,-0.56 -5.57,-3.76 -11.53,-7 -17.4,-10.25 -10.38,-5.82 -14.88,-14.12 -13,-26.3 2,-13.14 -0.66,-25.89 -6,-38 -12.25,-27.58 -38.82,-39 -66.77,-27.82 -8.32,3.32 -15.58,9.29 -23.32,14.07 -5,2.91 -9.82,5.95 -14.65,8.97 z"
       id="path101" />
    <path
       class="cls-31"
       d="m 5569.003,3505.2204 c 16.8,17.72 33.24,35.79 50.47,53.07 22.67,22.72 46.67,44 74.37,60.55 6.16,3.69 12.43,7.19 18.64,10.78 q -25.53,66.64 -51,133.32 a 60.94,60.94 0 0 0 -2.52,9.75 52,52 0 0 0 30.37,57.8 c 22.49,9.51 49.07,2 62.8,-18.1 a 81.72,81.72 0 0 0 8.35,-16.7 q 19.43,-50.48 38.4,-101.11 c 4.22,-11.21 8,-22.6 12,-33.91 60.95,4.07 122,2.63 183,3 3.13,0 6.25,1.64 9.38,2.51 -21.38,53.53 -42.77,107.06 -70.29,157.85 -3.66,6.76 -7.87,13.22 -11.54,20 -10.82,19.88 -26.86,33.24 -48.23,40.91 -40.68,14.6 -80.83,30.74 -121.76,44.55 -106.92,36.1 -214.11,71.41 -321.28,106.75 -34.66,11.43 -69.61,22 -104.42,32.89 q -25.65,-83.36 -51.27,-166.72 c -1.26,-4.12 -2.11,-8.37 -3.16,-12.56 33,-11.64 66.38,-22.48 99,-35.2 22.11,-8.63 37.45,-25.86 50,-45.87 35.12,-55.82 64.7,-114.54 92.21,-174.34 18.06,-39.26 35.5,-78.8 53.12,-118.27 1.49,-3.47 2.24,-7.29 3.36,-10.95 z"
       id="path103" />
    <path
       class="cls-33"
       d="m 5717.283,3500.6204 c 0,-42.75 36.62,-80.21 78.45,-79.52 48.18,0.79 83,38.31 82.65,80.88 -0.32,44.36 -35,81.51 -83.3,81.07 -39.57,-0.35 -81.55,-36.11 -77.8,-82.43 z m 77.14,56.48 c 35.61,2.87 57.8,-28.9 58.29,-53.22 0.63,-31 -24.21,-55.78 -54.69,-57.4 -28.85,-1.54 -56.92,24.18 -57.47,54.55 -0.53,28.97 25.41,58.29 53.87,56.07 z"
       id="path105" />
    <path
       class="cls-34"
       d="m 5794.423,3557.1004 c -28.46,2.23 -54.4,-27.1 -53.87,-56.07 0.55,-30.37 28.62,-56.09 57.47,-54.55 30.48,1.62 55.32,26.44 54.69,57.4 -0.49,24.32 -22.68,56.09 -58.29,53.22 z"
       id="path107" />
    <polygon
       class="cls-9"
       points="3856.19,2224.76 3932.73,2224.76 3971,2291.05 3932.73,2357.34 3856.19,2357.34 3817.91,2291.05 "
       id="polygon109"
       transform="translate(1647.533,498.16041)" />
    <polygon
       class="cls-15"
       points="2813.45,2719.02 2862.99,2719.02 2887.75,2761.92 2862.99,2804.82 2813.45,2804.82 2788.68,2761.92 "
       id="polygon111"
       transform="translate(1647.533,498.16041)" />
    <polygon
       class="cls-35"
       points="2035,1749.48 2111.54,1749.48 2149.81,1815.77 2111.54,1882.05 2035,1882.05 1996.73,1815.77 "
       id="polygon113"
       transform="translate(1647.533,498.16041)" />
    <g
       class="cls-36"
       id="g119"
       transform="translate(1647.533,498.16041)">
      <ellipse
         class="cls-37"
         cx="1655.96"
         cy="2027.24"
         rx="25.629999"
         ry="167.08"
         transform="rotate(-60,2947.3892,810.73212)"
         id="ellipse115" />
      <path
         class="cls-37"
         d="m 1800.66,2110.78 -50,86.61 c -7.08,12.25 -77.6,-15.21 -157.51,-61.35 -79.91,-46.14 -139,-93.48 -131.89,-105.74 l 50,-86.6 c -7.08,12.26 52,59.6 131.89,105.74 79.89,46.14 150.43,73.56 157.51,61.34 z"
         transform="translate(1699.24,510.16)"
         id="path117" />
    </g>
    <g
       class="cls-36"
       id="g125"
       transform="translate(1647.533,498.16041)">
      <path
         class="cls-38"
         d="m 1713,1927.56 c 79.92,46.15 139,93.49 131.9,105.74 -7.1,12.25 -77.6,-15.21 -157.52,-61.36 -79.92,-46.15 -139,-93.47 -131.89,-105.73 7.11,-12.26 77.57,15.21 157.51,61.35 z"
         transform="translate(1699.24,510.16)"
         id="path121" />
      <path
         class="cls-38"
         d="m 1844.87,2033.3 -50,86.6 c -7.08,12.26 -77.6,-15.21 -157.52,-61.35 -79.92,-46.14 -139,-93.48 -131.89,-105.74 l 50,-86.6 c -7.07,12.26 52,59.6 131.89,105.73 79.89,46.13 150.44,73.62 157.52,61.36 z"
         transform="translate(1699.24,510.16)"
         id="path123" />
    </g>
    <g
       class="cls-36"
       id="g131"
       transform="translate(1647.533,498.16041)">
      <path
         class="cls-37"
         d="m 1723.92,1908 c 79.92,46.14 139,93.48 131.89,105.74 -7.11,12.26 -77.59,-15.22 -157.51,-61.36 -79.92,-46.14 -139,-93.47 -131.89,-105.73 7.11,-12.26 77.59,15.18 157.51,61.35 z"
         transform="translate(1699.24,510.16)"
         id="path127" />
      <path
         class="cls-37"
         d="m 1855.81,2013.71 -50,86.6 c -7.07,12.25 -77.59,-15.22 -157.51,-61.35 -79.92,-46.13 -139,-93.48 -131.89,-105.73 l 50,-86.61 c -7.07,12.26 52,59.6 131.89,105.73 79.89,46.13 150.44,73.65 157.51,61.36 z"
         transform="translate(1699.24,510.16)"
         id="path129" />
    </g>
    <g
       class="cls-36"
       id="g137"
       transform="translate(1647.533,498.16041)">
      <path
         class="cls-38"
         d="m 1769.37,1829.48 c 79.93,46.15 139,93.48 131.89,105.74 -7.11,12.26 -77.59,-15.21 -157.51,-61.36 -79.92,-46.15 -139,-93.47 -131.89,-105.72 7.11,-12.25 77.6,15.21 157.51,61.34 z"
         transform="translate(1699.24,510.16)"
         id="path133" />
      <path
         class="cls-38"
         d="m 1901.26,1935.22 -50,86.6 c -7.07,12.25 -77.59,-15.21 -157.51,-61.35 -79.92,-46.14 -139,-93.48 -131.89,-105.73 l 50,-86.6 c -7.07,12.25 52,59.59 131.89,105.72 79.89,46.13 150.44,73.61 157.51,61.36 z"
         transform="translate(1699.24,510.16)"
         id="path135" />
    </g>
    <g
       class="cls-36"
       id="g143"
       transform="translate(1647.533,498.16041)">
      <path
         class="cls-37"
         d="m 1781.13,1808.9 c 79.91,46.14 139,93.47 131.89,105.73 -7.11,12.26 -77.6,-15.21 -157.51,-61.35 -79.91,-46.14 -139,-93.48 -131.89,-105.73 7.11,-12.25 77.59,15.21 157.51,61.35 z"
         transform="translate(1699.24,510.16)"
         id="path139" />
      <path
         class="cls-37"
         d="m 1913,1914.63 -50,86.6 c -7.08,12.26 -77.6,-15.21 -157.51,-61.35 -79.91,-46.14 -139,-93.47 -131.89,-105.73 l 50,-86.6 c -7.08,12.25 52,59.59 131.89,105.73 79.89,46.14 150.45,73.61 157.51,61.35 z"
         transform="translate(1699.24,510.16)"
         id="path141" />
    </g>
    <ellipse
       class="cls-39"
       cx="100.28738"
       cy="5849.2603"
       rx="27.059999"
       ry="165.36"
       transform="rotate(-60)"
       id="ellipse145" />
    <g
       class="cls-36"
       id="g151"
       transform="translate(1647.533,498.16041)">
      <path
         class="cls-40"
         d="m 3422.33,2602.6 c 99.5,57.45 173,116.39 164.21,131.65 -8.79,15.26 -96.61,-18.94 -196.11,-76.39 -99.5,-57.45 -173,-116.39 -164.22,-131.65 8.78,-15.26 96.62,18.94 196.12,76.39 z"
         transform="translate(1699.24,510.16)"
         id="path147" />
      <path
         class="cls-40"
         d="m 3586.54,2734.25 -50,86.6 c -8.81,15.27 -96.61,-18.94 -196.11,-76.39 -99.5,-57.45 -173,-116.38 -164.22,-131.65 l 50,-86.6 c -8.82,15.26 64.72,74.2 164.22,131.65 99.5,57.45 187.3,91.65 196.11,76.39 z"
         transform="translate(1699.24,510.16)"
         id="path149" />
    </g>
    <g
       class="cls-36"
       id="g157"
       transform="translate(1647.533,498.16041)">
      <path
         class="cls-41"
         d="m 3477.37,2506.11 c 99.51,57.46 173,116.4 164.22,131.66 -8.78,15.26 -96.62,-18.94 -196.13,-76.39 -99.51,-57.45 -173,-116.39 -164.21,-131.65 8.79,-15.26 96.62,18.94 196.12,76.38 z"
         transform="translate(1699.24,510.16)"
         id="path153" />
      <path
         class="cls-41"
         d="m 3641.59,2637.77 -50,86.6 c -8.81,15.26 -96.62,-18.94 -196.13,-76.39 -99.51,-57.45 -173,-116.39 -164.21,-131.65 l 50,-86.6 c -8.81,15.26 64.71,74.2 164.21,131.65 99.5,57.45 187.32,91.62 196.13,76.39 z"
         transform="translate(1699.24,510.16)"
         id="path155" />
    </g>
    <g
       class="cls-36"
       id="g163"
       transform="translate(1647.533,498.16041)">
      <path
         class="cls-42"
         d="m 3491,2481.73 c 99.5,57.45 173,116.39 164.21,131.65 -8.79,15.26 -96.61,-18.94 -196.11,-76.39 -99.5,-57.45 -173,-116.39 -164.22,-131.65 8.78,-15.26 96.61,18.94 196.12,76.39 z"
         transform="translate(1699.24,510.16)"
         id="path159" />
      <path
         class="cls-42"
         d="m 3655.21,2613.38 -50,86.6 c -8.81,15.26 -96.61,-18.94 -196.11,-76.39 -99.5,-57.45 -173,-116.39 -164.22,-131.65 l 50,-86.6 c -8.81,15.26 64.71,74.2 164.22,131.65 99.51,57.45 187.3,91.65 196.11,76.39 z"
         transform="translate(1699.24,510.16)"
         id="path161" />
    </g>
    <g
       class="cls-36"
       id="g169"
       transform="translate(1647.533,498.16041)">
      <path
         class="cls-43"
         d="m 3547.59,2384 c 99.5,57.45 173,116.39 164.22,131.65 -8.78,15.26 -96.62,-19 -196.12,-76.39 -99.5,-57.39 -173,-116.39 -164.21,-131.65 8.79,-15.26 96.61,18.94 196.11,76.39 z"
         transform="translate(1699.24,510.16)"
         id="path165" />
      <path
         class="cls-43"
         d="m 3711.81,2515.65 -50,86.6 c -8.81,15.27 -96.62,-18.94 -196.12,-76.39 -99.5,-57.45 -173,-116.38 -164.21,-131.65 l 50,-86.6 c -8.81,15.26 64.71,74.2 164.21,131.65 99.5,57.45 187.31,91.65 196.12,76.39 z"
         transform="translate(1699.24,510.16)"
         id="path167" />
    </g>
    <g
       class="cls-36"
       id="g175"
       transform="translate(1647.533,498.16041)">
      <path
         class="cls-44"
         d="m 3562.22,2358.36 c 99.51,57.45 173,116.4 164.22,131.66 -8.78,15.26 -96.62,-18.94 -196.13,-76.4 -99.51,-57.46 -173,-116.38 -164.21,-131.64 8.79,-15.26 96.62,18.93 196.12,76.38 z"
         transform="translate(1699.24,510.16)"
         id="path171" />
      <path
         class="cls-44"
         d="m 3726.44,2490 -50,86.6 c -8.81,15.26 -96.62,-18.94 -196.13,-76.39 -99.51,-57.45 -173,-116.39 -164.21,-131.65 l 50,-86.6 c -8.81,15.26 64.71,74.2 164.21,131.64 99.5,57.44 187.32,91.68 196.13,76.4 z"
         transform="translate(1699.24,510.16)"
         id="path173" />
    </g>
    <ellipse
       class="cls-45"
       cx="513.01221"
       cy="7669.7065"
       rx="33.816067"
       ry="206.59911"
       transform="rotate(-60.113473)"
       id="ellipse177"
       style="stroke-width:1.00344" />
    <g
       class="cls-36"
       id="g183"
       transform="translate(1647.533,498.16041)">
      <path
         class="cls-46"
         d="m 2110.2,3689.45 c 57,32.9 99.1,66.66 94.05,75.4 -5.05,8.74 -55.34,-10.85 -112.32,-43.75 -56.98,-32.9 -99.11,-66.67 -94.06,-75.41 5.05,-8.74 55.34,10.85 112.33,43.76 z"
         transform="translate(1699.24,510.16)"
         id="path179" />
      <path
         class="cls-46"
         d="m 2204.25,3764.85 -50,86.6 c -5,8.74 -55.34,-10.85 -112.32,-43.75 -56.98,-32.9 -99.11,-66.67 -94.06,-75.4 l 50,-86.61 c -5,8.74 37.07,42.5 94.06,75.41 56.99,32.91 107.28,52.48 112.32,43.75 z"
         transform="translate(1699.24,510.16)"
         id="path181" />
    </g>
    <g
       class="cls-36"
       id="g189"
       transform="translate(1647.533,498.16041)">
      <path
         class="cls-47"
         d="m 2144.72,3630.19 c 57,32.9 99.1,66.66 94.06,75.4 -5.04,8.74 -55.34,-10.85 -112.34,-43.75 -57,-32.9 -99.09,-66.67 -94,-75.41 5.09,-8.74 55.29,10.86 112.28,43.76 z"
         transform="translate(1699.24,510.16)"
         id="path185" />
      <path
         class="cls-47"
         d="m 2238.78,3705.59 -50,86.6 c -5.05,8.74 -55.34,-10.85 -112.34,-43.75 -57,-32.9 -99.09,-66.66 -94,-75.41 l 50,-86.6 c -5,8.74 37.07,42.51 94,75.41 56.93,32.9 107.29,52.49 112.34,43.75 z"
         transform="translate(1699.24,510.16)"
         id="path187" />
    </g>
    <g
       class="cls-36"
       id="g195"
       transform="translate(1647.533,498.16041)">
      <path
         class="cls-48"
         d="m 2153.53,3615.21 c 57,32.91 99.1,66.67 94,75.41 -5.1,8.74 -55.33,-10.85 -112.33,-43.76 -57,-32.91 -99.1,-66.66 -94.06,-75.4 5.04,-8.74 55.4,10.85 112.39,43.75 z"
         transform="translate(1699.24,510.16)"
         id="path191" />
      <path
         class="cls-48"
         d="m 2247.58,3690.62 -50,86.6 c -5,8.74 -55.33,-10.85 -112.33,-43.75 -57,-32.9 -99.1,-66.67 -94.06,-75.41 l 50,-86.6 c -5,8.74 37.07,42.5 94.06,75.4 56.99,32.9 107.29,52.5 112.33,43.76 z"
         transform="translate(1699.24,510.16)"
         id="path193" />
    </g>
    <g
       class="cls-36"
       id="g201"
       transform="translate(1647.533,498.16041)">
      <path
         class="cls-47"
         d="m 2193,3546.25 c 57,32.9 99.1,66.65 94.05,75.39 -5.05,8.74 -55.34,-10.84 -112.33,-43.74 -56.99,-32.9 -99.1,-66.67 -94.05,-75.41 5.05,-8.74 55.33,10.85 112.33,43.76 z"
         transform="translate(1699.24,510.16)"
         id="path197" />
      <path
         class="cls-47"
         d="m 2287,3621.64 -50,86.61 c -5.05,8.74 -55.34,-10.85 -112.33,-43.75 -56.99,-32.9 -99.1,-66.67 -94.05,-75.41 l 50,-86.6 c -5,8.74 37.05,42.5 94.05,75.41 57,32.91 107.33,52.49 112.33,43.74 z"
         transform="translate(1699.24,510.16)"
         id="path199" />
    </g>
    <g
       class="cls-36"
       id="g207"
       transform="translate(1647.533,498.16041)">
      <path
         class="cls-49"
         d="m 2188.72,3554 c 57,32.9 99.1,66.66 94.05,75.4 -5.05,8.74 -55.33,-10.85 -112.32,-43.75 -56.99,-32.9 -99.11,-66.67 -94.06,-75.4 5.05,-8.73 55.34,10.81 112.33,43.75 z"
         transform="translate(1699.24,510.16)"
         id="path203" />
      <path
         class="cls-49"
         d="m 2282.77,3629.37 -37.5,65 c -5,8.74 -55.33,-10.85 -112.32,-43.75 -56.99,-32.9 -99.11,-66.67 -94.06,-75.4 l 37.5,-65 c -5,8.73 37.07,42.49 94.06,75.4 56.99,32.91 107.28,52.49 112.32,43.75 z"
         transform="translate(1699.24,510.16)"
         id="path205" />
    </g>
    <ellipse
       class="cls-50"
       cx="-1194.5679"
       cy="7074.7925"
       rx="23.780001"
       ry="117.93"
       transform="rotate(-60)"
       id="ellipse209" />
    <path
       class="cls-51"
       d="m 4280.713,1815.1104 81.21,412.21 -174.23,99.06 q -20,11.37 -38.91,4.36 -21.28,-8.76 -26.88,-37.24 l -21.72,-110.25 q -7.33,-37.21 4.12,-59.35 8.91,-18.33 34.39,-32.83 l 125.08,-71.08 -34.62,-175.57 z m -4.52,268.08 -122.67,69.75 21.72,110.25 122.67,-69.75 z"
       id="path211" />
    <path
       class="cls-51"
       d="m 4368.563,1765.9504 34.45,174.86 126.23,-71.77 q 26.07,-14.82 38.09,-10.72 16.71,4.54 23.9,41.07 l 21,109.88 a 97.17,97.17 0 0 1 -6.09,57.74 q -11.89,28.24 -30.86,39 l -177.8,101.11 -81.07,-411.52 z m 68.34,346.91 123.87,-70.42 -21.58,-109.55 -123.87,70.43 z"
       id="path213" />
    <path
       class="cls-51"
       d="m 4851.323,1757.7604 21.45,108.85 q 7.27,36.93 -5.2,60.59 -9.61,18.12 -35.69,32.93 l -123.27,70.09 27.67,140.45 -51.51,29.31 -74.29,-377.1 174.83,-99.4 q 20,-11.37 40.13,-3.3 20.13,8.07 25.88,37.58 z m -53.33,30.32 -123.22,70.09 21.44,108.85 123.27,-70.09 z"
       id="path215" />
    <path
       class="cls-51"
       d="m 4971.773,1880.6204 -52.18,29.7 -81.07,-411.52 52.15,-29.65 q 84.39,428.34 81.1,411.47 z"
       id="path217" />
    <path
       class="cls-51"
       d="m 5248.043,1807.8704 q 6.07,30.9 -0.72,51.16 -7.79,25.51 -38.12,42.76 l -107.86,61.33 -11,-65.62 106.09,-60.32 -15,-75.84 -123.76,70.42 q -27.9,15.87 -42.14,10.35 -14.24,-5.52 -21,-39.85 l -35,-177.84 51.56,-29.31 q 1.23,6.27 34.17,173.45 l 123.86,-70.42 -34.17,-173.46 51.56,-29.31 z"
       id="path219" />
    <path
       class="cls-51"
       d="m 5419.913,1449.3204 -3,-15.45 -122.14,69.45 q 31.82,161.52 34.31,174.15 l -52.75,30 -46.76,-237.36 175,-98.69 q 28.44,-16.19 41.92,-11.34 16.26,5.59 23,40 l 3.73,19 z"
       id="path221" />
    <line
       class="cls-52"
       x1="4518.1631"
       y1="3130.5205"
       x2="4533.2832"
       y2="3995.3704"
       id="line223" />
    <line
       class="cls-52"
       x1="6005.7832"
       y1="3018.1904"
       x2="6020.8931"
       y2="3883.0403"
       id="line225" />
    <polygon
       class="cls-53"
       points="2241.48,1834.97 2281.3,1834.97 2301.22,1869.45 2281.3,1903.94 2241.48,1903.94 2221.57,1869.45 "
       id="polygon227"
       transform="translate(1647.533,498.16041)" />
    <polygon
       class="cls-35"
       points="4653.5,3634.64 4742.22,3634.64 4786.58,3711.48 4742.22,3788.32 4653.5,3788.32 4609.14,3711.48 "
       id="polygon229"
       transform="translate(1647.533,498.16041)" />
    <polygon
       class="cls-54"
       points="2447.24,3565.43 2496.78,3565.43 2521.55,3608.33 2496.78,3651.23 2447.24,3651.23 2422.47,3608.33 "
       id="polygon231"
       transform="translate(1647.533,498.16041)" />
    <path
       class="cls-51"
       d="m 6051.383,4780.8204 c -11.06,-19.16 -5.8,-38 7.66,-45.81 6.79,-3.92 12.75,-4 20.41,-2.73 l -6.3,-9.78 -13.09,-22.68 10.07,-5.81 49.84,86.31 -8.25,4.76 -4.83,-6.42 -0.37,0.21 c -2,7.14 -6.08,14.66 -13,18.65 -14.75,8.56 -30.75,2.94 -42.14,-16.7 z m 49.84,-9.71 -17.78,-30.79 c -7.56,-1.62 -13,-0.72 -17.87,2.08 -9.46,5.46 -11.73,18.89 -4,32.35 8.12,14.06 19,19.12 29.27,13.17 5.5,-3.15 8.69,-8.55 10.38,-16.81 z"
       id="path233" />
    <path
       class="cls-51"
       d="m 6145.573,4757.4804 -0.37,0.21 2.65,6.55 -8,4.62 -49.84,-86.33 9.94,-5.74 13.58,23.53 5.92,10.8 c 2.61,-7.8 7.12,-15.1 13.67,-18.88 15.28,-8.82 30.19,-1.75 40.69,16.44 11.62,20.12 6.41,38.81 -7.05,46.58 -5.46,3.15 -13.25,3.94 -21.19,2.22 z m 18,-42.73 c -7.49,-13 -16.89,-19.18 -28,-12.74 -5,2.87 -8.58,8.66 -11.15,17.1 l 17.85,30.91 c 7.81,1.48 14.12,0.1 18,-2.14 9.66,-5.56 11.7,-18.56 3.3,-33.13 z"
       id="path235" />
    <path
       class="cls-51"
       d="m 6172.883,4671.2304 8.24,-4.77 4.77,6.3 0.37,-0.21 c 2.74,-7.56 7.12,-15.1 14,-19.09 15.15,-8.75 30.07,-1.68 40.64,16.63 11.55,20 6.33,38.69 -7.12,46.46 -5.46,3.15 -12.39,3.76 -20.29,2.66 l 6.19,10.17 11.48,19.88 -9.94,5.74 z m 57.74,4.81 c -7.49,-13 -16.89,-19.18 -28,-12.74 -5,2.87 -8.33,8.52 -11.14,17.1 l 17.85,30.91 c 7.92,1.41 14.12,0.1 18,-2.14 9.65,-5.6 11.69,-18.58 3.29,-33.13 z"
       id="path237" />
    <path
       class="cls-51"
       d="m 6267.333,4679.4204 -43,-74.45 9.94,-5.74 43.4,75.18 c 1.82,3.15 3.85,3.59 5.31,2.75 a 9.83,9.83 0 0 0 2,-1.5 l 5.67,6.74 a 15.4,15.4 0 0 1 -5.13,4.26 c -7.46,4.34 -13.22,1.37 -18.19,-7.24 z"
       id="path239" />
    <path
       class="cls-51"
       d="m 6313.093,4701.0104 -2.61,-9 a 20.29,20.29 0 0 0 5,-1.74 c 6.67,-3.85 7.83,-11.64 6,-20.31 l -1.18,-5.14 -57.73,-45.39 10.3,-6 30.83,25.68 c 4.76,4 10.32,8.92 15.29,13.32 l 0.49,-0.28 c -1.38,-6.31 -3.19,-13.36 -4.62,-19.48 l -8.28,-38.7 9.7,-5.6 14.63,76.58 c 2.6,14 1.65,26.37 -10.24,33.23 a 22.49,22.49 0 0 1 -7.58,2.83 z"
       id="path241" />
    <path
       class="cls-51"
       d="m 6327.703,4581.8404 8.25,-4.76 7,10.18 0.36,-0.21 c -0.27,-9.71 3.06,-17.94 9.73,-21.79 a 17.07,17.07 0 0 1 7,-2.43 l 3.1,9.85 a 19.15,19.15 0 0 0 -6.26,2.32 c -5,2.87 -8.81,9.94 -7.07,22.19 l 21.84,37.83 -10,5.74 z"
       id="path243" />
    <path
       class="cls-51"
       d="m 6391.323,4615.5904 c -2.66,-4.61 -1.2,-9.65 2.8,-12 4,-2.35 9,-1 11.63,3.63 a 8.34,8.34 0 1 1 -14.43,8.33 z"
       id="path245" />
    <path
       class="cls-51"
       d="m 6412.693,4587.0804 -18.83,-32.61 -8.73,5 -4.34,-7.52 8.87,-5.92 -8.31,-17.19 8.37,-4.83 9.52,16.49 15.88,-9.17 4.69,8.12 -15.88,9.17 18.9,32.74 c 4.2,7.27 8.88,10.06 15.67,6.14 a 24.88,24.88 0 0 0 5.76,-5.42 l 6.28,6.39 a 42.13,42.13 0 0 1 -9.65,8.49 c -12.61,7.36 -21.48,1.76 -28.2,-9.88 z"
       id="path247" />
    <path
       class="cls-51"
       d="m 6415.933,4506.1704 c -2.24,-3.88 -0.68,-8.18 3.2,-10.42 3.88,-2.24 8.38,-1.44 10.62,2.44 2.24,3.88 0.68,8.17 -3.2,10.41 -3.88,2.24 -8.45,1.32 -10.62,-2.43 z m 12.53,17.5 9.94,-5.74 34,58.92 -9.94,5.74 z"
       id="path249" />
    <path
       class="cls-51"
       d="m 6471.123,4538.4804 c -11.06,-19.16 -5.8,-38 7.66,-45.81 6.79,-3.92 12.75,-4 20.41,-2.73 l -6.3,-9.78 -13.12,-22.67 10.07,-5.81 49.84,86.32 -8.25,4.76 -4.84,-6.42 -0.36,0.21 c -2,7.15 -6.08,14.67 -13,18.66 -14.75,8.54 -30.77,2.91 -42.11,-16.73 z m 49.84,-9.7 -17.78,-30.8 c -7.56,-1.61 -13,-0.72 -17.87,2.08 -9.46,5.46 -11.73,18.89 -4,32.35 8.12,14.06 19,19.12 29.27,13.17 5.5,-3.15 8.68,-8.55 10.38,-16.8 z"
       id="path251" />
    <path
       class="cls-51"
       d="m 6567.583,4554.0804 -2.61,-9 a 20.29,20.29 0 0 0 5,-1.74 c 6.66,-3.85 7.83,-11.64 6.05,-20.31 l -1.18,-5.14 -57.74,-45.39 10.31,-5.95 30.83,25.68 c 4.76,4 10.32,8.92 15.29,13.32 l 0.49,-0.28 c -1.39,-6.31 -3.19,-13.35 -4.62,-19.48 l -8.29,-38.7 9.7,-5.6 14.64,76.58 c 2.59,14 1.64,26.37 -10.24,33.23 a 22.56,22.56 0 0 1 -7.63,2.78 z"
       id="path253" />
    <path
       class="cls-51"
       d="m 6573.703,4439.8104 10.31,-5.95 30.47,27 c 5.06,4.84 10.43,9.66 15.47,14.19 l 0.48,-0.28 c -1.52,-6.56 -3,-13.62 -4.67,-20.42 l -8.17,-39.9 9.82,-5.67 13.17,71 -11.64,6.72 z"
       id="path255" />
    <path
       class="cls-51"
       d="m 6651.043,4434.6004 c -11.13,-19.28 -4.95,-38.53 8.51,-46.3 15,-8.68 29.75,-2.79 39.48,14.07 a 44.53,44.53 0 0 1 2.93,5.91 l -39.77,23 c 7.94,12.06 20.2,15.66 31.47,9.15 a 30.7,30.7 0 0 0 12,-13.08 l 7.3,4.52 a 40.54,40.54 0 0 1 -15.9,17.26 c -15.75,9.06 -34.89,4.75 -46.02,-14.53 z m 38.42,-28.65 c -6.86,-11.88 -15.9,-15.23 -25.12,-9.91 -8.24,4.77 -11.91,15.77 -6.4,28.11 z"
       id="path257" />
    <path
       class="cls-51"
       d="m 6698.463,4367.7804 8.24,-4.76 7,10.18 0.37,-0.21 c -0.27,-9.71 3.06,-17.93 9.73,-21.78 a 16.89,16.89 0 0 1 7,-2.43 l 3.1,9.85 a 18.88,18.88 0 0 0 -6.25,2.32 c -5,2.87 -8.82,9.93 -7.08,22.19 l 21.84,37.82 -9.94,5.74 z"
       id="path259" />
    <path
       class="cls-51"
       d="m 6763.673,4399.8104 1.1,-9.49 c 7.47,1.18 14.36,1.08 21.4,-3 7.76,-4.48 9.26,-10.84 6.32,-15.93 -3.5,-6.07 -12.08,-4.67 -19.9,-3.39 -10.12,1.8 -21.64,3.12 -27.38,-6.82 -5.46,-9.46 -2.14,-21.07 10.59,-28.42 a 34,34 0 0 1 22.15,-3.91 l -1.09,9 c -5.75,-0.72 -11.25,-0.45 -16.46,2.56 -7.4,4.27 -8.48,10.23 -5.89,14.71 3.22,5.58 10.83,3.93 19,2.63 10.31,-1.75 21.79,-3.69 28.23,7.46 5.53,9.58 2.52,22 -11.43,30 a 41,41 0 0 1 -26.64,4.6 z"
       id="path261" />
    <path
       class="cls-51"
       d="m 6803.563,4346.5404 c -11.13,-19.27 -4.95,-38.52 8.51,-46.29 15,-8.68 29.75,-2.79 39.48,14.06 a 44.53,44.53 0 0 1 2.93,5.91 l -39.77,23 c 7.94,12.07 20.2,15.66 31.47,9.15 a 30.7,30.7 0 0 0 12,-13.08 l 7.3,4.52 a 40.54,40.54 0 0 1 -15.9,17.26 c -15.75,9.06 -34.89,4.75 -46.02,-14.53 z m 38.42,-28.64 c -6.86,-11.89 -15.9,-15.23 -25.12,-9.91 -8.24,4.76 -11.91,15.77 -6.4,28.11 z"
       id="path263" />
    <path
       class="cls-51"
       d="m 6879.443,4333.7704 c -2.66,-4.6 -1.21,-9.65 2.79,-12 4,-2.35 9,-1 11.64,3.63 a 8.34,8.34 0 1 1 -14.43,8.33 z"
       id="path265" />
    <path
       class="cls-51"
       d="m 6892.553,4295.1604 c -11.41,-19.76 -5.06,-38.45 9.36,-46.78 14.42,-8.33 33.79,-4.48 45.2,15.28 11.27,19.53 4.93,38.22 -9.5,46.55 -14.43,8.33 -33.79,4.47 -45.06,-15.05 z m 44.26,-25.55 c -7.84,-13.57 -19.95,-18.87 -30.14,-13 -10.19,5.87 -11.65,19 -3.81,32.59 7.84,13.59 19.93,18.57 30,12.76 10.07,-5.81 11.72,-18.89 3.91,-32.35 z"
       id="path267" />
    <path
       class="cls-51"
       d="m 6945.553,4225.1204 8.22,-4.8 7,10.18 0.37,-0.21 c -0.27,-9.7 3.06,-17.93 9.73,-21.78 a 16.89,16.89 0 0 1 7,-2.43 l 3.1,9.85 a 18.88,18.88 0 0 0 -6.2,2.39 c -5,2.87 -8.82,9.94 -7.08,22.19 l 21.84,37.83 -9.94,5.74 z"
       id="path269" />
    <path
       class="cls-51"
       d="m 7022.453,4274.3204 c -2.87,-5 -2.32,-11.59 0.91,-18.3 l -0.28,-0.49 a 12.55,12.55 0 0 1 -10.74,-6.57 c -2.87,-5 -1.72,-10.81 0.12,-14.62 l -0.28,-0.48 a 24.11,24.11 0 0 1 -16.8,-11.48 c -7.42,-12.85 -1.93,-26.85 10.07,-33.78 a 27.24,27.24 0 0 1 9.21,-3.38 l 20.49,-11.83 4.41,7.64 -12.13,7 a 19.71,19.71 0 0 1 11.85,9.33 c 7.28,12.6 2.26,26 -9.75,32.95 a 23.66,23.66 0 0 1 -10,3 c -1,3 -1.59,5.93 0.3,9.21 2.17,3.76 6.14,5 14.14,0.4 l 11.4,-6.58 c 13.7,-7.91 23.06,-7.65 28.73,2.17 6.3,10.91 0.24,27 -18.07,37.59 -14.46,8.37 -27.7,8.41 -33.58,-1.78 z m 42.75,-28.72 c -3.15,-5.45 -8.44,-4.82 -16.08,-0.41 l -10.19,5.88 a 33.31,33.31 0 0 1 -8.2,3.44 c -2.49,5.48 -2.28,10 -0.32,13.44 3.64,6.3 12.38,6.59 23.05,0.43 11.31,-6.51 15.31,-16.6 11.74,-22.78 z m -35.15,-43.28 c -5,-8.61 -13.49,-10.48 -20.4,-6.49 -6.91,3.99 -9.55,12.3 -4.58,20.91 4.97,8.61 13.82,10.78 20.61,6.86 6.79,-3.92 9.34,-12.63 4.37,-21.28 z"
       id="path271" />
  </g>
</svg>
