<?xml version="1.0" encoding="UTF-8" standalone="no"?>
<svg
   viewBox="0 0 6877.86 5531.09"
   version="1.1"
   id="svg218"
   sodipodi:docname="sparklyr.svg"
   inkscape:version="1.1.2 (0a00cf5339, 2022-02-04)"
   xmlns:inkscape="http://www.inkscape.org/namespaces/inkscape"
   xmlns:sodipodi="http://sodipodi.sourceforge.net/DTD/sodipodi-0.dtd"
   xmlns="http://www.w3.org/2000/svg"
   xmlns:svg="http://www.w3.org/2000/svg">
  <sodipodi:namedview
     id="namedview220"
     pagecolor="#ffffff"
     bordercolor="#666666"
     borderopacity="1.0"
     inkscape:pageshadow="2"
     inkscape:pageopacity="0.0"
     inkscape:pagecheckerboard="0"
     showgrid="false"
     inkscape:zoom="0.12999246"
     inkscape:cx="3442.5072"
     inkscape:cy="4011.771"
     inkscape:window-width="1280"
     inkscape:window-height="1510"
     inkscape:window-x="0"
     inkscape:window-y="0"
     inkscape:window-maximized="0"
     inkscape:current-layer="svg218" />
  <defs
     id="defs7">
    <style
       id="style2">.cls-1,.cls-26{fill:none;}.cls-1{stroke:#4d4d4d;stroke-width:120px;}.cls-1,.cls-10,.cls-11,.cls-12,.cls-14,.cls-15,.cls-16,.cls-3,.cls-30,.cls-32,.cls-33,.cls-4,.cls-5,.cls-6,.cls-7,.cls-8,.cls-9{stroke-miterlimit:10;}.cls-2{clip-path:url(#clip-path);}.cls-3,.cls-4{stroke:#000;}.cls-13,.cls-4{fill:#4d4d4d;}.cls-5{fill:#1a9dff;}.cls-10,.cls-11,.cls-12,.cls-5,.cls-6,.cls-7,.cls-8,.cls-9{stroke:#1a8bff;}.cls-5,.cls-6,.cls-7,.cls-8{opacity:0.6;}.cls-6{fill:#84b715;}.cls-7{fill:#bc157d;}.cls-8{fill:#e84d00;}.cls-9{fill:#ffc200;}.cls-10,.cls-11,.cls-12,.cls-29,.cls-31,.cls-9{opacity:0.8;}.cls-10{fill:#ff6700;}.cls-11{fill:#16b596;}.cls-12{fill:#c607d1;}.cls-14{fill:#17ffb7;stroke:#009e87;}.cls-14,.cls-15,.cls-16,.cls-30,.cls-32,.cls-33{stroke-width:50px;}.cls-15{fill:#00fffb;stroke:#00a99d;}.cls-16{fill:#cd37e2;stroke:#8a07aa;}.cls-17{fill:#e23a00;}.cls-18{fill:#fc8300;}.cls-19{fill:#e08500;}.cls-20{fill:#00dd93;}.cls-21{fill:#0abfb6;}.cls-22{fill:#d500db;}.cls-23{fill:#8e11c1;}.cls-24{fill:#9800d8;}.cls-25{fill:#999;}.cls-27{fill:#ffce00;}.cls-28{fill:#ffe600;}.cls-29{fill:#ffda15;}.cls-30{fill:#ffe000;stroke:#f7bd06;}.cls-31{fill:#a4b220;}.cls-32{fill:#d2e01e;stroke:#83b20f;}.cls-33{fill:#f7931e;stroke:#f15a24;}</style>
    <clipPath
       id="clip-path"
       transform="translate(920.29 70.32)">
      <polygon
         class="cls-1"
         points="4200.91 3655.5 4200.91 1263.46 2129.34 67.44 57.78 1263.46 57.78 3655.5 2129.34 4851.52 4200.91 3655.5"
         id="polygon4" />
    </clipPath>
  </defs>
  <g
     id="g2290"
     transform="matrix(0.13867552,0,0,0.16335518,771.21817,73.248932)">
    <rect
       class="cls-3"
       x="895.81848"
       y="88.31723"
       width="5287.2969"
       height="5194.6704"
       id="rect9"
       style="stroke-width:1.04816" />
    <rect
       class="cls-4"
       x="-871.77997"
       y="3796.5649"
       width="5952.3101"
       height="46.262825"
       transform="matrix(0.84175421,-0.53986096,0.46116777,0.88731296,0,0)"
       id="rect11"
       style="stroke-width:0.95076" />
    <rect
       class="cls-4"
       x="-1364.838"
       y="4452.9893"
       width="5471.2422"
       height="160.7789"
       transform="matrix(0.87358173,-0.48667748,0.51344186,0.85812438,0,0)"
       id="rect13"
       style="stroke-width:0.843751" />
    <rect
       class="cls-4"
       x="-1192.8232"
       y="4067.2102"
       width="5725.7148"
       height="85.700592"
       transform="matrix(0.86573336,-0.50050549,0.49949469,0.86631695,0,0)"
       id="rect15"
       style="stroke-width:0.891207" />
    <rect
       class="cls-4"
       x="-1384.1877"
       y="4667.7095"
       width="5483.8906"
       height="72.928749"
       transform="matrix(0.87206135,-0.48939657,0.5106789,0.85977152,0,0)"
       id="rect17"
       style="stroke-width:0.847248" />
    <rect
       class="cls-4"
       x="-1284.7572"
       y="5112.1104"
       width="5081.4795"
       height="28.77363"
       transform="matrix(0.8748411,-0.48441001,0.51575363,0.85673694,0,0)"
       id="rect19"
       style="stroke-width:0.782449" />
    <rect
       class="cls-4"
       x="-831.26996"
       y="3415.6091"
       width="5942.4551"
       height="34.056747"
       transform="matrix(0.86981309,-0.49338139,0.50664795,0.86215304,0,0)"
       id="rect21"
       style="stroke-width:0.920551" />
    <rect
       class="cls-4"
       x="-901.85272"
       y="5344.6001"
       width="4720.4565"
       height="67.139488"
       transform="matrix(0.87650541,-0.48139202,0.51884156,0.85487042,0,0)"
       id="rect23"
       style="stroke-width:0.725381" />
    <rect
       class="cls-4"
       x="-928.479"
       y="3394.8594"
       width="5717.8442"
       height="82.164536"
       transform="matrix(0.88254819,-0.47022197,0.53038004,0.84776,0,0)"
       id="rect25"
       style="stroke-width:0.872027" />
    <rect
       class="cls-4"
       x="-239.87303"
       y="2497.5325"
       width="4327.042"
       height="48.404049"
       transform="matrix(0.86555302,-0.50081731,0.49918314,0.86649651,0,0)"
       id="rect27"
       style="stroke-width:0.948768" />
    <rect
       class="cls-4"
       x="-498.52902"
       y="5533.2832"
       width="4163.583"
       height="208.56023"
       transform="matrix(0.86245023,-0.50614187,0.49388317,0.86952827,0,0)"
       id="rect29"
       style="stroke-width:0.650496" />
    <rect
       class="cls-5"
       x="-403.25177"
       y="5287.6582"
       width="4447.8501"
       height="62.549999"
       transform="rotate(-30)"
       id="rect31" />
    <rect
       class="cls-6"
       x="-954.71381"
       y="3936.3987"
       width="5320.8599"
       height="72.720001"
       transform="rotate(-30)"
       id="rect33" />
    <rect
       class="cls-7"
       x="-485.54764"
       y="5746.7788"
       width="4158.0908"
       height="41.15593"
       transform="matrix(0.86178449,-0.50727458,0.49276053,0.87016496,0,0)"
       id="rect35"
       style="stroke-width:0.939388" />
    <rect
       class="cls-8"
       x="-353.33954"
       y="5832.7354"
       width="3744.3037"
       height="32.873516"
       transform="matrix(0.8696272,-0.49370896,0.50631753,0.86234712,0,0)"
       id="rect37"
       style="stroke-width:0.838293" />
    <rect
       class="cls-9"
       x="-751.88098"
       y="3098.0286"
       width="5337.1602"
       height="28.51"
       transform="rotate(-30)"
       id="rect39" />
    <rect
       class="cls-10"
       x="-641.09393"
       y="3167.8494"
       width="1674"
       height="51.330002"
       transform="rotate(-30)"
       id="rect41" />
    <rect
       class="cls-11"
       x="-827.12024"
       y="3380.1816"
       width="4033.8206"
       height="68.447708"
       transform="matrix(0.8692305,-0.49440706,0.50561387,0.86275988,0,0)"
       id="rect43"
       style="stroke-width:0.944773" />
    <rect
       class="cls-12"
       x="-679.14417"
       y="5081.7563"
       width="3030.0901"
       height="72.720001"
       transform="rotate(-30)"
       id="rect45" />
    <path
       class="cls-13"
       d="M 3491.8439,2448.4932"
       id="path47" />
    <path
       class="cls-14"
       d="m 4186.7539,1048.4132 -336.21,202.56 450.67,45.38 -295.37,517.6 436.45,-155.78 253.36,299 58.19,-296.46 569.84,257.7 -442.08,-595.3 322.22,-364.00002 -436.53,-31.76001 -99.45,-354.81 -171,254.44 -467,-206.61 z"
       id="path51" />
    <path
       class="cls-15"
       d="M 4424.5239,2901.9932"
       id="path53" />
    <path
       class="cls-16"
       d="m 4544.3739,2876.5732 -364.35,-165.28 203.82,359.7 -506.25,-11.69 429.51,266.65 -115.51,288.73 243.37,-82.72 245.56,430.74 135.06,-446.14 383,43.67 -311.44,-338.25 261,-209 -331.22,-29.37 -85.86,-408.51 z"
       id="path55" />
    <polygon
       class="cls-17"
       points="1442.72,1862.42 1415.61,1815.46 1361.38,1815.46 1334.27,1862.42 1361.38,1909.38 1415.61,1909.38 "
       id="polygon57"
       transform="translate(458.55388,116.53317)" />
    <polygon
       class="cls-18"
       points="1254.98,1912.35 1234.65,1877.13 1193.98,1877.13 1173.64,1912.35 1193.98,1947.57 1234.65,1947.57 "
       id="polygon59"
       transform="translate(458.55388,116.53317)" />
    <polygon
       class="cls-17"
       points="1123.55,2003.32 1108.3,1976.9 1077.8,1976.9 1062.55,2003.32 1077.8,2029.73 1108.3,2029.73 "
       id="polygon61"
       transform="translate(458.55388,116.53317)" />
    <polygon
       class="cls-19"
       points="2598.25,1862.42 2564.43,1803.85 2496.79,1803.85 2462.97,1862.42 2496.79,1921 2564.43,1921 "
       id="polygon63"
       transform="translate(458.55388,116.53317)" />
    <polygon
       class="cls-17"
       points="2795.24,1904.46 2768.12,1857.5 2713.9,1857.5 2686.79,1904.46 2713.9,1951.42 2768.12,1951.42 "
       id="polygon65"
       transform="translate(458.55388,116.53317)" />
    <polygon
       class="cls-17"
       points="2908.9,2030.9 2888.57,1995.68 2847.9,1995.68 2827.57,2030.9 2847.9,2066.12 2888.57,2066.12 "
       id="polygon67"
       transform="translate(458.55388,116.53317)" />
    <polygon
       class="cls-17"
       points="2082.33,2712.84 2067.08,2686.43 2036.58,2686.43 2021.33,2712.84 2036.58,2739.26 2067.08,2739.26 "
       id="polygon69"
       transform="translate(458.55388,116.53317)" />
    <polygon
       class="cls-18"
       points="2253.25,1490.04 2221.14,1434.43 2156.92,1434.43 2124.81,1490.04 2156.92,1545.65 2221.14,1545.65 "
       id="polygon71"
       transform="translate(458.55388,116.53317)" />
    <polygon
       class="cls-18"
       points="1664.57,2848.69 1623.67,2777.86 1541.88,2777.86 1500.99,2848.69 1541.88,2919.52 1623.67,2919.52 "
       id="polygon73"
       transform="translate(458.55388,116.53317)" />
    <polygon
       class="cls-17"
       points="1232.8,2408.57 1212.47,2373.35 1171.8,2373.35 1151.47,2408.57 1171.8,2443.79 1212.47,2443.79 "
       id="polygon75"
       transform="translate(458.55388,116.53317)" />
    <polygon
       class="cls-20"
       points="4176.03,1870.92 4113.75,1763.05 3989.19,1763.05 3926.91,1870.92 3989.19,1978.79 4113.75,1978.79 "
       id="polygon77"
       transform="translate(458.55388,116.53317)" />
    <polygon
       class="cls-21"
       points="3648.97,669.13 3614.47,609.38 3545.48,609.38 3510.98,669.13 3545.48,728.88 3614.47,728.88 "
       id="polygon79"
       transform="translate(458.55388,116.53317)" />
    <polygon
       class="cls-21"
       points="3390.52,713.94 3364.65,669.13 3312.9,669.13 3287.03,713.94 3312.9,758.75 3364.65,758.75 "
       id="polygon81"
       transform="translate(458.55388,116.53317)" />
    <polygon
       class="cls-21"
       points="3166.38,830.72 3146.97,797.11 3108.16,797.11 3088.76,830.72 3108.16,864.33 3146.97,864.33 "
       id="polygon83"
       transform="translate(458.55388,116.53317)" />
    <polygon
       class="cls-20"
       points="3273.04,1171.95 3238.55,1112.2 3169.55,1112.2 3135.06,1171.95 3169.55,1231.7 3238.55,1231.7 "
       id="polygon85"
       transform="translate(458.55388,116.53317)" />
    <polygon
       class="cls-21"
       points="4785.99,1207.58 4748.99,1143.48 4674.98,1143.48 4637.97,1207.58 4674.98,1271.67 4748.99,1271.67 "
       id="polygon87"
       transform="translate(458.55388,116.53317)" />
    <polygon
       class="cls-21"
       points="2957.87,1301.96 2932,1257.15 2880.25,1257.15 2854.38,1301.96 2880.25,1346.77 2932,1346.77 "
       id="polygon89"
       transform="translate(458.55388,116.53317)" />
    <polygon
       class="cls-21"
       points="4821.78,2013.49 4795.9,1968.68 4744.16,1968.68 4718.29,2013.49 4744.16,2058.3 4795.9,2058.3 "
       id="polygon91"
       transform="translate(458.55388,116.53317)" />
    <polygon
       class="cls-21"
       points="3946.85,2164.97 3912.36,2105.22 3843.36,2105.22 3808.87,2164.97 3843.36,2224.72 3912.36,2224.72 "
       id="polygon93"
       transform="translate(458.55388,116.53317)" />
    <polygon
       class="cls-20"
       points="4660.23,2222.5 4625.73,2162.75 4556.74,2162.75 4522.24,2222.5 4556.74,2282.25 4625.73,2282.25 "
       id="polygon95"
       transform="translate(458.55388,116.53317)" />
    <polygon
       class="cls-21"
       points="4775.43,2603.1 4749.55,2558.29 4697.81,2558.29 4671.94,2603.1 4697.81,2647.91 4749.55,2647.91 "
       id="polygon97"
       transform="translate(458.55388,116.53317)" />
    <polygon
       class="cls-22"
       points="3573.98,2462.9 3527.22,2381.92 3433.71,2381.92 3386.96,2462.9 3433.71,2543.89 3527.22,2543.89 "
       id="polygon99"
       transform="translate(458.55388,116.53317)" />
    <polygon
       class="cls-23"
       points="3246.33,2482.43 3211.26,2421.69 3141.13,2421.69 3106.06,2482.43 3141.13,2543.17 3211.26,2543.17 "
       id="polygon101"
       transform="translate(458.55388,116.53317)" />
    <polygon
       class="cls-23"
       points="2922.75,2567.03 2896.45,2521.48 2843.85,2521.48 2817.55,2567.03 2843.85,2612.59 2896.45,2612.59 "
       id="polygon103"
       transform="translate(458.55388,116.53317)" />
    <polygon
       class="cls-23"
       points="2594.27,3031.82 2567.97,2986.27 2515.36,2986.27 2489.06,3031.82 2515.36,3077.38 2567.97,3077.38 "
       id="polygon105"
       transform="translate(458.55388,116.53317)" />
    <polygon
       class="cls-24"
       points="4010.93,3710.9 3964.17,3629.92 3870.66,3629.92 3823.9,3710.9 3870.66,3791.89 3964.17,3791.89 "
       id="polygon107"
       transform="translate(458.55388,116.53317)" />
    <polygon
       class="cls-22"
       points="3749.34,3996.62 3714.28,3935.88 3644.14,3935.88 3609.07,3996.62 3644.14,4057.36 3714.28,4057.36 "
       id="polygon109"
       transform="translate(458.55388,116.53317)" />
    <polygon
       class="cls-23"
       points="4873.1,2699.93 4826.34,2618.94 4732.83,2618.94 4686.07,2699.93 4732.83,2780.91 4826.34,2780.91 "
       id="polygon111"
       transform="translate(458.55388,116.53317)" />
    <polygon
       class="cls-23"
       points="4761.77,3167.21 4726.71,3106.47 4656.57,3106.47 4621.5,3167.21 4656.57,3227.95 4726.71,3227.95 "
       id="polygon113"
       transform="translate(458.55388,116.53317)" />
    <polygon
       class="cls-22"
       points="4988.22,3377.21 4961.92,3331.66 4909.32,3331.66 4883.02,3377.21 4909.32,3422.77 4961.92,3422.77 "
       id="polygon115"
       transform="translate(458.55388,116.53317)" />
    <polygon
       class="cls-21"
       points="3237.93,3309.53 3203.44,3249.78 3134.44,3249.78 3099.95,3309.53 3134.44,3369.28 3203.44,3369.28 "
       id="polygon117"
       transform="translate(458.55388,116.53317)" />
    <polygon
       class="cls-21"
       points="3436.12,3128.77 3399.11,3064.67 3325.1,3064.67 3288.1,3128.77 3325.1,3192.86 3399.11,3192.86 "
       id="polygon119"
       transform="translate(458.55388,116.53317)" />
    <path
       class="cls-25"
       d="m 1939.2839,1514.1032 q -6.41,-32.77 3.48,-52.87 7.89,-15.53 30.67,-28.59 l 153.68,-88.1 10.87,55.64 -153.68,88.11 4.35,22.26 139.19,-79.8 q 14.47,-8.31 18.14,10.39 l 11,56.11 q 6.21,31.8 -1.41,49.43 -7.62,17.63 -32.74,32 l -153.71,88.17 -10.88,-55.65 153.69,-88.1 -4,-20.4 -133.09,76.24 q -20.62,11.82 -25.53,-13.32 z"
       id="path121" />
    <path
       class="cls-25"
       d="m 2370.0739,1269.8532 18.72,95.83 q 6.36,32.52 -4.54,53.35 -8.4,15.94 -31.16,29 l -107.63,61.7 24.16,123.66 -45,25.81 -64.86,-332 152.64,-87.51 q 17.48,-10 35,-2.9 17.52,7.1 22.67,33.06 z m -46.57,26.7 -107.66,61.7 18.72,95.83 107.63,-61.7 z"
       id="path123" />
    <path
       class="cls-25"
       d="m 2591.4239,1081.0832 40.71,208.36 -152.13,87.21 q -17.46,10 -33.44,3.53 -19.11,-7.39 -24,-32.47 l -19,-97.07 q -6.39,-32.76 3.61,-52.25 7.77,-16.14 30,-28.9 z m -34.14,81.46 -107.11,61.4 19,97.07 107.11,-61.41 z"
       id="path125" />
    <path
       class="cls-25"
       d="m 2817.1339,1024.9532 -2.66,-13.6 -106.63,61.11 q 27.78,142.2 30,153.33 l -46,26.4 -40.83,-209 152.77,-86.90002 q 24.84,-14.24 36.6,-10 14.19,4.93 20.12,35.22 l 3.26,16.69 z"
       id="path127" />
    <path
       class="cls-25"
       d="m 3108.7839,928.61317 14.86,76.00003 -45,25.81 -11,-56.26002 q -3.86,-19.79 -23,-8.81 l -89,51.00002 q 2,13.27 14.86,76 l -45,25.81 -70.79,-362.30003 45,-25.81 45.3,231.85001 86.83,-49.67001 q 21.32,-12.23 16.85,-35.1 l -10.85,-55.64 45,-25.81 15.34,78.52 q 1.82,9.27 -3.34,21.17 a 36.65,36.65 0 0 1 -15.51,17.83 q 23.78,-13.65 29.45,15.41 z"
       id="path129" />
    <path
       class="cls-25"
       d="m 3207.1539,958.05318 -45.53,26.11 -70.78,-362.31001 45.54,-26.11 q 73.67,377.11001 70.77,362.31001 z"
       id="path131" />
    <path
       class="cls-25"
       d="m 3451.5039,890.90317 q 5.31,27.21 -0.62,45.05001 -6.81,22.46 -33.29,37.64 l -94.17,54.00002 -9.58,-57.74002 92.62,-53.10001 -13.05,-66.77 -108.14,62 q -24.37,14 -36.8,9.11 -12.43,-4.89 -18.34,-35.08 l -30.59,-156.58 45,-25.81 q 1.08,5.52 29.84,152.71 l 108.14,-62 -29.83,-152.71 45,-25.81 z"
       id="path133" />
    <path
       class="cls-25"
       d="m 3598.4739,578.34317 -2.66,-13.6 -106.59,61.11 29.95,153.33 -46,26.4 -40.83,-209 152.77,-86.9 q 24.84,-14.24 36.6,-10 14.19,4.94 20.12,35.22 l 3.26,16.69 z"
       id="path135" />
    <line
       class="cls-26"
       x1="2609.4839"
       y1="1130.6931"
       x2="2582.7839"
       y2="1146.8333"
       id="line137" />
    <polyline
       class="cls-25"
       points="2131.28 965.39 2153.96 951.46 2164.31 1006.27 2086.08 1052.03"
       id="polyline139"
       transform="translate(458.55388,116.53317)" />
    <polyline
       class="cls-25"
       points="2160.54 1120.48 2183.33 1106.73 2193.24 1161.62 2114.65 1206.76"
       id="polyline141"
       transform="translate(458.55388,116.53317)" />
    <path
       class="cls-25"
       d="m 4396.8439,4386.5632 1.34,-11.44 c 9,1.41 17.24,1.29 25.68,-3.58 9.31,-5.37 11.11,-13 7.58,-19.12 -4.2,-7.27 -14.48,-5.6 -23.87,-4.06 -12.14,2.16 -26,3.74 -32.86,-8.18 -6.55,-11.35 -2.57,-25.29 12.71,-34.11 a 40.79,40.79 0 0 1 26.58,-4.68 l -1.3,10.84 c -6.9,-0.86 -13.51,-0.54 -19.76,3.07 -8.88,5.12 -10.18,12.28 -7.07,17.66 3.86,6.69 13,4.71 22.77,3.15 12.36,-2.1 26.15,-4.43 33.87,8.95 6.64,11.49 3,26.39 -13.71,36.05 -10.03,5.79 -22.07,7.12 -31.96,5.45 z"
       id="path143" />
    <path
       class="cls-25"
       d="m 4429.4539,4284.1432 9.9,-5.71 5.72,7.55 0.43,-0.25 c 3.3,-9.08 8.55,-18.12 16.84,-22.91 18.19,-10.5 36.08,-2 48.76,20 13.86,24 7.61,46.43 -8.54,55.76 -6.55,3.77 -14.86,4.5 -24.34,3.19 l 7.43,12.19 13.77,23.86 -11.93,6.89 z m 69.29,5.77 c -9,-15.56 -20.27,-23 -33.66,-15.29 -6,3.45 -10,10.24 -13.37,20.52 l 21.42,37.1 c 9.51,1.69 16.94,0.11 21.6,-2.58 11.63,-6.72 14.11,-22.29 4.01,-39.75 z"
       id="path145" />
    <path
       class="cls-25"
       d="m 4534.0239,4293.5932 c -8.9,-15.42 -0.11,-30.77 28.07,-51.5 -5.21,-9 -13.16,-16.07 -24.8,-9.35 -8.14,4.7 -13.38,12.77 -16.72,19.74 l -9.45,-5.6 c 4.12,-8 11.15,-18.66 22.5,-25.21 17.31,-10 31.22,-2.7 41.38,14.9 l 25,43.35 -9.89,5.71 -5.89,-7.85 -0.44,0.26 c -3.5,9.39 -8.67,18.58 -17.54,23.7 -11.75,6.8 -24.91,4.51 -32.22,-8.15 z m 43.94,-24 -11.34,-19.64 c -21.88,16.52 -26.67,27 -21.46,36.06 4.62,8 12.07,8.16 19.06,4.12 6.84,-3.95 10.43,-10.49 13.74,-20.55 z"
       id="path147" />
    <path
       class="cls-25"
       d="m 4581.4639,4196.3732 9.9,-5.71 8.41,12.22 0.43,-0.26 c -0.32,-11.64 3.68,-21.51 11.68,-26.13 a 20.25,20.25 0 0 1 8.4,-2.92 l 3.72,11.82 a 23,23 0 0 0 -7.51,2.79 c -6,3.44 -10.57,11.92 -8.48,26.62 l 26.2,45.39 -11.93,6.88 z"
       id="path149" />
    <path
       class="cls-25"
       d="m 4612.9639,4134.3632 11.78,-6.81 40.48,70.12 0.44,-0.25 8.61,-54.63 13.24,-7.64 -7.34,42.06 51.36,26.79 -13.09,7.56 -40.31,-22.11 -4.34,23.06 10.75,18.62 -11.78,6.8 z"
       id="path151" />
    <path
       class="cls-25"
       d="m 4739.9839,4189.4232 c -3.19,-5.52 -1.45,-11.57 3.35,-14.35 4.8,-2.78 10.77,-1.17 14,4.36 3,5.24 1.28,11.29 -3.37,14 a 10.08,10.08 0 0 1 -13.98,-4.01 z"
       id="path153" />
    <path
       class="cls-25"
       d="m 4742.0539,4103.6632 9.9,-5.71 8.41,12.21 0.43,-0.25 c -0.32,-11.65 3.68,-21.52 11.68,-26.14 a 20.23,20.23 0 0 1 8.4,-2.91 l 3.72,11.82 a 22.68,22.68 0 0 0 -7.51,2.78 c -6,3.44 -10.57,11.92 -8.48,26.62 l 26.2,45.39 -11.93,6.89 z"
       id="path155" />
    <path
       class="cls-25"
       d="m 4820.2939,4142.0932 1.34,-11.45 c 9,1.42 17.24,1.3 25.68,-3.57 9.31,-5.38 11.11,-13 7.58,-19.12 -4.2,-7.27 -14.48,-5.6 -23.87,-4.06 -12.14,2.16 -26,3.74 -32.86,-8.19 -6.55,-11.35 -2.57,-25.28 12.71,-34.1 a 40.73,40.73 0 0 1 26.58,-4.68 l -1.3,10.84 c -6.9,-0.87 -13.51,-0.54 -19.76,3.07 -8.87,5.12 -10.18,12.27 -7.07,17.66 3.86,6.69 13,4.71 22.77,3.14 12.36,-2.09 26.15,-4.42 33.87,9 6.64,11.49 3,26.38 -13.71,36 -10.04,5.8 -22.08,7.12 -31.96,5.46 z"
       id="path157" />
    <path
       class="cls-25"
       d="m 4880.2439,4089.0532 -22.59,-39.14 -10.47,6.05 -5.21,-9 10.63,-7.11 -10,-20.62 10,-5.8 11.42,19.79 19.06,-11 5.62,9.75 -19.05,11 22.67,39.28 c 5,8.73 10.66,12.08 18.81,7.38 2.47,-1.43 5.08,-4.3 6.91,-6.51 l 7.53,7.67 c -3.17,3.58 -7.22,7.66 -11.58,10.18 -15.05,8.7 -25.68,2.04 -33.75,-11.92 z"
       id="path159" />
    <path
       class="cls-25"
       d="m 4924.0039,4058.3532 -25.86,-44.81 12.07,-7 24.94,43.21 c 7.65,13.24 14.85,16.64 24.16,11.27 7.27,-4.2 10.27,-10.78 12.17,-22.93 l -29,-50.19 11.93,-6.89 40.82,70.7 -9.89,5.71 -7.4,-10.47 -0.44,0.26 c -2.09,11.49 -6.14,20.61 -15.88,26.24 -14.97,8.68 -27.2,2.94 -37.62,-15.1 z"
       id="path161" />
    <path
       class="cls-25"
       d="m 4993.6939,4005.7032 c -13.27,-23 -7,-45.64 9.19,-55 8.15,-4.7 15.29,-4.75 24.49,-3.27 l -7.55,-11.74 -15.71,-27.21 12.07,-7 59.81,103.58 -9.9,5.71 -5.8,-7.7 -0.44,0.25 c -2.42,8.57 -7.3,17.6 -15.59,22.38 -17.75,10.32 -36.97,3.57 -50.57,-20 z m 59.81,-11.64 -21.34,-36.95 c -9.07,-1.94 -15.63,-0.87 -21.45,2.49 -11.34,6.56 -14.06,22.67 -4.74,38.82 9.74,16.87 22.75,22.94 35.11,15.8 6.55,-3.78 10.38,-10.25 12.42,-20.16 z"
       id="path163" />
    <path
       class="cls-25"
       d="m 5043.9939,3899.6632 c -2.69,-4.65 -0.82,-9.81 3.84,-12.5 4.66,-2.69 10.05,-1.73 12.74,2.93 2.69,4.66 0.81,9.81 -3.84,12.49 -4.65,2.68 -10.14,1.59 -12.74,-2.92 z m 15,21 11.93,-6.89 40.81,70.7 -11.92,6.89 z"
       id="path165" />
    <path
       class="cls-25"
       d="m 5110.0639,3938.5232 c -13.69,-23.71 -6.08,-46.14 11.23,-56.14 17.31,-10 40.54,-5.37 54.23,18.34 13.52,23.43 5.91,45.86 -11.4,55.85 -17.31,9.99 -40.54,5.37 -54.06,-18.05 z m 53.09,-30.66 c -9.4,-16.29 -23.93,-22.64 -36.15,-15.59 -12.22,7.05 -14,22.82 -4.58,39.11 9.42,16.29 23.92,22.27 36,15.3 12.08,-6.97 14.06,-22.67 4.73,-38.83 z"
       id="path167" />
    <path
       class="cls-25"
       d="m 5206.3339,3920.1732 c -3.19,-5.52 -1.44,-11.57 3.36,-14.35 4.8,-2.78 10.76,-1.17 14,4.36 3,5.24 1.28,11.29 -3.38,14 a 10.08,10.08 0 0 1 -13.98,-4.01 z"
       id="path169" />
    <path
       class="cls-25"
       d="m 5222.0739,3873.8532 c -13.69,-23.71 -5.65,-46.4 12.54,-56.89 9.31,-5.38 17.89,-5.29 25.44,-3.64 l -1.57,11.38 c -6.18,-1.28 -12,-1.38 -17.73,1.9 -12.8,7.39 -15.73,23.82 -6.32,40.11 9.41,16.29 24.5,21.94 37.45,14.46 6.54,-3.78 10.37,-10.25 12.46,-16.7 l 9.86,5 a 39.89,39.89 0 0 1 -17.63,22.2 c -18.73,10.82 -40.98,5.6 -54.5,-17.82 z"
       id="path171" />
    <path
       class="cls-25"
       d="m 5285.3439,3837.3232 c -13.69,-23.72 -6.08,-46.15 11.23,-56.14 17.31,-9.99 40.55,-5.37 54.24,18.34 13.52,23.42 5.91,45.85 -11.4,55.85 -17.31,10 -40.57,5.37 -54.07,-18.05 z m 53.1,-30.66 c -9.41,-16.29 -23.93,-22.64 -36.15,-15.59 -12.22,7.05 -14,22.81 -4.58,39.11 9.42,16.3 23.91,22.27 36,15.3 12.09,-6.97 14.05,-22.63 4.73,-38.82 z"
       id="path173" />
    <path
       class="cls-25"
       d="m 5348.9339,3753.2832 9.89,-5.71 6.9,9.59 0.43,-0.25 c 2.25,-10.22 6.65,-19.74 15.08,-24.61 10.77,-6.21 19.53,-4.48 27.31,2.27 2.8,-12.28 6.88,-22 15.46,-27 14.55,-8.4 27.08,-2.83 37.49,15.21 l 25.87,44.8 -11.93,6.89 -24.94,-43.21 c -7.65,-13.23 -15.14,-16.47 -24,-11.35 -5.53,3.19 -9.11,10.11 -11.45,21.16 l 29.56,51.21 -11.93,6.88 -24.94,-43.2 c -7.65,-13.24 -15.14,-16.48 -24.16,-11.27 -5.24,3 -9.1,10.1 -11.45,21.16 l 29.57,51.2 -11.93,6.89 z"
       id="path175" />
    <path
       class="cls-9"
       d="M 5548.7139,454.36317"
       id="path179" />
    <polygon
       class="cls-27"
       points="2622.22,3653.38 2595.11,3606.42 2540.89,3606.42 2513.78,3653.38 2540.89,3700.33 2595.11,3700.33 "
       id="polygon181"
       transform="translate(458.55388,116.53317)" />
    <polygon
       class="cls-28"
       points="2562.82,3841.03 2542.48,3805.81 2501.82,3805.81 2481.48,3841.03 2501.82,3876.25 2542.48,3876.25 "
       id="polygon183"
       transform="translate(458.55388,116.53317)" />
    <polygon
       class="cls-28"
       points="2734.91,2419.36 2714.58,2384.14 2673.91,2384.14 2653.58,2419.36 2673.91,2454.58 2714.58,2454.58 "
       id="polygon185"
       transform="translate(458.55388,116.53317)" />
    <polygon
       class="cls-28"
       points="2228.45,2892.57 2200,2843.28 2143.09,2843.28 2114.64,2892.57 2143.09,2941.85 2200,2941.85 "
       id="polygon187"
       transform="translate(458.55388,116.53317)" />
    <polygon
       class="cls-27"
       points="1987.34,2898.88 1967,2863.66 1926.34,2863.66 1906,2898.88 1926.34,2934.09 1967,2934.09 "
       id="polygon189"
       transform="translate(458.55388,116.53317)" />
    <rect
       class="cls-29"
       x="-1299.1613"
       y="4333.7412"
       width="1674"
       height="51.330002"
       transform="rotate(-30)"
       id="rect191" />
    <path
       class="cls-30"
       d="m 2501.8439,3381.6432 -172.49,99.21 136.65,53.29 -21.74,160.52 161,-60.52 113.58,119.1 39.37,-129.39 194,-3.91 -118.97,-145.63 107.07,-167.29 -148.84,1.56 -36,-148.7 -164.26,141.25 -150.86,-97.53 z"
       id="path193" />
    <rect
       class="cls-31"
       x="-542.3385"
       y="3697.062"
       width="2643.78"
       height="56.23"
       transform="rotate(-30)"
       id="rect195" />
    <path
       class="cls-32"
       d="m 3667.0039,2031.7732 -104.3,-82.56 0.75,98 -105.05,26.25 99.33,83.74 -162.34,95.65 184.69,-1.94 -30.61,245.16 142.06,-235.61 130.37,25 -37.82,-92 135.28,-92.93 -166.15,-17.6 9.11,-133.47 z"
       id="path197" />
    <polygon
       class="cls-28"
       points="2402.13,4017.91 2386.88,3991.49 2356.38,3991.49 2341.13,4017.91 2356.38,4044.32 2386.88,4044.32 "
       id="polygon199"
       transform="translate(458.55388,116.53317)" />
    <polygon
       class="cls-27"
       points="1718.37,3016.13 1704.81,2992.65 1677.7,2992.65 1664.14,3016.13 1677.7,3039.61 1704.81,3039.61 "
       id="polygon201"
       transform="translate(458.55388,116.53317)" />
    <polygon
       class="cls-27"
       points="1486.39,3231.17 1472.83,3207.69 1445.72,3207.69 1432.17,3231.17 1445.72,3254.65 1472.83,3254.65 "
       id="polygon203"
       transform="translate(458.55388,116.53317)" />
    <polygon
       class="cls-28"
       points="2678.56,3144.35 2650.11,3095.07 2593.2,3095.07 2564.75,3144.35 2593.2,3193.63 2650.11,3193.63 "
       id="polygon205"
       transform="translate(458.55388,116.53317)" />
    <polygon
       class="cls-27"
       points="2007.67,3794.16 1980.56,3747.2 1926.34,3747.2 1899.22,3794.16 1926.34,3841.12 1980.56,3841.12 "
       id="polygon207"
       transform="translate(458.55388,116.53317)" />
    <polygon
       class="cls-21"
       points="2702.26,1471.88 2676.39,1427.06 2624.64,1427.06 2598.77,1471.88 2624.64,1516.69 2676.39,1516.69 "
       id="polygon209"
       transform="translate(458.55388,116.53317)" />
    <path
       class="cls-33"
       d="m 2140.3339,2512.9832 32.42,291.28 273.77,-261.87 159.78,203.07 32.29,-214.86 284.78,-78.19 -261.56,-150 143.85,-186.13 -257.6,11.67 -147.37,-332.31 -82.39,310.21 -351.75,-67.83 120.19,195.46 -289.08,251.9 z"
       id="path211" />
    <polygon
       class="cls-1"
       points="978.07,3725.82 3049.64,4921.84 5121.2,3725.82 5121.2,1333.78 3049.64,137.76 978.07,1333.78 "
       id="polygon215"
       transform="matrix(1.0000558,0,0,0.97160311,285.17374,21.946041)" />
  </g>
</svg>
